<mxfile host="app.diagrams.net" modified="2021-09-29T06:39:50.807Z" agent="5.0 (Macintosh; Intel Mac OS X 10_15_7) AppleWebKit/537.36 (KHTML, like Gecko) Chrome/93.0.4577.82 Safari/537.36" etag="tSVivzat2sa4HJeJXD8J" version="13.10.4" type="github">
  <diagram id="z74QApKyzLcfMYk-ctGL" name="Page-1">
    <mxGraphModel dx="1251" dy="685" grid="0" gridSize="10" guides="1" tooltips="1" connect="1" arrows="1" fold="1" page="1" pageScale="1" pageWidth="850" pageHeight="1100" math="0" shadow="0">
      <root>
        <mxCell id="0" />
        <mxCell id="1" parent="0" />
        <mxCell id="0aWTBgT8m-yXVXQRdEIo-15" value="" style="shape=image;verticalLabelPosition=bottom;labelBackgroundColor=#ffffff;verticalAlign=top;aspect=fixed;imageAspect=0;image=data:image/png,iVBORw0KGgoAAAANSUhEUgAABD8AAAEkCAYAAAAo4JqxAAAgAElEQVR4AeydB3RV1dLH/eztPX36nvr02XvvHRVEUaSIdOm99ya99957JwRIT26oofdeRenSVFBEiorS/t/67XjiDSQQQjA3YVjrrhvOPWXvOTOzZ/5T9hUnTpyQfYwGxgPGA8YDxgPGA8YDxgPGA8YDxgPGA8YDxgPGA5mVB67IrBOzeZnQGg8YDxgPGA8YDxgPGA8YDxgPGA8YDxgPGA8YD8ADV5w8eVL2MRoYDxgPGA8YDxgPGA8YDxgPGA8YDxgPGA8YDxgPZFYeMPDDwB8Dv4wHjAeMB4wHjAeMB4wHjAeMB4wHjAeMB4wHMjUPGPhhDJ6pGTyzopY2L0PkjQeMB4wHjAeMB4wHjAeMB4wHjAeMB1LOAwZ+GPhh4IfxgPGA8YDxgPGA8YDxgPGA8YDxgPGA8YDxQKbmgStOnTol+xgNjAeMB4wHjAeMB4wHjAeMB4wHjAeMB4wHjAeMBzIrDxj4YeCPgV/GA8YDxgPGA8YDxgPGA8YDxgPGA8YDxgPGA5maBwz8MAbP1AyeWVFLm5ch8sYDxgPGA8YDxgPGA8YDxgPGA8YDxgMp5wEDPwz8MPDDeMB4wHjAeMB4wHjAeMB4wHjAeMB4wHjAeCBT88AVp0+fln2MBsYDxgPGA8YDxgPGA8YDxgPGA8YDxgPGA8YDxgOZlQcM/DDwx8Av4wHjAeMB4wHjAeMB4wHjAeMB4wHjAeMB44FMzQMGfhiDZ2oGz6yopc3LEHnjAeMB4wHjAeMB4wHjAeMB4wHjAeOBlPOAgR8Gfhj4YTxgPGA8YDxgPGA8YDxgPGA8YDxgPGA8YDyQqXnAwA9j8EzN4IaEphwJNVoZrYwHjAeMB4wHjAeMB4wHjAeMB4wHMisPGPhh4IeBH8YDxgPGA8YDxgPGA8YDxgPGA8YDxgPGA8YDmZoHDPwwBs/UDJ5ZUUublyHyxgPGA8YDxgPGA8YDxgPGA8YDxgPGAynnAQM/DPww8MN4wHjAeMB4wHjAeMB4wHjAeMB4wHjAeMB4IFPzwBWyf0YBo4BRwChgFDAKGAWMAkYBo4BRwChgFDAKGAUyMQUM/MjEL9emZhQwChgFjAJGAaOAUcAoYBQwChgFjAJGAaOAZOCHcYFRwChgFDAKGAWMAkYBo4BRwChgFDAKGAWMApmaAgZ+ZOrXa5MzChgFjAJGAaOAUcAoYBQwChgFjAJGAaOAUcDAD+MBo4BRwChgFDAKGAWMAkYBo4BRwChgFDAKGAUyNQUM/MjUr9cmZxQwChgFjAJGAaOAUcAoYBQwChgFjAJGAaOAgR/GA0YBo4BRwChgFDAKGAWMAkYBo4BRwChgFDAKZGoKGPiRqV+vTc4oYBQwChgFjAJGAaOAUcAoYBQwChgFjAJGAQM/jAeMAkYBo4BRwChgFDAKGAWMAkYBo4BRwChgFMjUFDDwI1O/XpucUcAoYBQwChgFjAJGAaOAUcAoYBQwChgFjAIGfhgPGAUyOAVOnzqlk8f+0Ikjv9rHaGA8kAY8cOqP49Lp0xlcM9jwjQJGAaOAUcAoYBQwChgF/Clg4Ic/Nexvo0AGpMCJX37Tz+u2aG/UPPsYDYwH0oAHjm7b4wDFDKgObMhGAaOAUcAoYBQwChgFjALJUMDAj2QIY4eNAhmFAke37tHqWj0UesM79jEaGA+kAQ9s7hWsY9/9mFFUgI3TKGAUMAoYBYwCRgGjgFEgBRQw8CMFRLJTjAKBTIEjW3ZrZdUumvx4Hm1o1VY7Rg2wj9HAeOACeWD7sL5a+0VLRdyWTZu6jdNv3xr4Ech6z8ZmFDAKGAWMAkYBo4BR4EIpYODHhVLMzjcKBBgFPPAj7s2i2jdrgn4/sMA+RgPjgQvkgd++m6O9MWMUfU8OAz8CTMfZcIwCRgGjgFHAKGAUMAqkBQUM/EgLKto9jALpSAEP/Jj1bnH9tCJKp0+vto/RwHjgAnng5LHl2j93kmLu/UjzG/XU14tXaOfOnfr222/1448/6tChQzp27JhOWyPUdNR29mijgFHAKGAUMAoYBYwCqaeAgR+pp51daRQICAoY+GFgjwFeF88D/uBHZLmmmjYhTPPmzdOKFSu0ceNG7dq1SwcPHtTJkycDQu5tEEYBo4BRwChgFDAKGAWMAhdGgfQDP06fFtsJ/v7Dzzq2/6B9jAYBzwPHfz6q0ycCz/Ex8COx43vq1Cod2TdP+9f5tHf2RO32jdGu8BHaFTJMu6NHa8/UIH2/NEKHd87U8V+XWobEBWZIZFagxR/8mFi8vkKHjpLP59OsWbO0bNkybdq0Sfv27dOJEycubJVNw7NPHT+hPw4cCnhdaWu62TTGA+nDA2x5f/rkqTTUOml3q9MnT7qt2I030oc3jO5G99TywPHDvwj5zSz/0g38wIj7ded32j4sSlsHhNnHaBDwPPCtb4FzPAJN+A38iAc/Th5foaP75+mH1VFaO6K/ZtZrqqgClRWaraRCXiusSS8WUOg7xRT+cVlNq1BPq3t20564YB35Jk7HfzEQJLOCGimdlz/4EVSkjoL6DdakSZMUExOjOXPmaM2aNdqzZ0/6gR+nT7sdaHaOnxbwutLWdLNpjAfShwf2z1kpAjWB+O/4z0fE+Iw30oc3jO5G99TywL64Zfrj4JFAVCupGlO6gR8njv6mbycvUtg/sinspiyKuDWr67JPp337GA0CiQfCb3lPIde9pbk5aurnNZtTJWiX8iIDP1brxO/L9dO26Vrer4fCXiqokNeKKKRiPYUO6Kkw3yiFLQxR+MpIhc0IUtikoQpp3kohH5VR+GuFtajWF/puQYiOHzUAJKVAQWY870zwY0zvARo7dqwDQKZMmaIlS5Zox44dOn78+KUU52TvTdbZDwvWavKjBRR6w9sKtzXTbAWzl4wH/uSB8H++p5Br3tTyCu11ZPPOZPVIev5wZNMuLa/QQZOueVOMN5DsPBuL+R3GA2fzgPN/rnlTS4q10OGNO9JTfaTpswMC/FhVu4l2hw7X9zPG28doEHA8sH14f83JUcbAjwAtjzh1cpV2zwvRlEJVNOmFzxTarbPCATtWRyl8TbTC10YrfF1M/GdtTPz/+W1VpMKCBim0aDVNfre4NvTurlMnVlkZTIC+50sNuPiDHxNLNNC4voM1evRoBQUFKSIiQnPnztXmzZv1xx9/pOkinNKb+YMfS0vX1s7xQwJOV9oabjaM8UD68MCWAb01/cWCGQL8mPZCATFe45X04RWju9E9pTywdVAfxb1R1MCPlBpq5zvPP/NjS7+e+mXXTJ34Zal9jAYBxwMHV8doSYmaBn4EoFMM8LE1dISmFKiisJI1FRY1UuFLwhIDHh7wkdT3igiXDRLesYNic5XXigbNdfKPlQaABOC7/jvBj0klGriyF3/wg9KXQAE/1rdorSObpwWcrrQ13GwY44H04YEfFoVpdraSGQL8mJ21hH5cFGb6y+x944EA54Efl0Zo3iflDfw4H6iR0t/9wY9tQ/ro2P755nBchg7HpXZo0uL+h76aoqVlasv3ZhktC4nVV199pW3btrn6/x9++EGHDx9Ot1R45O1yLnvZMWWs4irUU1il+gqLHhWf7XEGyBGyKkKj54/XkOkjNW7hhL+yQLzzyA6ZO1HhPbspNmc5fdW3h37/eZHpo8tMH/lnfgQ6+PFl23b6dfcs49HLjEfTYj2zeyRukJ1Z6PHTqmjNyV5aUz+rp5UxM/T1119r+/bt2rt3r9uq++jRo+nXr+hPx8Are5nzfikdXBVl+sv0l/FAgPPAwbU+zc9TQVNy1tCKyGln6ZUjR46ku15JKe7gf15AlL0Y+JE5F+PMYlR44Efoi0UV03e44uLitHDhQtcAcevWrfr+++/122+/+cvV3/r35Qp+0ONjYd0mCq9YV2EThyqckhYP0FgXo77RA1W5RTV98nluvZsrq97KkUXZPs2uwlU+18jZYxXmXw7DdfMmigyQqe8V1765E3X86BJbmAN8YU5LHWPgh61DaclPdi/jp7+TBzzwI+zDSoodOtbtUrV48WKtW7fOgSAEatKrZM8ziAz8MJn4O2XCnnXx/OaBH6HvlZVv0GjNnDlTixYt0tq1a10QeP/+/fr99989Ec8w35kO/Dh+ZLEObZyibyeP09ZhA7SpT09t7NhJX3frqs0D+uibCcP1w4Iw/bp3jk6ftvp+Uw7nVw4e+DHhuUKa2LmvwsPDRQPE+fPnOwWwc+dOEVVJr3+XK/ixvl9P+UrXUmjvbgpfFZUI+Og2safylsqnex+5T9ded62uuOIK97nyyit1y223qnd4P4Wsjkx0jesPMitYoYWranm9pjq8ZVq6gh8bNoRq48ZwHTpkWXF/h54y8OP8uvDveA8X+oyTx5bpyLYZ+j4uWNvHDNTm/j31VZfO+qprZ23u30vbxw7S97Mm6Og3cTr5x4p0lekLnZudnzF5Mj3emwd+TMhWVpN6DVJkZKSmTZvmAjUbNmxwmarHjh1LLzPFPTc9wY9j++fpwPIo7QodqS2D+unrHt21sUMHberVQ1uH9NOeqNE6uCZGv/+00HTEZRT0SA9ZzUjP9MCPCW+V1MQeA1z/s6lTp2rBggVav369du/erV9//TVd9UpqHp5pwI8/Di7UgRVR2jF2iNa06qJ55dsoNm9zRX3YROHvNFREti8Uk7OZphdppcW1O+irnr201zdOv+ycqZO/m0GUkYTx7x6rB34EP1NA49r10Pjx4xUWFiYUADtAbNmyRYcOHUqN/KXJNZcj+PHr/nmaVbiqwhq3UNjM8QkgBtkck1ZGKFfxPLr19lsd4PGPW/6hBx57QI8/94Tuvv9uAYB0n9hLIavOAD/I/mBHmOAhinm3uPZOGacTvy5LkSG0c+dk+Xx9tWNHrE6digdVN2+O1JQp/bRmzcSEY7/+ukRhYd20c+cU/f77ue/dtWsd9e7dUJs2RaZoDGfKxeLFo7V48Rj98MPsVF1/5v0y+/8N/MhYjubxI0t06MvJ2hU6XOs7d9KCOk00uVQtRRaqotC8FdwnsnAVxZaupXl1mmhDl87aFT5ChzdNdXXmmZ2fbX4Zi58v9n154Mf490prXJc+Cg4Odo7K9OnTtXz5cpf9kd5Oyt8NftAT7Lfv5+r7mRO0eUBfLWvQUXHFWyvmk2aKzN5YYVkaKOqDxorN3VxzyrTWqqadXND0hwWhOvaDBR0ulift+oyvgzzwY/ybxTWuU2/n/xAARq8sW7bMZX+kZ/A3tU5Uxgc/Tq3Wr3tma3f4SC2u3Ey+rLUVlbedompPVEz3ZYoZvFGxQbvlG7lNMX3XKLrlDEWWGqTIbA0V+041bezW3YEmfxy2FHdTVEkrqgTw49mCDvygCSIACJEVmiB++eWXOnjwYGpl8KKvu+zAj1OrtD1mtCbnr6ywwb0TgA9KXujv0Td6kO669y4Hctx4801644O3VKNdbTUf0Eql65fTo88+rr5RA8/O/PArmYn4tKI29urmosXnkwvAjoiIHnrllac0cGBTHT8eD6Z261ZHTz/9sBo0KKVfflnsjm/ZEq0777xdsbF9deTIuSNMxYt/ogoVPtOyZeNSBV40b15RLVtW0rp1Iam6/nzzzmy/G/iRtP4LuPd8arWI4n43Y7xWNm0lX86yiihSTeFt27ltrMPighS+PELhy8Ljt7YeP1ihLVsrLH9lReUoo9Wt2uj7ORN17McFJhcW4c00POCBH8HvldHYLr01ZswYB4BERUW5LNVNmzala4Yqhs7fCX6cOLZch76aqi2D+2lGrjqKylpfkUV7K7pxrGJ6r5Jv+GbFBu+Vb+jXium1QtENIxRVsKtistXV3KINtWPsYB3dEadTJ6wBesCtAaa3/ja95YEfwW+W0NhOvRLplXnz5rkeiPQ9zGj/Mjb4cWqVjv2wQBvaddS0rBXjFVe3JYqd8O15P77ROxTVMFrhL1bSvMJ19e20CTp+dOnfxlCmTDKIoX16tTzwY+LzhTWhUx+3/SWGxaRJk1xa6Zo1a3TgwIF0k/3LDfwgmrOoQXNF1vpCYREjEoEf4xZNUMk6ZXTTP292WR8vvv2yWg5uk3AO2R59ogYqeFno2T0//MGP1m21sOYX+mFRaIp0wrx5I5QvXzaVL59Pf/yx3GV6VKqUX7fddotKlsytzZuj9PPP8xUa2k333/9fffVVhI4fX+6OfffdDH377QwdPDhPJ0/+ZWgBfpQr96lmzx6q77+f6c758cc5OnEiHlyhHObnn+clZJAAwvDsfftmumNknKxdO+nP+67Sb78tcb/t3Ttd+/fPcv/nml9/XawDB+bot9/i9R9j+PHH2W5s3A9ddezYUpdB4j07M+ovAz8yhk7+/eAibR3WVzM/raCIwlUVPm5Qgnz79/xJ6u/QUf0VkqeCpuerqK1jB+kPa2ycIv2WGeU9s83JAz8mvl9e47v3d3bK2LFjFRIS4vqUUfpCc8L0/Pd3gR8nfluuA6t8Wli6oSKeKa2oquPkIxCaEt+g7xpFlRks32tltbJ2Ux3dMdPK5QxsuGz1pAd+TMxSSsFd+yXSKzNmzHClL+mZ+Z5afZahwQ9S0heXqK3YtysrpmmMfGO/UeyEvSlScE4JgvqO2KLIXO00LWtl7QgaJhyrzLYo2nwuzqg38OPi6JfW/Hfq5EpNz1FG4Z06xe/S4gdajJobpPfzfaDrb7zegR9FqxXXiFljUuwceQ5TWMgwTf6skvZEjkqRPqA3R+3axfT88485oODw4YX65JMsuuWWm5Q3b1ZNnTpAu3dP0xdflFWhQh9q9+6p2r7dpy++KKNHHrlXDz54t6pVK+RACK9sBvCjYMEPVblyQb388pO65547VbhwDu3aNdVlkbRqVVn165fSwoXxYzx2bJkDO1555Wl3rG7dEmrSpLw7BlAyeXI/vfrq07r11n/onXdedP+nDCc0tKuKF8+p6dMHOtAGIOSzz7KpceOyou8ImSxxcYP18cdvu2efyKSRMAM/AkvOk9Ibp06s0rpmrTX1wzKKbN1W4UvDz2p07Mlwkt80RV4SprAGzeXLXlrrO3a0Nd8cmxTp+KT4MZCOGfjxp/46tUr75oVpRvbKinirjnyDNrjs75QAHwnnjNslX9dFinmjsuZ+UlGHN03T6VOBrx8DiR9tLJmDXwz8SC28ksx1F7vVLVvjrm/VVlPeqypf2zjFjt7hUtgSlFcKEN4EAGTIV4ou0lNzizXS7sgxmWIhNMWTdorHwI+0o2Va8CVpqJNfKaSwfj3inR8/8GPE7DF6McvLrsnp//3f/6lKy+quFCZJR8jvujN/D5sZrMgcpfVN8JAU6QOyLQYMaKK77rrdNSmdP3+EPv/8I2XN+rIDOwYNauqOf/DB6+revZ4DOVq0qKjChT9Uu3bV1L59DeXI8aZGj27rsjegE+AH9+M4QEf16kX1wAN3i14g9PEYNqyFChb8QH37fuHGyBjat6+urFlfcZklZct+6spmli4d63p/5M79jvv/hAmdHTDTqFEZB4xMntxXRYrkUJs2VRzQ4fP10RNPPOjuQ3kOYEvPnvXdOLySnrR4j4F2DwM/AkvOk+KPLf17amaBKorq3kXhi0IVfuaOTX/K9MQV4Ro+a4wGTRmmsQuCE4OfXLMgRGFt2mlawSraNLRvimQ8qfHYscDnmcvlHRn4Ec+L+xeGa1HFZor6qLl8AzcodvyelAdEE/yGvYodt1OxfVYqNmttrarf0mUAXy68ZPM0vebxgIEfyYAYqT18MeAHqap7Y8Zoyqsl5GsWq9hR2xIpt2G9F6lQ3up6/pksSX5efj6r8nxcLtE11PzFFOmqZTWa6fDm9N3lwWM6+w4MBWTgR2C8B08eAD9iHsujsGF9Fb468S4vw2aO1sNPP6Krr7la11x7rWp1qJfY8TkH4JEIAKFfwLvFtWPUgBQ5RjQvJTviv//9t8aMaefAgpo1i4rsi6JFP1KdOsU1Z84w3Xfff7Vo0WhRepInz3sCoIiOpo6ynQNJqlQplFB+Avjx0UdvafToNq5BKtflzv2uK6+hserq1RMcaFG1aiFXxkJj1CxZXlCrVlX0/fdxKl06j7s/ZTPjx3fUY4/dr1Gj2riskGrVCuvzzz92vUdWrBiv6tWL6NNPs7pymSZNyuntt5/XE088oKFDW2jRolGqVetzl6XivYPM+G3gR2DJuT+Pnfx9uX5aGaU5n5RTVIcOCp8zIUm57hzUTfnK5NdL77yiJ154Uo8997iee+N55S6RV+MXT0pc6hY3XhHNW2t2gco6sCbaMkAsAyRFut6fLwPpbwM/VuuXnbO0vn0XxeRsqpjOi84KiLZtPF4fZy+epF+Av/DaSx+qTpWef/kG9AvsMFdTstfQ1qH9XPPUQHrnNpbAXbMyy7sx8CO1KEcy110M+PHzOp8WlWukqELdEpoW+Wd89O08Qy89n9WlvXtbXPp/X3PNtXrysVf+UnCgvUG7Fd3Yp2lFWmtj1246/eeODX8HA1NXTw8AnBev7v7veG5Gfgap90uWjHGlBOfbNeNi52ngR2AtMIAfsU/ni292uiLxji3DZ47W4y88oWuuvUZXXX2Varavk9jhSSH4EbYwVOHZSuqbsYNSbBDTX+ONN55zQALAQtu2VTV2bHvXtyN79tfVq1cD1wCVrA0yQ1577RlRolKqVB5XzkIpCn1DKEWBZwE/ypTJ68AS/g9gUq9eST355INOX9AwtWHD0i77IzKypwNR7r33LgducA8P/Jg0qYtat67iyl24J31JGM97772siRO7uF4iZKM899xjoiEr42jRopLeeONZ1zB1yJDmyp//fUVH904xLS5W5tLjegM/AkvO/Xng9wMLtKJyffkq1lN49Ci5ban9ZHniijA1H9hKr2d/U7fdcbuuvvrqhPX/yquu0t3336ORc8YqdI0fWLom2jVIjSpfV8vqNBHv3/+Zf+ffZFSRZfXll2E6enRRuo3j75yzPStt5c3Aj1XaMW6o4j5voahq45MsdQHYeOj+pxJ0g79fwN833vAPFc1fJ7FvMG6XYsoP0fzSTfXd9PHpIpv4COgG1mfzEdJWbgJRD9GHjT5y9HqjN1x6jtHAj2RAjNQeTi34cfzwYu0KHSEffT56LlPs+N2JFdWEbzW892IVyVdLLz2XVU8+9rJuuP4mp+xu+edtevSh5/XaSx8o3yeVzrrOR/lLhWGaV7iO20EmKYbD4Vi1KthFUr3mhNToU3ePc/D11xGOUTFmdu2aopCQrqKhYVL38o7h1HToUEM4GfQK8I573yg+orfU5NOo0Dvufc+dO1x8tmyJ0vLlQQoL656QOu+dczHfPJOeBYMHN3NjHDmytSIje2jPnmmXRDARdrYCJUoNbU6e0YeFpos0iCxVKreLtidFs4uZ75nXGvgRWIsN4Me0LMUU3qtbfOq7nxOEg/P6+2/ouuuv0xX/d4XKN66k4KUhSUaJE2V6+N2D4xFTxsqXq7x2hQw/S97O5A/v//TwYHcWdn159NH7nLysXx8qykv+9787lCfPuy7bguah06YN0EsvPelKSdq1q64+fRqqX78vNG5c+wTZBajw3+0FeatTp5hee+1p10CV5yIjBQpkd4AGZTQAGoAr6CQP/OCejOE///mXyOoAhOF5yDM7wTAedAaZHvzG2KdNG+hAmZIlc7n75M37npN3b66Z8dvAj8CSc4/HTh5bpgMrIjX5hQKKHNnvrFK3sDXRIuPrtWyv6/ob4nv9/OfuO1zGxyvvvaoHHn9Qt91xmwBGE4EfyPyiUFc+53uzqA59PSVFjQ2RLdbi4OBO2rbN5/QDazTHKA/7+utIJ3+cx9/IGevVmeuYNz++MXYpPWNtTcpewJ6gWXJwcEe3NvpfC1gyY8YgZ5Mg+zExfQQYSl8h//Mu5m/m0r9/E7VpU9UBqYCpfNA/mbkJ8sXQ7O++9nIHP37bN08rG7RRVIEu8g1Yf5Z9T4C0XdNgffJhaZf58cB9TyaAIHf85396+onX9darOVWvWp+zr+27WrG5murrnj0EEHuud4s9umJFkCZO7JzQwBz5wZmNiemdsHZj537zzWR3XlJ2vf8z6BeGvKEfktolDv1D5ikfdID/tadPr9Ls2UNcwAXwhKBhVFTPNLXdKbmlpxi6zvtQlsuxI0cCG8z97rs4py8ZNz4YOo1xMyfPx0tMz4tbJ7G3aIDPs2hyD2/43593uXFjmMvEXbYsKCEY5n/O3/m3gR+pRTmSuS614MfhTVO1vn1XxeRuebaC+rNeL3TUZvXpOE2kuFUr11F3/udep+Qee/gFlfm8qdo3naie7ScneX1008ma/tkX2hU+OhFDesyGoLCd5VtvPe+2r4RxQedodkjUlnp6zkUBDhzYROXK5XNNA73rk/qeP3+kcuV6R02blnc7MJx5DpkNOC1EbEl99/8dgIVGid261dXixaNdpJlocFpmQwDsEIHOlu1V5wgxz2zZXnHOGrtC+I8nLf5mVwoUNLtkbNgQdpYCIqo9e/Ywt2VoVFQv9x7S4rnJ3cPAj4tT9snRNbXHaUq8oERNRbZso7DpQYmAjdHzxytX8Ty64aYbnMznLp5X/aL/2g0ibG20xi8NOdsJOgP88I3op9mlaum7aUEp5m8MmH79Guuf/7xJt9xysyIiejrexCH617/+6RqbAjrEL27hyp79NSdPCxaMdOchsz/9NDdhMQT8ANiYMqW/+33lyvGuV0fVqgUTgAiOVapUQA8+eI8+/vgtde5cK0GHeOAHBlefPo3c8+kpwo4xjOHQoQUJ56JXyPh4/fVn9O67L+mrr8LVpUttvf/+qw7MoUzmXM5bat9lIF1n4EdgybnHG8f2zdOWwX3ky1FGEbPO6N+xLkbjl4So+cDWTubp83P7nf9W7hKfqln/lmo7oqMqNa/qmiCjG8L8Mz/+lPmwmFGK+LisNg/vr99TsPsLaz6OCIAgwfuGwFoAACAASURBVA3GiUNSqlQuBzCOG9fBGayAEmR+0WSYMrVzGdJcT1ka/X9wiLy5e9/ohkaNSjsZJUMEMMT7DVCU3kEVK+Z3TZT79m3k+grRhNk752K/GTsZZ88887Br4AwoyodeRf5judDn0FwZR4PM17S0WS50HJnh/Msd/PgubqLmlm2lqCpjk7TtAT/GDFyl7m1j1LTuMBXMWy0B/Hj79U9Up0ovdWweIsrm/TPJvb99pfpqRYN2OrAsPsCZHM8QsOvdu6Gzl7FV0Rf4DZSn5s+f3QUauBbHl4AHtjVZ38ndj+MEN+n91bZttSQzP2h2TlYozdHp8eV/L/QJQZTevRu43l8AKM2aVUhTeQPYwV6hpxl6iA82A/PDpvEfT0r/RudAS3wB9ERKr7vQ8wCMyGzFfsLnQK/jj40Y0eqSAA/YXYDVNL4H6D7TrmJXwEmTuuraa69x7xKw5ELnlJbnG/iRDIiR2sOpBT/2zZqgBeVbyFdnQpIKylNUfPuC96pf5zg9cN8TTsm9+mJ2tW828ZzXxXRfqtjSfbSibqskGY5aehTbfffd5UAPyi+IspAi/txzjzrUk0jI1q3RDiAhkvrtt9Odo7Fz52R3HEXoz/AYSNT/d+pUywk76CxIr7+xBDDC7hETJnRKGBe/E42hVh8jDCWHIUGEyGN+HB0i0tu2xejAgXjHCscHVBOF4kVtEDjmdvhwPKrN+AB1UNAoARRDjRpFnRImRf6uu/6tLFledAgm1+L4gTijrOKNt3g0k+v5P3PCSPvll8XOWOJ8Pv4pXSDE0Ib7LFgwSkOGtHBjYi4YhwA90BXHDAOPXTJQ9B5yykLDM0BVeSbz9OiAIeqNkXlyjv/v3nlJfRv4EVhOEe/76z49NLlCXYWNH5wI/MARqtW+rm657RaX+fHos4+passaGjpjlNgJZoBviBr0aKwxC3CEohNd658JMrVeE61u3loH18Qk8FBSvOF/DP4DyLzxxutdFgWgBr/Tb+Oppx5ynyVLxjq5ZkFjJxbKTwBOkVlAjoiIHgnOBMYEjhOGSnh4d9fM9IUXHlNQUAe3DS33ZhcX9MbNN9+oZ599RGxv68m0B34AXmI8ffjhG86AGjGitdMT4eE9EjLVyFgDRLn22qudk4UcER0ik+SFFx7XsGEtU0wHf5pkpL8N/AgsOfd4hx5cSyrWV0yL1oqgyekZQOXQGSNdn48rr7rSrfNZ87yvbhN7JZxH89PB00Zo0sqIpEvgZk9Q+BfNHdj5y56UgflEBzGYydpCH7HOIic33XS9AwRYv1lz+R1DGjuBNYjdk5DHZcvGucwMT1Y98INys1mzhrh1jbWNtRtwgfM4/vTTD6tHj/oJGaCsYUSZ7733TqcXcDS4P87Ivn2z3HWs+/T1odSOrFUCFtgOrLOk0nuOBWsx49u6Ncatt8yL9RudQmbK448/4HoYcQ3z4cN9uI51GSAWEJVeRNgX3rrM9y+/LHLP4nf0IhlnAELYTuit+vVLaubMwW4sBD9oskwWK+fyvWfP9AS9SFYo+opx8izKDRkjtEIHwzfQC/vFy2zzeCkzf1/u4MeXXXtqaqluim4965w2Pr7BxOFfqUGN/gngR/7clZMFPRJ8imY+za3QTt8EDT7nWoi9T+AAMBMZREZY319++Sm9+OITLnsDmQacfPvtF1zDcuQFOxq7FVnCRvX3EQAssP8JpGBjcw5rNPf2eLpevRIuu9Tf/ud3/BWyTgkUInM+X18nd9516AF0FVlsXvAlsY8Q/wx0QbyPEJ+dzr2x1xk3WQwAH8gxssgHucRmx9lnftwfmcUO9x8348DvIFON7HXGwnM4j55jZMSRVc84AUj58Dvn4legvzxbHv8CmnMuz+Qcsu7QBfzmzZnzoSNzgj7YOTSVRweRQYs+BWzid/Sn5zug16E790Gv8Wz0DuPgOegfxued7z9P6MSYADwI3hJE97JivHfP3NFpNK6nfxz088bM+uHR6Mx3D429ZzIOxuTpX+/61H4b+JFalCOZ61ILfuycOEyTP2qgmG5Lz6vgUgN++IZuUnTNYM3KUTGB6fyZBmZHIP/3vzsdwyNQ1aoV0f33/1cvvvi4+vePRzoBKRAgDAUMI0CJ1q0riyaICBv38e5LKiloY4MGpZxhA0KMICIknnGEs48C69GjnrsOoUIBILREixAaDJvhw1u61Dd+RwHEp7yXdg0Xqf1HSDjOeQAmCB2KgGgSUWmcJISGzBWixXPmDHcKjfEBgmDwrFs3yRl6+fJldUI2dWp/B/pwT5Qzgsu4mSPbaKJMatQooo4dazgDzBsX90NgoQMKA0NnwICmwkEka4YsGmjnIaVE22rX/tw5g0SdPvjgjYSsGhQDxiKLTvXqhV2aPwrAU4r8NmhQM+fEoXQYT0qzVgz8CDCn6NRqHVwdrVn5Kiq8Z1eFr/qr7wdp7WPmB+vhpx/V1ddcIyLBjzzzqApXLqrKzavp4yK5dP2NN6jHpN4K8bsuwaFaG63I5eGK/aCkto8aoGP75yXIqSevyX2fOrXaLbyUvRD58CKvOB0AEWwf678AYww0b17RGURsdQt4ShQI459nAIpg8LAIU4oCgFKx4mduAfVfVNmdBQeLa/0XPPQJ0WIWU+QcHYS+IEvk4YfvdZknGEQ8CznEoaP0BV2AMUI0lkaoZcrkcY5NcvPOLMcN/AgwOf+zASdO3ZR3iisseIjCz+jxg9z29w3Wmx++rf+7Mh78qNa6psYuTLohaoKc+wMoS8MVNryfol4soMPbpqdI3mle/PnnOVW6dG5n8BK5vfvu/ziDlabFK1cGu7WUtQjwEmeHa9idCTkG1GQ9xChHfjzwo0yZT1WkyEeuJO7ZZx916zYGN+dQ648uoEeQlwGKMY3jcffd/3aODeszWaI4IYyB9ZN1FCcLHUJDZNLx0QfR0b1cxgiAK3oDZ4AgDDIPoAJAS3ke2V+M4dFH73c6CacGHcWazfNwmBo0KOnGxlbf7DaFs+bpOhwCgBv0H3NHx5QokUudO9d2OuuGG65zu1jRA4nzcJxY6/k/DuSbbz7nym0AQHgeJcJkulStWlg5c77tnCP0JPrSKzvG9sAewW5hXv56MbPoqzPncbmDH0urNFF0qf6K6Z90yUsCiJFK8COm92rFFu6gjR3/CkCe+Q74P/YtO7ARnMPZh//JvKAf1yuvPKmhQ5s7uRw7tp1bizkHW5R1vGXLSq65eP/+jRP5CNgJ8DLbz5PlTVYFdj/rtmcLcBwfgWwLxoENDjhBYJaMUIAVgETsbsrouY7ryQbFVqApOwER1n58i+HDWykkpJvTTdjR2Ar4IQQmkaeffprn/BWAVmSPZ48Z0/Ys/Yku4V5ffFFWNWt+7v7GpvdoB8AAIEOPNAKszHHUqLaujBC99fDD/3N903g+cwDQZBw0YYcO2C2ABMwH3cTOegRr8NM4B1+Cz6pVE/6ky0pXOogewefApiKADBCLno6LG+SyXenbhp4ETELHMgd0Fu8GeqB7eYeMF3+CoDD0BbgloM24PB2ILiW4NXJkGwdMU2KDbwSozPzRxc2bV3DgMnQqViyns894D9CJd8L6gW/FswDVeXfoQ35Hb3JP5o1/yZrj+Y4enVP7beBHMiBGag+nFvzYPmqgorLUlm/I15cE/GDL3OgGkZr26ucJwunPNAgtgAKGDsYFjgWI5zvvvOQiQTAe0ROMHISCRRih4BwQTJga5wgm9ZDdsmXzOqCEtFKis9zrn/+8WZ061UxIGQO4QEBRUowHY4mUU5wZBJi6PoT9o4/edIYHwoIRg+FQpUpBJ0gYNihYnK5ixT52DhlIIlkQjA1DAwUaX3YyVv/9738cQomhwnymTImvg0PISO3HmQK5RGEBBj3yyH2u9AdFg6FG+Q2GTuHC8fNmfhhSlOdgnJFeDzjEfFBaKCpSwTB+iHChDEA4UTyk5DNXFhHuedVVV7oyIAAOrseAoxwH+rHDBmNHmWL48Dvv5YEH/usWIM7BuEKx8dv5PgZ+nJ9G56Nhmv9+apUWl62jyOoNFRY1MiHK6zk3FZpU1p333JkQ2TmzsVn3ib2SBD8il0coblAvTc9WQgeWpF3a+LnmD3CH8eMtlN65/D8+krDcyXtq00e9+/GN0bJ//0yXMcJC7//b5f63gR8BKOenV+vHJeGKpMHxjPE6c3cn5L13RH899fLTDugE7KTxKeVtni447/fKSIVFjFTYvR/p0KaU9cnACGe9AoBnvaJnDusZDgq7OxEQIOOLsrWwsG7OeGX9ArRnLSdKy7rIuoXceeDHzTffoNKl86pnzwYOIKAvEKC9J5ukvVNyimHNMQIRgJ7YFd56BvBKPywAEj5vvfWcK43F4QGAwGEglZx0b9Z9bAocB7LLsAHoKYRhzhzZVptyV35n+2vOZ2cq7kWmBwY4xjtOG+V18+YNd04Q48HZ4DoCM6y9gC/cDyOeTJT160Pc/HFuoAcGPGAQ6ftEyFnHsTHoV3T11Vc5mwnHEtvhH/+4yQWb2F4cZ4zMWGwGIrfoOOaN3QO9Pdpl9u/LHfxYWKyWokoPlm9k4t0f/UEP7+/UZH74hm9R9GcdtbZJ0lnhHn8hh9j3BBk8HwGbHvknW4zgG4FKbF1sXGx1sjfff/811xMMvQBg4ck490WesLGffvohZ+MCCtx++y3OXveABDJCASCQBa5BLlu3ruoAT5xyjuG4AxTitOObkO1JqSu+AqAl46O/H72KeCZBG5x8wF3sa2x4gqI47QRKb7vtFidrjBlAErAU+ePj0QP/gPJ/nHrA23fffdmV33i/A0LgOzBndGrHjrUcjdCN+FnoL+4BeIAuJejKONAT+Du33nqzBgxo7HwlgBzoznXMBxCA5+I/AIbyTAAFfJR77rnDgaVktTNP/ChAFACGhx76n8ugA+TgPXE/9B+6nbJGQCX0C0FvduzjnIceuse9P3QQ4+Wdo694JgFddDLBb0peXn31KXXsWNMFdgnY4hN+8snbTuejDymbBlDybD6ydXlvrC/od/Q0awSZv9wfwBtwjXHnzv2uC0L7vwOP1qn5NvAjtShHMtelFvzYOrivwl+prtixOy8N+DF+j6KbTNbkJ/MlCK8/w+CMYOiQkoQBAMBBE0IEAQEgbZVGaCzEgAooEbarRLmRcgaAQF1Zt251nGGAg4MzDjAB8oiiwTgAtKhbt7gzLng+iqZAgQ9UosQnzkn68stwJ3goUgwGkEWUCAJP47XFi8c4YeCepOGh9FB0ZKSQNooBhCBh4DAWoixEntu0qeKO0V8EhJGGjUSV+Q3DCRDHS1MF+cVxo46RiBLRHowhok0YhCiGwYOba/v2WKcEAHOIZjFmjBa2/cQIIoKEAoB+GF0gxaTxY2RhIHEcZcJYuDcGFunFADXMHYADRYhyIfKDogasadKkrCg1gjYsCNQrg4BDYxYoD3zyf79J/W3gR2A6RftmT9Dc4jUU3qyVwpdHJHJ2gpZMUr0uDfXc688nNEEEALnqqqt05z13qW/UQIWesU1uxJpoxUwbK9/LBbV1SB/9ti91tapJ8dC5jrFI4SScuVjxf/8P55zrPin9jWhBSnk/pffMDOcZ+BGYcv7DwlCF3P9xfKPTJECNHiF9dO8j9znw47rrr1froe0S6YLzgh/s+jI9SJNuzSp0fUp4GaOYoAZbQgNOkKmJA8E3pWyscaz5GNbYAWRR0XCYyCF2A2suGR6siTzPAz9Yl1kTcYiIdLK2VqqUP2FMGOis8QACrHuALGRbsK57GWMe+EEEk+Oss+zqxJbVAAesp9gwBGlYNwlIECUEBOHejz12n2t8TPkM/cTI3PTAD+we1n8yV3AYMOT5jfUU24h58AycIQItOGA8+5prrnbBCIAQ1mPWfGgICPPMM4+4jFbS1QkmYZd44An3JMUfZ4cyQHqAeYETIug8DxsKmwGngcxYMmaxRXAER49ul0C7lLzXjHzO5Q5+zM9XRZFlhia5y4sHenjfqQE/YsftUkSeDlpVp+k5eQpgACAC+xdHuGHD+KwK+nEUKvSB69sBsAHAB29jswIwwrvY48g92V306IAfKRkDWP3ss/edTGG/zpgx0GVzcW9kjPMADwmQYrtzDeAj8orTjxOO3OGfAEAgt/gUd955uwMYkRlK9PFjABiQUzLQkSHKKPAtcNAp7UOvMe54H6Go023oPMp977zzNpfFhR6habqXGQbQwji5D3MBYEHnUC4CHcg6ITsbZx8wB/0HLW6//VYHRkAjMioAWQE8ADc5F1qgP6AtpYT4BGTccF68nT/PAaz4N/gY6JOZM4c4ABldTPAXgBnAF+CHsaHbAJmhF/4NO/hBMzJAoCM+zvTpg5w+5xgBWo7VqlXMAR7xur+maw0A7bgPuhWQGv+PhtToZL6ZF6AY6wZ+C/cnI/+ee/7jADT0G/4aPiMAMfQCSCla9GOnl6EBc+LezBFQh7FAv7TSZQZ+JANipPZwasGP7SMGKPKtWvIN23xpwI8x3yi6UZSmvlg4SeYhWgoCiSEDyojggqJS7gHyiWEBeokRQxMihP2BB+52CzNNUjFUEFZKXTAaMEBAXslE8FJgyYIATACsQIBhYgQDoyZ37necEdOsWXmnMLmemlsEhJQygAqEg5TQ66671oEWoMQghSik0aPjd1Bp2rScE3SEmMwOxo3BwbhJe8fAwTABRKG3B+grAAJKG6UJqMD4Se3HeEIwUSSMFUUKcAOSS3QImuHEgc5yX4AYnotig5ZEjMh+AQVH4aFQGDvKjIwN5kT2BwYTgj5r1lBdd901biGgPIeFBrAIRc43z+VvFDmZIYBOZIyAXFMDeKFKwcCPwHSK2PlpU58emlGyliK6dlb4GY7RmAXB6h3eX62GtlPdLg1FOnzDnk3UJbiHgpeFnhUdjp46TjMq1NOSkjVFn4FTlhlxwbJyobIVSOcb+BGYcv7j4nBFPJFXYfTmSKJPT6+wfqK3D1kfV159lVoMbnOWbJ8TAFkVpbDoUQq9+0Md+jplmR/wLUGOjz9+24EAGM5kRBJsIMoIMMD6Q1QQY5Q1iqwO1ifWM6KfGNVE7LiXB35gB7BecQxngOsJOHhyglGLoct6PWpUa2fsv/zyky6ayXrMeR74QeZJy5aVddNNNziHgYggz8ceIHuVbDOAGzIyNm2Kcusmjg12AsY6AYpcubK4YAr3JvIJAIFxztpM1iZODQ4CtMAGYN4ESnLmzOJogU2DbcS7wfD3aty9+RCRJiDSu3cj5xzhlPF8sj6gCefxDOj74Yevu7RywA8cQYI8/I5tAQBCkAk7gvFR7gdwhF3kPSuzf1/u4MfCIjVc5kfsqO3n9Q1SA36QURKVr6PWNDp3/yvsXS9rgVIJbF5KzXDMCcqRPUUwj8g+9iwyT1YHcoiPgPzgJ5AZAG9T5uGBDugS+Bi5IbMAgIKeFBwDYEX+4HtKbQnM4lgDvjImbGtAArLRyJbCvyCjinvjb/B8mrCPH9/ByQ0ZE+gKgrGMmawHAFuCvcwPvQPAAhCB4015LLJHttbcucOcPwMgi40PsEPWA8ACQMnatROdfONT8Hz0JrTwZJTMcfwYgqBkpMWDwT3dOABKvHPRS4Ay6EnugW5Af9AX0LsXAVSO1a9fyukMnokuRDfg35BJjm4BgEAvAvp6PTXwxQhkA5R4/hmABX4SuhRAhjHwnvDJoCMZ+Oje66+/zgWBoQlgMGAWoBLgCD4hGfj4h+h36AkYjM5Dl8IP+F8AJ+hhfEbaKPBMeseQ3YKORDfyfr2MEN6xN++0+jbwI7UoRzLXpRb82Dl+qGI/qK+YXivPq+BS1fNj+GZF156ouGzxRsmZDASTg7BS9oEAkaqGkQIAQloSCoT0JQACzkVhYAyRfsU5fHDuEX5+p8YOhqYODwWF0JM6Rk0+4IqX0kZkBUMJQUfI+EZQvd8RYhQfhhEC+957L7nn0sfDey6gBvWFACqknyJQGGgoYRQzCtkzPDCgeCZRG8aHIsXYQfkyTo8uABdcQw2edxwBB0EtWDC7E3bOpWYYpcO5KG4EHwAJYwuDCiVO7SBKp0uXOi4lDcVC9gkLBg2PuA/I6NChLZ1SRMHxTGofeR4AhzdXau4or0GZ0IQSpJR7oWC8saf028CPwHSKeH9Hts3Qho6dNLVodUUCgKxInAGC0xOyOlJkgtALBNDjTEcocnW0fOEjNL3mF1pYtLpwtk78tuyC+SSl/GTnBSY/GfgRmO/lpxVRmvxGUYWFDlf4yr/6+3hy3Dd6kNjS9v+u/D/X5Lhu5wYKXnq2nHvnn/W9LFxhYwYq8pl8Orw1ZT0/kGGcAtYuMiUwoHECAC5wwlm/iRYSbWQdZa0G/ABUwDDGUCczgvR3p8eS2O2F9ZA1nWxPf53BWkuvCy/KW778Z84A987xwA8AFyK9d9xxmwsiENHludgBrL+shURgH3/8fheMYQ6ADxj2rLnUvAPU7N8f3yAV8INMEYx/71msr2SY4AhhyFPSw3U4YDyL9RqABfADo96LUnvXe+AHUWd+w27CpiKLhms5D5CG7FjmTDAFBwfwB/p79+Gb5+PsFS8e34sFmys1673/PTPS35c7+LGkQiNFlxog36CN5/UNUgN+xPRbJ1/BDvqybYdEfHcmj2DXI2O33voP5cqFj/Cqy2giG4lMMHwEZBe7FP4EyMNHIFvBs19x+HHacazZ+eOVV552eiPeR1ji7GHkMSioowMfGQPyg3wS/PviizLum34/gJP8TtYYAU5sfsBLbGYCmwQjvecCXBAwJFsc8IWMK/QBWQ00WgY8AbwAgEBGAR3RZ8g/9+FZXlYXgAX6j5IXfkPGkWPmy1jJHCeLA/8CwMGfjmQ04P/8+9+3On+BeQMeQL/u3eu6c8kcIVMMcAl/JjKyl3sWc2QM3v3Qv9Ab0Ie5AxQwX84hmEsfIsAZ9BqZ5dyXa3kmoBUBbgAM7zigBKWH6BlPn0Ez9C56E0CI+VxzzTXOV+HZ9ESiBAqQuWnTCs5/g3boSoCR+NYF+ElTHdDCmgINeP8E0wG68NO890RGH7oTcAQdjm6kD8il0HcGfiQDYqT2cGrBj++mBmlOsaaKaRx9XgWXGvAjpvcq+coP0uIKjROExxMi7xujhJostq+kaRnppyz6OPbUkSEEXtQCw4XjLPwcA9xAYLy0c5x/FBtNigAWUHikmRIVAsVDAHku6WMIKIghyo10NOrOvIY3pLHi4LPgI8QguBgCpNAiIDybD4oZtBB0khQ1FAfoNKm4gAPUtgHigBzzbAwK7oUh5c3f/5uoDtkozM87DvgBYsx9AGIwXlCQ1N+SrouCpFYNYwvlyzhpUsQx0GuULcdQRIyJ+yP0ILUYVHnzxtf8ec2AeAekDZJNg8JASWE4ebRjbGTlMBdvjBfybeBHYDpF7h3S/HStT1927qSZpWsrsmlLRUePUviqqLNAjrOcnnUx8s2doMkDemp69UZaUfML7YkcpVMn/qpXvRA+sXMDmE9S0NvHwI/AfH+HNk7R/M9rKKpLZ4UvCTtLrgdNHa6PCufUlX82PP2sXAG3q5Mn76GrIzVu0cTkt7eeN1HhbdtpRr5KOrorPrKaElkm4sZ6Rro3YAcpzhjUBCBwfHASADhY83E2sA1wTgA8jh5d7AIXXtSWtZnsTBwFfmcdI7MDQ53AhP94CLZgMANq4EycuTZ74AcOGA4XUUJsBwIQjIX1n+dxT55F5JHoZo4cb7gAB7YIxj1GP4Y3NgNGeFLgB4EUHJurr77aRXwpTaVMB/sEhwEDn0xNepgB0gAQsa5j6zBHnBfsGejCMWwHoss4DAAx2ErYIpQQ0DwWmicHfkAX7AmipkSqCcz40y2z/325gx9rW3fW5FI9FN1xwXl9g9SAH742cZpZpr22Det3Xr4iKwkfgQAfJW7ICTYwIAcRfOxaZBBnFdsUHwFwEtuYbAkcdnwE7HtKMF566QlnsyMjlJQTCMVGjm8C7PkIKxxggbwjUzj7yDqyC+8DhKA36IWHXe75COvWTXJ6i/HwfOSd55BxgI9DJgol6Mgx2SLoMeQTB58xUirPWJB3T8YYN0Aw4AmBTehB+Q1gKvqJMSHb+AgEYRkbY+UY+oEsC8AXdtUku50x4WsAJJEpQ9AX/wj9yz3pX0RQGeCDrC9vHHwzRp6Jr0OWPePBd0AXci7vBADX/xr+5t20alXF6VjKl7zfCTRzDZnk6FRoRWY6gW4Ct+g82h3w7hkvwAX+IVlvZLMQpKX8CRpxDbqSdQJ64ecAZMAPzJlnkuHB/9HL8MUffyxL9F7xnXgf+HTeGNPy28CP1KIcyVyXWvDj53U+rW7WUTGFuySr4CLHfqPRA1ZqUPe5alZ/hO7570Ou8eEzT76hOlV6akjP+RrVb3mS10e3itO0Qi21ZVh8SmVSTITQowBoqumlJoHUogBef/1Zl6blXUcqLAgrpSUgnzAoSsJzzEnTBDVFaGm0A2KLgkLQPWDDuxdIKFEaFArC5P873aWJhiCEGGGkcAEugNCSZoWA0CuDa1AcjOGGG653ChCjgUgQZTOUiwA+eMhpuXKfOjSTbBRvHP7fnAvAg6HiHUexoJRIZyPbA9CBCBaGFMAR55G2RoSMpk0YNShgjoNm5s79rhsDYAhGG6lkGDPQB+WLoekpdq7ByAFxBRWmpwfNgVAUBw/OdwoEVJjroZ83xgv5NvAjMJ2ihHd4arWObJ2hLf17akHp2ppSo5GiundRTPBgRc8IUtTiUEWsjFTE2mhFLYtQ7IIQxUaPUsyQPpresrXmV2mgtY1b6vu4YJ06acBHAl1TABhkpnMN/AhMOf9172xt7NpZvsJVFTF34lngx5j541W9TS1dc921LvPj4aceUaVmVV1fn4GTh6ndqE6q3KKay/5KqhFq2OQxiihcVWu7dtGxH1NeK40hSk8rnBxACBwH5IG1lyAF+f4hWwAAIABJREFUazqZlhixGPXsAoPDQQSPck6cC3Y54BoP/AB0IAJMxJSsEtb0M6OiPJeUdJoNkl1CTy1/OfTAD0ADwA2ii5TZMC6Aiv79m7geGVxDxBLjmgbiXoNx1noisoAf3pqJs4LdAfDgn/nBvLBFCKQwJnalwJgn+ME8sEX4EPigtp7IMfYAdgq2U3zvgM+cMwFNADewk7ABSGWHDszn+ecfdc4hgEly4Af0h2b//ve/nINDFqk/XTL735c7+LEzbIxmlWmrqNohSdr29PsIGbFJI/ouVc/2k1WueIuEhugfZi2idk2DNbTXQgUP3ZD09ZWHaWmddto/Z+J5+YrscHwE9AAAH/Y0coJcANBFR8fvskagrl+/xq53EDYyMkAvG/wJfsNPQI8gO8gQNjDZYzjNZICdydP4F2SWAFhwD//fyZjAtwAQpbEnssq5lIOQnYWPgK7BR0CuySpBL6Bj0CPIauXKBZzfQ+nL77/HZ1Fj/2OPM2fveYwd3UdvC2SSwCSgA/4R8yHDAZAAYPeppx5286H/EXqBnhwEL/FpAD0BQSj7Zz6Mn1I85kKQmLHR5wJZZw6ACpTXe+PwvgFo6AkE0Dt5crzO5fn0WoSWy5ePO+sagsYAsbwXegp592IslPBAY3QZ74TAM9nx3nkEainxoUIAHwhacD0lQAAVZO+jU5mDV7bDfaAVIDN+jvc8QDMAEUr/oBcgEu8Q3mCHQXwtaOrxlHddWn0b+JEMiJHaw6kFP37/cYG2jx6kmLeryjf0K8UG7z1LUY0ZuEo1KnZVvk8qKmuW/PrnP25zSu7OO+7VW699ogJ5qqpymXZnXecbtV3R1cdpzmc1dfgcjc8ot2BhJlrhRW5QGiglUEkyHTzGIzuDdCTQSSJBpHxRpuEBFyzkgAIIWfzv2RKacnrIn3cvUqMAM3iOZ2h5v4EYIuCk0qFoEVAvRQ0FAbqMECFwIMvLlgW5MXEdjcZAW1E8CB17UHv3BWEGufa27fSOe99s34uxQsaGdwylQZ0iSgNlg8EHSELNL79xHuhl164YeDkdauuBLVxH+Y3XwA2UlWvJ7EDBsIMMKXgoao8GvAOMNAAQzkOhEX1DgUJDFgQUC8aWN8YL+TbwIzCdojPfIT1AMEyWV66v+YWraW6NRopr206xvbopcmBPRQzprcn9empWz25a0KSlFpaqpaVl6mjbkD46uiN+S7Ez72n/zxjvPi3ek4Efgfmujx9dIpobxz6fXxGhw84qfaFx8YDYoXrg8Yd09TVXuxKLR595VLmK51XBikX0+vtv6I6779TwmaPPzv5YEaGwUf0V/XoR/bgs4oLK3VhbWPcBFwhW0OMLPqSRHU4CALy3rrHek/LM+kWfECKCGPKsuVxDMIAAib8tAPCBI+TVt/vzOIYuoABg/5l2AmMBNKBMlTWS+n6agbM2YmOwLnv9MnByuBc2AtFNQBgikGRTMlairjyXZ5CVQjCHclRvLNgTe/ZMdXYD5Sqs0YAoZH/Q94tMECKo3AfnB3uAueM84CwB5EAvHAKCF5Sq0tSPHSUAQAgoAabg6AF88FzGQDSc0mFvHN439grBJkAedsDzjl8O35c7+HF0e5yW1mihqKK95Bux9Sz7HvAD0KN8iZbK9WFpvfx8tgTw45EHnxUASKFPa6pN46Czrx2+Wb68LfVlh876dc9f9n1yfEVmBYFDgpn0peM8An/IBM489jbHkCsvWEkWBPJByRhyjc4AREAnAJiiL7ClcYJx/sk4OPP5lIJxfpMm5RPsY+8cMrzxPZAx7HD0A01LkVsCkdyfDQfIlAAYWLRotNMLZE7j02BPA9Rgj3tBTO6NP4KP4A+KcpwgK/4NwDC2OSAAADB+CZlwzA8QBD8K/cM40DFkwNA0FnsdHQhdaOyMXsLpJxuOTAgAAex6gBzoFBzc0QG8lM55c+ab5wCscA3z9/wG/CDKYNAtSfXKQHdDd4LH/r2D4nXqSDc2dBnvjPcKTTx9z/sF/MXvolTPK0dhbNAEncu75315upkmtwBR/I5f5s2B98wYyTSBRuhKAGsvgI6uBxSB57xr0vLbwI/UohzJXJda8IOX+uPScM38pJqiq45R7Oizmxv17TRDLz3/XoJiO3Oby2uuvlZPPvZKYgUXvFfR7ecqtnBHrazbQqf9tmpKC0ZCAbLQe8Lh3RNB4hgfzjmzIZh3Xmq/MRi4rycoqb1Paq5DuEllY44YSam5B9egqDHKUFbnuge/A4Sc77xz3SOp3wz8CEynKKl35Y4RaV0To62Demt5pfqa+1FZzXilkKY+nU+z3yuhhfkra0OrtvpuWpCO7adT+uVlJCdLt8ss0+NMOhj4EbhyfmzfPM35qIyiG7dQ+Iwgha+NSZQBMn5piKq0qKZ7H75X1153rQNAvHWffhO33/lvjZg1JjH4sTZaYbGjFVG3iWZ/VvmCgI8zeedC/o9TQFajvy3AWskah5FMRJU1mx0bLuS+5zrXW4t5xqWyBbA1PCMf54maf57rPy7AFuwBHBLvOOdAC37zrue3+PV8TqJj3jVJfZPGDiDEx985S+rczHjscgc/sNm/7t1Lk/M1dzs2JhUYJfP7wfufStY3uPGGm1X0szpn+Qa+BmGa8WkD7QoZnua+gceLyEtSPgI+AToh3kdYkOC8e9dd7Dc286XWC56uQy+g/5LSC4whsV7A9l/2Z6nHX736kHPABX9dcS4a0L8EgAHghaDvuc69kN8AiQCEAKcvxr9BzzF3LzCc3BigHTryfOcld31qjxv4kQyIkdrDFwN+HPtxvnaMGaTIhwvI13vlWVtb9escp1dfyq6rr7o6yc/119+oZ554PZGCI+sj8vO+WlCsrlhEUssodl3gGtCpfTcGfmS+d5paXrDrMi8vGPgRuO+WBsT7ZgZr6htFFDG4t8JXnN34lB4fjfs017OvPacbb77RbWvN1tY33HiDnnr5GdfwOMx/t5jlEQrr1kVTs5XU93Mn6pSfQ25yHri8kNy7oWSWsgIi6zgJyZ2XWY9f9uAH2QZfT9XK+q0U8UHzJLM/6lbtrUceei5JvwB/4R83/0vFCtT7yzcI3ivf8C2KeqOqNnbpol92xu++mFl5KDPOi7J3MlvYBAHAIjPO8VLOycCP1KIcyVx3MeAHdflHv5mpZRUayPdBffl6rUhU/hIdtEsThn2psQNXJ/tJVNcXvFdR5YY7ZHfr8IE6+cdfu5lcSqaye2cMA8vAj4zxnkye7D1dDA8Y+BHA/EPTzWPLtb5ZK00rWFURI/qdtbU14MeE5WEaPS9I/X2D1WF0F7Ua0k49Qvpo1NwgJQI+yPro012+/JW1pl17nfyzfv1i+MeuTV/+oVyGJq+U/F6OTo6BH6t16vhK7fGN06yCDRSZr4tix+/5C8iY8K3CR2/T+CHrk/ULxg1ao9CRm/+6ZvR2xeRspkWl6+vHpREGkGbA7NAZMwa7XaS8rWpNT1+YnjbwIxkQI7WHLwb8gHlP/r5Ch76aqnkFasiXp4Vi2s9RbNCuv5TWhG9T9LdvzA5FlRmiyR/W0Ve9++i3ffMNGcyACu5SKjQDPy5MWV7Kd2H3tndxqXjAwI/A561fds7SitpNNLlINUX065Hk1taAIPQBAQhhy9tJK8/Y/po+H106Kzp/Za1o3FJHd5+/hv9S8ZzdN+14jnR4Uuq9FPvLjbYGfsTz0u8HF+mbiaM0NXsNRebvKt+wTYmCo/T+OO9n/B75+qxSzKdtNCtHZe2bNUn0HrrceCozzBedEF9qZ0Ht1LxPAz9Si3Ikc93Fgh+8RNJUf1gQphV1WmpKvqauB4iv75rzKzaU39idim47R5F5O2pmgUbaPHiAju6YqdOn0m4xTg2j2TWBR/+MAn7Q12J3yHAd+nKyfYwGxgMXyAP0idkxepCi7vpQk0o0UFC/wRo9erSCgoIUERGhOXPmaPPmzfrjjz+SWdUu7eHTJ07qhwVrNfnRAvqybTv9uvvshneZfv1ga+s1MVrXvoOml6yp8IbNFB45MlH/D2+L26S+w8KGK7TWF5pSrLrWdu6sgxtibc23YEemcGoN/PjLdiSI+c3EkZpdqIEic7ZUdJNYV75yXtBjwrfyDd6o6Pph8uVprkVlGurbKUH649DiTMEjmX59MF2W5nxq4Eca23VpAX44QT61WgeWRmhjl66aU6qFfIW7KLraWMW0jpNvwHr5RmxxqW++Md/IN+QrxXRbouiGkYouNVC+PC21tHpzfTNhuH7dO8eMIFMcSSqOjAJ+RN6RXXM/LqvFxWrYx2hgPHCBPLCoSHXN+aC0Qm/MYuBHIK8Fp1Y7YG/LoN5aUK2hosvXVUSL1gof1ldsWxs2f1L8jjBkeMybqDDfaIUO7q2wJi0VWaa25ldvqM3D+urQpqm25gfye7axJWmPJOfAGvjxF/gBjf74ebH2xIzTynotNTV/S0UX76PoOqGK6bRAvkFfij5/NEX1jdwm38ANLns8plawfMV6KK5oC61r0c7tMmUlcYnpmhz/2fHMSScDPwIV/PhzgWT7qV2Thmt1o9ZaUL65ZpTtothyAxRdbogiy49QVLlhiik3WFPK9NasMu20pHJTbWjbyTU3PfFL/ParJryZU3gv9r1mFPAj4vZsmvVucc3PW8E+RgPjgQvlgdzlNfPtzxV6w9sGfmQAx/PYD/Pdjk3rWrTRoioNFFersWIaNlNE4xYKa9bKffg7ukEzTa/RSAsrN9Calm2cQ/P7T/HbT17s2mDXm80QKDxg4MfZvEh2+OFNU/V1755aVqO55pRtralleiim3CDnE0SWH6nockPlKzdQ08t10/zyLd1uj9uH99fR7TMuCHwKFD6wcZzNB0aT1NPEwI8ABz885v79xwXaPy9Em/v01PKqjbW4WC3Ny1VeCwpU1ZKy9bW2WTvtnDDMKcS03s7WG4N9p17QApF2GQX8mP5yQe2aMEQ/r/PZx2hgPHCBPPDTikjtGNlfUXd9YOBHBgA/vLXixNEl+mlFlLYN7atV9Ztqcelamv9pRc3PV0mLy9TWyobNtXVEfx1cG6OTvy0zhyYDvVvvHdv3+W0qAz/OQaNTq/TLN3HaEzVG69t20tIKDbWwUHWXKbuoaA0tq9xIX3Xt6sDU+Cxw2xXEZO4c/HQZ6VADPzII+GECawKb1jyQUcAPsj5wAtJ6/nY/k6nLgQes4anx+eXA5zbHzMnnBn5kzvdq8mrvNT15wMAPAz/MqbyM0E5/ZWPghy0+/vxgf2dOfjDwI3O+V5NXe6+XAw8Y+GF8fjnwuc3x7+VzAz8M/DDww8APTejUx+0AMWbMGE2aNEnTpk3TmjVrdODAgTSWkJTf7siW3VpZtYvr92GZH3/vwmALceaht4Efmeddmlzau7zceMDAD+P5y43nbb6XnucN/Ei5L5aiM/13e1nfrLW+jwt2Kfs4b/YxGgQSD+wOG6H5eSpo4vOFDfy4TAEwW2Qv/SKb3jTOSODHyioN9O3ksbZWmr1gPGA84Hjgm6AhmvFaEU18v7zGd+/vgjRjx45VSEiI4uLitGHDBh05ciRF9vmlOunIpl1aXqGDZrxaWDuDhhjvGu8aDwQ4D+wMHuoCqxOzlFJw136J9MqMGTO0fv16HTp06FKpjEt23ysu2Z3Pc2N/8GPyY3k0863PNeu9EvYxGgQcD7BQ0wTRwI+Ld4APHZqv8eM76vvv43T8+ArLpvoTTPrtt6XasiVaUVG9Lnu67N8/S9OmDdA338T+rfyRkcAP3wM5FfdG0YDTlbaGmw1jPJA+PDD95UKK+FfWDAF+RNyaVYzXeCV9eMXobnRPKQ9Mf6WQIm5/XwZ+nAfUSOnP/uDHrPeKa1mZ2lpRpYF9jAYBxwOLi1bT5MfzXLbgx6lTq7R48WgNHNhU27b5nEN68uQqDRjQxAEZ33wz2R3buXOKxoxpq7VrJ+n48eVJOq47dsTqrbee1/LlQfrttyWJztmzZ5pGjGilqKieiX47dmyp5s4drsGDm2nXrqlq0KCUNm2K0u+/X9zODYAvwcGd3P0aNiytZs0quDkxxz/+SHr8F5OdAH1atKjo5nAm8PPTT3MVEdFT+fNn16+/JqbLxTwzJdeePLlS69aFqH79UmrYsJQaNSqtTp1qav78Efr55/mJ3lFK7nf+c1apX7/GmjlziI4cOXvLUfinQoXPNH36wEvw7OQBvIwEfsx4rbCWlqwZcLrS1nCzYYwH0ocHFhWsouj/5cgQ4Ef0PTnEeI1X0odXjO5G95TywKLCVUWwxcCPlKIb5znPH/zY2K69DiwN15Et0+xjNAg4HvhuWpAW5q+c4cGPY7um6/ugbsl+Ds4dnaSzCfgxblx75cqVRSEhXcT/9+2bpddee0Y5c76tGTMGCQd69uyh+uCD17Vo0ehkwYONG8N17bXXaObMwfrll8WJnvf11xGqWrWQPvnkbe3bN9M9B0d6+3af2rSpqmLFPnF/Fy36sXPWAUXO72gn7+weO7ZMpUrl1tNPP6RixXKqcOEcypr1ZfXoUV8HD867qHsnNS4yO8qXz6etW2POog/zHTKkuR555D4dPboozZ+d1Hi8YwAxYWHddcstN6tIkRwqXTqP3nvvJdWtW1wrVgSl+Vjgn5YtKykysqfIBPLGwfepU6u1YMFIvf32Cw6Y8v/tUv+dkcCP1bUb64d5kwJOV9oabjaM8UD68MCeyFEugzojlL3EvVlUe6NGmf4ye994IMB5YG/MaM1+v6SBH+fBNFL8sz/4sW1IHx3bn9gIvtSGrt0/eafQaJOYNpllt5ef4oZrxatvalPVMmd91uXJpc3VyyZyRP35IC5usMqUyaMmTcrpxIkVmjVrqJ577lE98cQDDhg5fHiBywIhq+PQoQXau3e6c2IBOdasmagDB+a4e3vgR3BwR8XFDXKAyfr1oQ5sOHBgroKCOuqOO27TsmXj5IEbPl8fVatWWL16NXD3Hjaspfbsme7KQ8iYWL16ghgfoAvZI4yb68m04B5kL2zYEKZVq4JFxgq/Mw7AiEKFPnSAxJdfhrnx5suXVW+//bx2757qzucaslS43w8/zNaJEyv13Xdx7typU/tr1qwhLguFbI3Dhxe68xiDl9nBuV9/Halvv50hyjnGjGmn/fvj7/Pjj7O1YsV4lwExeXI/tW9fIxH48eOPc7Ry5Xg3t6VLx7p7eO+E/0PXJUvGauXK4AT6er/zTQYFtOE83gOZHIyHLA/oxf8ZF1kugB8PPXSPmyvvrl69Enr//Vfdu929e5oWLhzlaMh10JWsGwAingH4RZYGdIIPADc2bAh19PUyOwB0ALc2b45yWUHR0b3duMj+4bdNmyIT+IGyqFdffToB/AAk4zr4BXoDHlEmxBwBxhYvHuPmNGfOsAS+8KdDSv/OSODHl23b6dfdsxwNUjo/Oy+xXjd6GD0yEw9Yw1Pj58zEzzaXwOBna3iaYlgjZSca+BEYjG0K5vzvITOBH+vz503SYfpubJdzgh+AA40bl1WuXO+4sozu3espR443dffd/1HXrnWcs9u5c22VLfupc4wpicmd+x1ly/aqK2GIientskMAHa6++ioHZuTO/a7effdlVapUQNOmDXTAAkDBww/fq65d6zpHHSeb+5cqlccBC5TN3HvvXZo3b7hzmmNj+6pcuU/13nsvq2DBDxxAAvDA3/36faFdu6Y4UKRChfwqUCC7A0LIUqlSpaCGDm2hDz98w42Z+QEUlCmTV88//5h27pysIkU+0mefva/PP8+pypULuvsAcFCy8dFHb+mVV55SliwvqGnT8s75xrkHTBkwoLEDBgABgoI6qEmT8mKcAClPP/2wew7Oe2hoN/cMxs51hQt/mAB+cG14eHeVLJnLza1o0Y9c2Q/gC78x7s8//9hdV7duCQeS+Msy55BlQhkN9M2S5UWXTdG37xeqWfNzvfvuS+7/o0e3daUngB8PPniPA1MAedq1q6Zs2V7RiBGtNWpUGwdGVK9exL3PSZO6CtBpypT+7hmvv/6sXn/9GUdzwBEAp0aNyqhFi0oOmGEs0LdmzaLq3buhA0jy5cvm3s8PP8xyAEr9+iXFfeCJChXy6fHH73fgB9cC1nA/aM284cNt22IcP/XoUc/NjfcDb0LnMzOK/Olyrr8N/Di/LjwX/ew3o5/xQPrxgIEf6Ud743ujfWblAQM/UoZppPgsAz9MWWQUZWHgx2qXWdC/fxM9+eRDoscHjjcACKUvON9jx7ZTrVqfu54ZOM9kEVDGAaAA0IBD+/PP81zGxZVXXqmPP37LZQyEhHR1pTMVK+Z3oArZEbVqFXO/r18f4rIHyPqoUaOoA1XI1uB6wBIyJwA+uD+ZEGRVPProfS7DgpKNqlULasmSMc55B3R46aUnRHbATz/N0bPPPqKIiO4CVAAUAaRo1aqKAyd69qTsZa6yZ3/NZbZ06VJbZD+Q3YHTTWYKgAzZCMy7ePGc6tChhssWoZwD0IBmnTjhAA2MH5oxxttuu8V9QwuAFYAJsioYFzT1yl5+/XWxGxf9Tcg66d+/sQNbmDPgzXPPPebmQB+WvXtnnNX/BNAAgOGhh/7nSoZoIFqo0Ae6+eYb1a5ddZd1kT//+46uZMUAfvzvf3dqwoTOjl5vvvmcGzdlLzz79ttvceOj1wqZGsyN8hjAGcbOeQAQn3ySxWXIAJhQQjNmTFs3NkCJZ5991AEdAFqUtUAzsmTI5Hn11WdcGQyNcAGTyCiiHwvnDh/e0vWJmT9/pOMfeIvGsGSNtGpVWXfd9W/BP2SE8I6Ye2p0i4Eftialhm/sGuObQOABAz+MDwOBD20MmYsPDfxIMayRshMN/MhcApKZFZ6BH6udwz1lSj+XFUFZwiOP3Ot25MDpxIGvWrWwyzLAEQ4P76E777zdOe9VqhRyEf1PP83qMie8shdKWShHwcn/4osyypv3PVcCgvNKc9N77rlD0dG9XANU+oAMH97KObX+4AdZBmRgvPHGcw4AAUzA2ccxHju2vXLmzOIc6Pbtq+uFFx5XuXL5XEbDpEldHDBAuUTJkrkdIPHmm887IAAQhHFR2gP4QcbB9u2xbv5kO4wf30n//vetLtOFc8hEAfQBRKFvB0DGP/95kyvnITOCTBjKdcjY8Ac/5s0b4e4PeEHZCeUngAwe+MHvAARkxgDukNXwzDOPiPIYAAHAj44dazpQBjDkTPnzwA9AI0AB6NayZWVlzfqKvv9+ppsfmRyAM8uWBTnwg14sjz/+gAM56HtC6QpZHIyLrAxKdLzME2gHfQGBGA8lMGSy0DeEdwxIBPhClgbgDWOFB6AZY/PAD8ApGs2S8cGzmAslVbwPwA8AJrJC7r//bgeuwAuAHdyP7BzAD4A0ym+8sZ1Ji5T+38APW5NSyit2nvFKoPGAgR/Gk4HGkzaejM+TBn6kDNNI8VkGfmR8obhcFJuBH/G8umzZWFfKAlCBk0wZB449Tu2LLz7hSjDoFzFoUDMHfrRtW81lVABc0NySnVo88MNreEqJCpF+shDI9MAxpmcIfTfoL5Inz7uuXIIMEvjNH/wAxMCZB3gAtCDLgDKNr76KcKAE5SQAHmSmkH2Bw0xDVkpbyDrgXjQ8JfOD8dDng4wMxsAH8APA4LvvZrhnk3UxdGhL53wDKDAeQAvuz/jJeOFcyjMoG+E5tWsXc0AI5/qDHxMndnYlJCNHtnb3ObPhKQASWTVktjA3ylPIbAEMAEAA/ID2PDMpOWT8gA/s4EJ/FHpj8D4oG/GajFKGAvixdOm4hMyP0NCuji7cl4aw3AfwA7CCsh7vWezU8vHHb7syFo6RDQIwc8MN17msEjJDeK+AYwBIJUrkcmU7nMs9PfBj6tQBDnSi7Cf+t8QNT+Ex7gF4RdNdgDf4i/4uAC6AH/DI1q3RCWPzxnih3wZ+2Jp0oTxj5xvPBAoPGPhhvBgovGjjyDy8aOBHimGNlJ3oD35saNVW++eF6Of1sfYxGgQcD+yNHqMFn1bK8Lu90PA0tT0/WMwACygnoeyDSD3/J4ODDADKTYjy4/QSub/rrttduQXNNgEIcO7plwH4cc01VzuHmmM41JUq5VflygUSnHIi+IAOOMhkcrDtqtc40x/8oNkn42CXFpxxgAeeRYYGWQSlSuVy2RL0CyErAbDkP//5l+6//7+u5IYGq4Af5ct/5sAB/wXbAz9wrmkSym/06SDj4fbbb3XzBqSh9wjOeb16JV0GxJEji9x4AV4ozyAzglIervcHP8iioB8KW9/SQJTsCMpIvMyP1asnOmAHAIVnMC/GgcPvlb3QPyMl4AeAlAd+5MiRPPgBrWme6r9NcWLwIzIBYABQAbBgi2BAI3qrdO5cy4FggFyMMSKih8siefLJB11mj7dNsj/4AbgBjd955yXHG7xndvahvIrMD+4FjWiuyzuEBswHIIp3HA9+vOeyW/zfX2r+zkjgx6oajfR9XHDA6Upbw82GMR5IHx7YNWm44t4omiG2uo17vYh2hww3/WX2vvFAgPPA7rCRmp3VdntJGbKRgrP8wY/pLxXU/NwVtLBAFfsYDQKOB+bmKCPf/TkzBfix8u13tLNjw7M+G0sVOWfDU5xJdh8hs4LyCBxSHHLADLaeJUuBqDzABaBG9eqFXeZBjRpFXAYA/T9oZsr5NDylfKF584oqXTqva/pJBgROMc/hG6CAaD8lLWFh3RKcbg/8YHcR+kPQ1BQnHOCA8gkyLgASKMXo1q2unnrqIZdZQM8NtlClXIf+H2QKUGJzIeAH42KL3+LFP3GAC1kdxYp97Bq6UqLD2AEOaNBJicrLLz/pAABowm9/gR/jHC0Bi8gYqVDhM0cPgBwP/GDXFHqN0LiV7A/mRkNZD5wg8yMl4Ac9QxKDH28mgExnZn6cD/xgRxbmwYfsEzJPAJ4YP5k1ZABBcw+oAtShtIb7Urri7YDjgR9k4gBukBVEWQ/9Q6Cg/Bs2AAAgAElEQVQp37wnwA/6epAdwlbEZOg0b17BZQTFxvZzoJIHflBm440ttd8ZCfyY+nQ+zfukXMDpSlvDzYYxHkgfHpiTvZQi78ieIcAPxsl4jVfSh1eM7kb3lPLAnA9KK+q/H9pWtynANVJ0ylngR54KWliwin2MBgHHAw78eCDjgx+/bIo5C/TwB0L2h/Y+pwMJoAB4QSnFggWjXKkDTjpNMtndhWaYOJ5E/cn4wHnn3EaNSrumlZSKELnHUaYhJr04cM5HjGglLyvAc1wpo8C5BhTxSkz4jUyHOnWKOyCF8dBzg5IQMhB4FvekRIbfyK6geSnlGPTVoLlmnz6NRJ8NsjZwxikpmTChkwMjvGfHf69yc2I7W+bo/cZ9AVFobMo4ADBo2kofDc45dWq1exYgAI08/Z1yABhKeQAFeDZNQhkfwADb3DJXxs8zuBdAD/dgbtCJLBKAFYAHaEtvFOjkjS3x9yrXJ4X+J5S5AFzRJHbQoKYOUOBcmpzyYTz0zKAshiwO3p//vWg02qdPw4QMFu83yosoQSEbiDl07173/9k7D/Cqqqz9f/+Z75vijFOd4oyOZUYdGzrqWLGDXRELqDQRFBCxIQIC0qSoIL13CCEhCST03juELkhTQZDee8v6P78dd7hcbsJNSMy9lzfPc59zc+45++z9rrXXXuvda+/j5OhJDo5gDxZkr/j7ID8gbnhFLkQJz0QOZM/Qzn79mjgcyArhHrI82G+GvWFYYgTmmRveTjbkA0a0z5ef12N0kR8lMskPjRcRN17Ij5EfVxg6AJmQGk3kR7Hy6ruy39KBCNcByI80kR9h8RphXRRIfixr2Ni2TRtse5aN0EcYRJwObBzW16Y/+3rUZ37kNSjM630EuSwDCXwDx4kT6W5pDL8R5PMJDrbz8jyWQEBSUG5e7s/tPdSZwN0TFbm9319Ppghl+OwQfz7wSPYDz/qx2hb47LN9p07UL3sSJry1r+CJDD1xEuq5YMSSJsifUL+f67loIj9Y9rJlQnzE2UqN4fJhpAOFowMsIxl/Z+moyPzIXPbSQ/ZL/r50IMJ14LuUXjbpgbLK/AiL2QjjokDyY223dnZ467QCcWjP1SHW/eEFL7GMU6xseBrLMlLb1E/PVQeiifxY3qSpHdyQuZfMubZb96vvSAeiXwe04Wn0y1D9UDKMNB3QhqdhEBq5uUTkhzp5pHXy7Ooj8kO6mp1u6Hzs6IbIj9iRpfqlZHm+6YDID+n8+abzam/B67zIj9wwG2FcK/Kj4JVWhiF/MBb5kT84Sh+FYyTrgMgP6Wck66fqJv3MSQdEfkg/ctIP/Sb9yIsOiPwIg9DIzSUiP9QR89IRC+OeaCE/xv7nefumXxfbMXeoPsJAOpBLHdg2I9nWdG1vqX8pZollP7C4Dl2tb9++FhcXZ0OGDLHJkyfbqlWr7OjRo7kZ6vLt2ozjJ2zb9MU28qrnTcteNH4WxlioZ0au3on8iFzZqN9INtGqAyI/8s2FyywomskPNihct26Ee7VnqI3+eKNFQkJLtzlffmzm6DsNm0fyFg1e8+nP5fV46NAcGzDgE+MNFLwJg3I47t49zdXbl8tGi7xh48CBWef8TF9mYR55PWti4qeujbwphM0az1afaCE/Un5zn40pUtLG3/WSPsJAOpBbHbiztPEK2cE/v1vkxw+vND6bbczpd97WM2FCN9u7d8ZZbWxO5ei3yAgceM03b2/C95FMspcJbxKbNy/OvY3rXHBiY2c28d66daJ7qxk+W07lifzIXiY54Rbqt/XrR7k3oe3aNTUiNxoPVecf4xzxQH7FID9GfQvzGcR+xIG8rfBcN8bPr3awwT5v/9uyZYKtWzc8K/bLqXyRH+cZ+cGAU6PGS8brHIMVl8Ft9OhO9uCD/3Wv7gxWHF6x+cgjd9lXXw0NS7mC78/ufwL3bt3qu1eF8pYF6tGoUVWbMaOPe6MG9/HKx/Hju7rXXOb05gTemlC06M3OOYXA4S0cDNi89nPjxnGOFOB1pLymtHr10vb++2Vt2LB2WYMvzz/b2yf4nVdy4gBjNLNr1495fu7cAfbYY3fbqlWp7vWakyf3OOtrMqOF/Ej7+yM26+U3beHbdfQRBtKBXOoAb1CZ8XxVS77w3vOW/MBmt29f24YNa+tIb/5fuXKINWjwunu9sA/AIOBTU79w5Hl29rtz57pu3OAV08HXTJjQ1fr0aWTY48DfCPZ4DTKvcR469Av3KmXI98BrcvudNjAuvvvuK25Mf/vtl+2dd15xr5lesGDgOZedkVEwb5jCeSbQYPzFF6HejPeTJvUwgrLc4nC268GpdeuabnIlFGFFXSpWLGFjxnTK92efrW6hfqe+Hnsmbpo0qWZvvZWJE68U79+/qXu9eah7z/XcpEndnZ7iJwaXxavDv/jiA/da8+Dfwv2ftvGadPw9ghQmqugTO3Zk/0rv8538ALMhQ1obfuv69aOdXPBtP/qoknsdPQEf+C9cOMj5fl9+mXKG7Lx88AufffZBF7gGv4mN18336NHgjH7ABCGvvR84sLl7jX3DhlUMn/1cJ0DR7Vat3ne6XaPGy+6V7z17fuxeUe/rm5/HOXP6W4sWb9vmzePPwGfjxrHWtWt9Z5Py85k/VlmZNiMnkizdvvwy2T75pLqhH8RQ3NOvX1M3Fi1fnuwwIX7q2LGOzZrVN9s33R09OtfFgcOHt3MkZmAbmWTmfuKtwPGNWBP9xM4zFtarV9lmzeqXL5PPtGPZsiTr27eJi017927kYkfiyMC6BX8X+VHI5MemfVNs7JpE6za/q3We19mSv+xvX++aaMdPLMhRcMGCDPf/zZsnWIUKTztl4RWMgfeh+Bi4P/7xdyENEIbz4osvsoULE84gTgLLye13MhXoFBArGFQM61VX/cO6d2+Q5QwxUH722bv24ovF3asjs3sGg/aFF15gSUmfOxIFB7dt2w/cvQwSc+fG2QMP3OYcLhzfDz4ob8nJnzsc6Kw4ttTHZ42Eeg6d7eOP37BRozpGzOwfTvcll/zZFi9ONIwSAyOOfKgMHt+maCE/xt1eyjam9rF9a8fqIwykA7nUgb0rRtm38d0s9eLiMUF+7Dg4w6Z/O9R6pne3DnM62YDFvWzl9rF2+Fhmpp+3b4FHbPYrrzxu771XxsjcwKFPSPjU/vSnPziHl6Abh7BmzXLOdjKrFXi//045jBsEEARx/rw/xse3sDJlHreWLd8+LTiYPr23PfXUfS44IUPviy9qGhkH/r68HBkryVb4xS9+Zs88c78jPj788FXnfBLQ56VM7gEfxs9QAXBeywy8D5yTk1vZ7353oZUr96S98cbzWWNyMGkUeF/ev6db06ZvukmOYIf45MmFhmzuuedmGzSoZZ4xy3vdTg9Y5s+Ps5SUVg57dI3XqV9zzeX20EO3W6VKz1rJkg/a888/7EiD/HpmYDkQQM2b1zD8xMDzfGdipWbN8vbyy4+d8Vvwtdn9v2HDaEcO0s/wt8i4gdBhIim7LNxYIz8OHZtny7eOtn6Lejr71Wthd5uxfqhh10Lhhh4QtJYp84QjJvBNCWDx00uVesQWL05wr5Tv1auhs3H4gKHKgVCD2MW3Xro06YxXq9MPKlcu6fQs8LXrS5YkuolJAtbZs/s7GwnxG0yehH7m6fodeA2E81133eT63muvlbAXXihmTz99n/P7A6/Lr++0r3791118EVwmPj+kzqOP3p0Ndtm3I7isH/v/qVN72YgR7c8y2ZluxG/33vsfhy92hf733HMPOfyJ+9AzJraLFLnKRo/umO3ELnHj3/72J0c2BJPVlPnee2XtscfucQQ3ZYIH5BKkCBPrENCQ9NR7//5zz7wnNuzatZ6LyVidkJraxtkpCBzamZ08RH4UIvnx/b4p1mNBV3s56QO7q3slu7N7RXs2/h1rPrW1rds5wY4en3+G4BggUJpvvhmRRUDAZMJ8wczjWDDAkCXBDBOZHBAAXglg5gjwuYZUIWaOcDgYhJgVa936/bDJDxQdY8h9BNyUA6vnlQ02cfz4Lu53ZhR4pv+NzkBnhEDAEWL250zyo36O5AcZHTx/5sy+Nm1ab8foBpMf3bvXdw4v5ADkDqzgpZf+xc02YHzpvP5DKtfvf/8b5yhxPbMRDDKUzbPAdMOGMc6phQnHwQRXltgwe8G1GI0RI9o5R8FjTmdHPhgonIsFC+INPIIZaAzF4cNz3XP4jcEFZ40snaVLBzvsuGbixG7OQQU/6kU9A8kP7mGmiOwUHBaPefAxWsiPifeVsZ3zs29HcLv0f+QO1JLNjy+bWNrwdNehmTZkxQB7I62+3duzst3W9VV7uE9VqzehhS3ePNIOHZubrb1r1uwtK1/+KUtLa+tmUJkFxN7fffdNLl2WMYnfIS4YFxm/sNmMUTiFLCXE/kJ+FC9+pxszGTfHjOlsa9cOd6Q811WrVsqVA4nv9R2n+803S7mxCps9cmR7Z9sJMkhFHzeusysP4oFxCieOmTHqQYDOuMO4zxhPHbD5zKRxzc9//jNH5OzaNS3reTyXrEQcfp6FQ0jZu3dnZlbgwDIeM3YSEJH9yDMIApgQuPXWa92MINme1JGJAzIxwQ5MKCsw69GPkdOm9bLZs/s5n2PmzD6uPB8k8TzvpzDmX3nl391MMjgRDD/00H+zlqwyPjK+Zi5HGe58HdpMfagr9aA++DPgARYrVqQ4TH3bCfAYkwkWIRQYdxmTWWbrZct4TCbFbbddn0V+MGHAfYzjgbKnXMZTxnrKQu7IDp/Ly5njqfvbO3+AOjNW+0yhAwdmujE9s/wOP/hns+zbb0fau++Wsdtvv8FlRnAfwQHkB1lDEHJxcZ/Yk08WNYJFZlOpPzjhE4ABvgxtXL06zUaN6mApKa1t3LguTm+4HhlDsAT6HlwLHuBL4IzfCK5kzSIzfAtwwOeBgPHkB7jTJogL5ES5+IRggM/DPfgtPJ+sAvwS6vT66yWzJpyoa9WqL9rnn79na9aknYajxzSWyI8DR+fY3O/S7IOxTe3B3lXstq4V7IHeb1i14Q1s6Mo4w775dgceCU5fffVppwfgiCwuuuj3duONVzndwk5AWpUt+4TTAfoxWCMXZIo8PflxxRV/c+czbVcnJ3v8duwf/v9//3v9af22R4+Pne2CHMTXJVtnx44pTj/QI29jsCXffz/OkVjoI+XR9/DJiQ3oj+gMfjc2EL279dbrrHHjaq5fDR3a2pEfkCBcF8rPxW4R7KJbZMMwwYftpUzqQnZHoN2FHEa3qcPKlUPd0nAfsJ8eg3xuZJ8Ekh+UM2VKD4cV5foMG+pAXBXc7wLlxXfsOMQRdUxLa+MwoA9m9tvOWfenp2f2W2I7xg9iKWSHDfKTl74u/Ea8RUxAPbAJ6AWkQq9ejdzz6Len98uBrl9SF+wGH3QIeRUrdqddccXfrUWLGk5u2N3LLrvYYQw+wbKlXTwX8oM+iw4hizlzBjiM6c+UAcGGjfdjBM9iXGzQ4A0nWzJOfBvQTbBkXCFeRJ7EpthY8AADykGOZAf68QR5Yo+9fmJP0RvqwEQHZAvjZbBc/P8iPwqR/Oi7sLsV71vNnuhfzWqOqm8fjW1klYfWttu6VrS2szvYlv2nOzMIDaV+7rmHnZHCQULYKBkzPkOGfOGMEhkSjz56l2P0yHIgS4HBh/sxipdckhn8o1Q4ReXKPeVmFl566VFnPMPJ/KADMHNWtuyTVrTof+y++25xGSUMhNSJZzG7VapUcbv//lvtiSeKOmXkNz6dO39kTz99v1uqQRmPP35PrsgPymDWiDI40rHoYIHkB99xqpitoK0MyDhN//znJdasWQ3nSLFOjLLoZBAG//d//2t33HGDI2Nw1GCDwRBGvHTpRx0xgfGC2YRt3L59kjM6d9xxo33wQQXXzltu+be7D+NO2Rh6DCuzSyVLPmTVq5dyjDeGw3dEjszkbd06yW666WpnUOjEdHjSXnFIuYbBBMcUmTFIUD8GlUDyg2sYoOrUqXhGCmPg80R+/PiBaCD++i78fwwdiCXyY9zaRCuT/KE93KeKvTuintUf18iqpNa2GzuWs0aTP7M1O89MafYYEzSXKPGAdepU1zmi2GScbwgQAq8RIzq4LIS4uGYukPQB+VNP3We1alVwmR7YaMiPG274l1Wt+oIbsxgfcOr8PlOMe2Ri4Jxj/xl7uIZlN4zfLMEg+5IJDBw/ghbGR8ZAyiSgxblmPMYJ5pk4eIyzZENSHsH0668/54Lhn/3s/9x4irNM+YxptJkggXGL+hNQs7QDwoA64WBST7JUqBtkDkEq/gB1ueii37lAgBlnSB9Sipll9mN9lSrPu0kBnkN53M/v1BmsGBv5DsF08OAsd023bg1cVg3jHj4LTjfkDVkGjGNkN5Dazwe5QBYRjBDAE7Agv9dee9bNXjKDSRYojje+CGNd/fqV3ZhOfRi7ub9DhzpuQga5t2//oW3bNtHJFpKBtpBFQTB+zTWXOfKDe3HEGW8hY5566l6rVau8C9SQA2n6jONkqzCWIyfa53WM+wk2mf2EVCNDqFq1F12dCVh93Vh2S/lPPnmv81GYoML5p71/+tPvnS6gFwSlkB88l0AH3KgzPg9Ew7/+dalVqlTS1YXrKYegALLtvvtudXXgOegevh9B2BtvPOfW7FNnAiWybsmMgTxh2QN+BbqD3AmGqRM6ATH48MO3Z5Ef4M4yGHSdJbfoI0QawQn1uPTSvzoZ4KNB3uBjdelSz2FC8OUxQ7eQH4GPPxd4jCXyY8XWMfb+6MZ2XYcyzm5hv2qOamBP9q9uFYfWtfFrM/30wPbznX5SpcoLDk8IKbIwkC/9lMxlfF8yaOhHxAUQCsWL32GPP17U3nqrtEFKor/IB/1CP5944l4XNDMLD2EJiUegji/LEhD8T3SAfoRvi31hAvCuu4o4+eJn0lfp50xcYtOYXETPCMYzSZLJrt+SYUCfwzZRf/oF/eH666908Qm6QV/GhqAv1AUSBj1/4YXi7hqINIJZ2kbb77nnJvcc4h2CYILuihWfsb59G7t+hm4ToDdsWNUt4+B51HP16lSHBeMAmSb48j4G8eQH/RRdpa9xDsKArD5PBF955SXOttIOyHLqHygz7id7DmyxIdg2xg3sPSTj1Vdf5mwZNoRYBCKAD/0A7LALLMmnzbQD/57+R1yHLSeDEVvPM1jmDxlBP2zX7kNHBIXql4xPTIiS2YHNZSwhlsQOE5OQydihQ233bMi0QNmWL58pW9rvyQ9IUGKihx++w2UlQdDR9yFxsJHoI7YIPWFMpU1Tp/Z2GNIGyDTs+tSpPV32JbYFPMhax7YxIY5dQu+w554YJq6jTOw98sXuMLYR33kZdOnykdvagH7hzwUfRX4UIvlRIv5deyauutUa3cA+mfSJ+zSZ2NRqjW5od/d43ZZuOZUp4QWHUjKDVazYHY7lYxYDQ4jhIdiG5MAgosQMYBgjlBQloUNyzU9+8hM3a4GCoTR0fGaV5s0b4Dp5OOQHrCbKzLpdWFHuZ1ClM6CY1Be2l0GQcumsDJB0Hpy3m266xhk0HA0YXzpubjI/aAsD8r//fYUzPsxokDURSH5QNo4B+FAf7qGzUefLL/+bM3zMCHGOgYHZrD/+8bfOWNM+zlHvf/zjr84QYdRhmDFGOGetWr3nnodT9dvfXugca9hKHEYcDgYSrkcWDCg4wzDj9epVcsaPZ3u5csRwwF7/9a9/dNdiRBYtGuQcMTo414Aty1sYGBhcMGKcCyY/GKSYpUH+gc8I/C7yQ8F3oD7oe2zqQyyRH++PbuoChfdH1ssaM5tObGpVhn7osidHr85+uQf2+6mn7nPOFY4XgXTLlu/YL3/5CxfEMk7gsDHjSPCOUwnJwDjCbBgzbgS6OLGMH0w4EOgyw8RyUJx3bDHkxauvPuMcXwKIGTP62o03/suVy/hHsEk9cJgZH1n+gXPI2FG69CPO3lMGxAX1oUxmdP/ylz+6oIX6sK8IpAXjA5kfL7zwsHOcKdsHkYxrjAME/AS99957i3N4GSfJciSobt78Ldu5c/IPs3azXNBBwIuzDmkP0c+sG4E8pAYBMnVjbGG8ZyxkXL355mvs5puvdrgxS4nDWqfOa3bbbdc5R5YyCGTADB+EIP7vf/+zG8N69mzonGXIKDAAT3wYruda/AU+OOB8COS4jqAMnwI/huwNsCOQJmBjhpRJBIIH2oAzjt9E4IXTj/ONPJnNRZ74EegEjj0EAO1F9vhTZKgQNCJ7gksCDQiNzBnnzGwgbzvBlhlY8CDYwh9p3LiqXX/9P936eurSr18TN34zi0n5EC8shQIjAikCHLI+uBb9QU5gTzCCThCsUTZ1/9WvfunqmrlUJnMDd2RLgMMRf5FZXZbLcA2+GnvEECQSYJItBAlENjB60qbNB06vCMSQIwTGZ5+95yZhBg5s5uqGP4lvhC9Dv2D/jnnzBrq6oRO7dk1xuP/0pz+xBx641ZFqBHxkyRC4MiHm8eKIn0R/6d//k9PO+2tiifwY/tVAu6lzOauS+qFht7zfX398E3tpcE2rPa55SAwgNOg72A2IEILE7t0/dnaIQBdyiWCZvRZI98eHZKKPrAL6CLoPkYYe//a3v3ak56JFiQ7z22+/3pGU9Bsm2+hXELHIjGsI8NEL7BAEHYE/eot9YdITm0MGNkd0l0C1UqUSVq3aC46wa9LkTTfhiI9PNhgZQhAw2C6eTeYPuk3/x6bRl9FN/G78XPQCPxd/GF2B8OMc+ke7Ieu4n8wG+gmEBZkDEA3EKPQp8KPf/ec//3ZtpK/RR+jPLBvCN4d0gejAnoEVfRgfnzjm/ffLObIVTOgXv/zlz12/I0sK+8PzvL5yP/YKnx8bRqYY8cTOnVOdj8/1LM2HRMIOYiPIBqO/YrMgcRhXyOoBC9oNcQFBBWGOvWQCG1sMTh98UO6H5U+Jzn5Rv8B+SQxEv8T2oRO//vUFTn7EQcgGnYJ0AgPId8ZE4hAmrRs1qpIlW+Iz6u7JD2SFHWLco50Q4BAQ2Ab6OcQSYwV153/0CPvIGEj9WKa1adNYJwPIaWJIsunAFh0hjoJkx05DMt9yy7Wu3ZDnED/Ef5C87BsFMejx58g92CnGvcDzgd9FfhQi+XFvrzesVMI71mhCkywjiDFsOKGpXdLqBZu/cfgZgmNAZOMaBmBIA5QC44Gi0IkYeDEspFCihDh8zFIwuMC2B5IfKBtKx+CIQtKxCajDIT9Q0rvvvtkZHX8vz0apWctMII/xYRBnYH3iiXtctgN1oHNfe+2VzpBRR5yIjz+ukifygxkaOhcGB8UOJD/oAJBCsJ1e6bkODOm0GO5///ty9zsdGuOJ00XbMF5cC/nBDBMMpn8Gx2DyA0NGWxkgRo3q5Jwtns9gAvuLgeY3cMGpwvk6F/IDZp62Uhc+weQHRA4DZGDbPQb+KPIjNoNdL18dJV90IJbIj/IpdVymZMOgMbPB+MZ2dduX3Z5Z2ek9Yw0kMs4gNhlnnGCQwJSZdcYDZhHJgOB3CA6CTa6HeCCLgXGVYJl7IS8oE+f0qqsudRMMOGV8GM8IuCEByCCBLOA7ttqTHzjVkNOQLwTuPAvnl7X9jE88jxlOAljGCwIS6oXD36xZdTejywQHe36QCUiAQ1YJS1DAAIccR5iAgToTxPsZ+Lp1K7kMQsr2Y4jHjT2ycGRxwBmzGA+LFLnaOZKMXwTdBFwEEn6SgEABp5nnUR6YsAT0t7/9lVsWwVjH7C+OO2Xi9JNlSZ1oOzOW4MlvkB/sBUDgRVnUCwKJ9jOJg7/BDDLOOkEEuBIU4FzXrv2qCxLwhwj4PTnjyQ8CR2YW/ewy5ROc4MtAfjDOMyuOH4M8+Pz1rxc5bPEzCJZwuhnXfd08bhxpA3Ug4KQtXIM8CCRI9WaGmiCW4MWX/7e//dkFB6To0z7aSXDJvZ78+POf/+CyLpg4YawnUPXkx8CBLZwcuB5fijqiN2xMyDnwYVYVX4BUdmZF0TMySeLjmzsyBZ+Maz35AblEpg31ZPNc9ByiDmwIKggOIWzwNfEzaAuBKjJgthXSCb0kMCIgomyCNfpCcKCC34Q8yEQKxNJ/jyXyI2l5f/tnm9KGvfLEB8emkz6xEgNr2KtDPgqJAfjRL+iXkJPYG3QJXUSf8FEhLZAjk3EXXvgrlymAXCD2iAHoz5AfLElAFugnfu+LLxZzQS86DaFBhsNvfvNr5w9jDwlACTipgyc/IGD5TgYcE7E8h4wFSEP6NiTkf/97g1s2AclM/4MwJNaALKN/EIzTz/G5sb1kQ/EcdN6TH2RfeD+X6+kfkBZet8GAfk7GBLYHfabvYhexoegjBAV17/cD+UHbyVAHF4jizBhkmMveg/xgwhLylIwI8KVt1J8lIvjuPIcAHXuB/aNsr6sciS+Iy7BtYEl7uMZf58kPCG+WD3GerAvId0h0nscH4pFzZCVSBrEbbSJL4xe/+LkjwbDHyJ9lHhCWxFfB/ZIlfeBA1h+xI6QzsRr9FdIIggPyA7sFEcpSF9qPbMnq8LJFVowlnvzAljN+oEdMFjBGYUtpD6QbMRK6SH3IPvKxSCD5wUQDk+/XXXele87LLz/udBcdATuyipA59YQkJo4FE2RZocJTztaR9V+7dsXTZICdh5xBDwNlE/hd5Echkh9PD3zHSsRVtw9Hf5xlCMn8+HBMI7ujeyVbuuXM9UooFiwh6z5RAjI3YPBg2GDrOnas64gROiiCZrCDHMGhgtwIJD9ImYIZ9YMOHZnUpXDIDwwKBoHZAJ4D0QFxQsciC2PVqjSn1BhdHC7SxiAIYD9xAjBgGBLuhaDBIYRZpH2URVpY5kxN5o76DODMgpH6RefjOgwT52ijV+pA8oOZK5xOlv343/2RAZkBnoGcmQgG+OzID64JfA0ezw4mP0jDxfjQsTEQYAP5wYCDfDAuPBtDixYB+cIAACAASURBVIGAFQ6H/MCIwDoHZ35gDJCXb08w+cEgiKFglstfE3wU+aHgOFgn9H/s6UQskR/vjW7iMj9qjqyfNWYyg1ottbbd0e01G7V6ULb2Dt3GmWdGCnsNMQ5RwdhIUIHTjEOK4wThQdYCzjROLm8hgKxgbIJIwJnEYWUsYDwioCA4YYYSx51ZPJwvliwyU4kThtPL9Z78mD69j3PsmIljjGTWFrvOWE5gSqAC6cJvOIGffvquGweoPynBcXHNszY8xRFlHGWMh3ggOB0+vL3deeeNblkNKd44swS3jKU4zDirzIBSp8B+z/M8+YEjz3JayA2W4HAdDjvLSZiZpL044PyOH8H4yzWUCRFABgkBL+Q/xA2BMfgQIOHcs8wGUoGxjGdxHzjihBNs+3oRrJDx0K5dLXeOyQkCJYIQxliyMkiDZpzkeSznIYPD14XxGH+CoARH3I/HwRue4hNQBktXT8m+oVvTjuwhFgjUkY+vW+CRAJLxGv/MnyeY8OQHQSNBIP5PYPnoHIEnjj5+TTD5wQwnExrgi3zByZMfYOmXkYA5xBZBi38+hAhygBDiGfgKBJ+ZfeF+5x/hF1KmJz+YySfw/Oc/L3V1oSwCTb/hKfJCpyBlWG6D7qLjBMT4f5nkx89dME59uZ/MD/DDn/J140h9mDlG9wPP+++xRH4M+2qgFelUzqql1T4t86PB+CZWOvF9qzU205/2bQ88ZmYn3Of6Jv4n+/cQ9KMvBPIEr8i/UaNqjlDAZmG7IFjpP+iLJz/8hqcErvi/2BN0Gv8U2bEcBblCZrD0wOu7Jz8gEPr2beqCVpYjIH+yFIgp0BNsI5kbTE4SA+Cn8yEzhGAaG4M9JKDGLmBbqZ+fdPTkB0G693Oxb5988pYjbT0u2A7IN/SS6yiHrGtIYJZ08Ez6EvudePIDsg1dxX7hi1MWZaObkB/oa+/eje3yy//usrRpGzELMQ/Lbjz5gTyws74u/sh44JfX0zchavxvHD35AVa+3yIPMl+Qo7cLZEZAWEDIYluJ1SDp6aMXXPCLkOQHGBADhuqXjHXUn/GDD9mIEJzEfGBIFs6ddxZxbWIchJBAtpAQZNpQX+IgT36AIfaEmAeygviOmIs2cg1jFraOI+QMGUn8Fkh+gOnzzxdzOs1z+BCzYNORLXYcewthTQyJzcGWYkPIJiGzg4wniL9AjBkbIPWQUeD5wO8iPwqR/Og2v4sV71fNLX35YFQDq+fWL9exu3tUtk+nt7Hv94V+7RvKA6NGJ4edbNjwDWc4YAfpzH/4w29dAE6AzywWQTCDJ4YukPwgsMaJY68LjBXBP2RBOOQHzCqMLwMq5AOOCk4h5zAedBTqR0eF3YPtJ+CHKeS5OIsMrtyLQSUDBfID5cTw4ZzCCNL56UiUgTLj4HgnyZMfnujh3kDyg7Q4UjxJhYPN5T46FOeZFWN/DRwdZqQwiKTr4ZDR8XF0cAbI/ICNxDj6jsP5UOQHA08w+UF7cbpgWXGIWd+Gs43cgjsms1QYEwYNDADlgR8DUG7JDwY92g2D6+sdfBT5UbCBLgMjgwHOXTD2+j9v2OM4EBwSwJ0rhtgZ+huvDwwVBJ5r+flxPzYLhwNiGXvuy+Q8dcf2YdOwSf634GMskR8jVsXbK0m17NF+Ve39kfXdnh9vptWxWzpXsI/Gt7Cvtp/aZDQYB/4n2CaIJtuDlF8wxKFkhhuigL6KPjDOENCznp4xhYkFiAXGIsY5ZirJiGCsY8yFrIcc4HeeQ79n3GWcw57jgDP+IidPfhBA4CQTwFMHNuyETEDH0UeWi95wwz/t2muvcHUlS4VZVAgRgkWCWnSDGXb23wrc8JTxqmnT6q4NPJvZN2b7Ca5pD4ERGODY4zegW2QTEPzgYD7yyJ0ucOV/HGZmD9k3ggCFAJ6xBUKDNGba5MkP6u5xZz8sZqmpPzOa7PPFOU9+kD4P2RCcMn6K/Di1jh49h7AgmKI+ZOAwrjIO49QzdiLbl156zMmCzBz6BXWhfp78AHPwh1xhvKfdTI4QdDBmMrvM/5ATSUmZy1YCZX828oPggzGbwApHHv+FCap//esfLjj87ruxTi4EFsiEsk+VP9cFhWR+MDFEvZGN3/A0+O1AnvxgTxQfRJERg+8AcYc/B9bImACCYIX/8SuQH8EPk1XorQ86qTukHTImM5ggClyoI/UlOCTwQO+ZYOF3+hE6hu7iU6G7ocgP9Ktjx9pupp77vZ4QfCFXMoX8ucBjLJEfy7aMsrdGfGw3dSpn2C32/Kg1+uMfsj7q2MhV2ZO39H9sCvaEI4Qf4wIkJrKkf0FMco6ldMzGQ1p4mwLmkB/4uOgm/9P/8KM/++wdN6kK7iwReeedMq7Myy77m5M/suM3T34QnEKQ0e+JH/iOPqKj+M5M0LLkCT0nqGdCkCUkZAoRBzB+oyeQHwSxgT48z0FPaSfEjSc/uJ7MB/oDRCC2luCZrBfiIewItoFYB1vHiw3wuTP7xinyg7rTbog9MqiJQfCTsRnoN2MrWENaQyhxLW3DbuLTUVdsNs8ORX5gM7FJZMbRzyBE6cdsUcAYEIr8oEwyI7ATyIY60eeIH+iHxE/0O+wXcma5G+MO5dFebCMEKjIlVgrdL2e6Z0PI0+8huFmGBDkLOQHeEAzUn8lg6p8p235ZssW+gDsrD3gu+kUsyEQ8hK/fUBsZYschXbHzLE3xWAWSH4yTZBaRNQRZD860G5kTs3300WtOh0qUeNDFZZDnZApR/7i45m7ZDOQcNhaMeS4fJgPIUmOJpD8XfBT5UYjkx7e7J1m72R2sVGJNu7/X6+5TMv5dt3P9im1j7cjxU+vIAgXHoAjZQFCMgmLsmH3hvJ/JgsmDdWP9m99EjTI8+YExohOyHg7iAaLBEwE5kx9/cgMjnQziAwcIQ8yHZ2Fw6Tx0xKeeus8ZFBSfZ2Ao6bgYR0gW6sh9OHQQJZ78oJ50HEgClBpmmOthjFFm39ZM8qPSaYbTkx+ZsyHTjHRaCAyMMx0KB4AZPwZbWE2MBjMgOGU4VDhP1Jt9OjCk3Ith+PrrTEeKuoFzJvnxvjOIGF7WU3/1VaojPyCccK7I/KCjY7wwIhgWyiNFmVk4HN/T5brQdfiXX37UOStkucCawnQGkx+0gywafz9OOw48TgiODEYX53D58qSsa/y1/hgr5MeBFan2daN3s/1sic+e/fVY5PXIAIT+4GAEl4Ejjf4xExn8W7T8T1/GWWbwxZ7AsDPQkc7MwJz/7WAz5Lpuk0PsRHD5zJBQBxzx4N/C/Z+AB/tHIENZZGZhX7AH2EfaHG5Z4V6HzeAT7vX+OhwGyJ7777/NOUScp34EVQS8BCnYApw1nAV/X+AxlsiPbQemW/zSPlZxSF17qHcVK9qzkj3a7017d3QT9xYF3qYQ2Pbg7xAMjCtsao0O4TCx9wJOOTaWoA0cwZx9Nhi32OyP2SVmyRhfID+w34whnGccYhwLzFTAiYNEYH09Npz/qQs6QPDNzBv9igCdcY0xh/6FrWBzU/QQxxKSA0ebmSyIGmYyIRO4jnpmR37wPBxArmX8f/vtV1xAwFg2eXJ3N0NK2Ywt9AE+2DLeLkKAwyaD+AQEG2DE/h2M9fQTzuOIMxvq28TYTuAcSH4QRDAekVFDMM7+I4zd4ZIf4OPl5yd8CHQYF8EMDHkm4x3XYW/pywQ1jH88x9cP8oOZbIgtZgu5l/3JyIoFBwIdgnwwZfymjQRDXvaM1WDqyQ8mi3zdAo+0D1+DgI99NRjv2aeEYIwZXQIHSAOeCSHBjDU6RCBF+dQNnLkH4o2AKTfkR6bv1dfJB38M3wn9BA8CRupKMEjWKRv9PvjgbVlLetFNT36gy9QH/4gZdHw0fDH8GmRPO/mdjAFwYnYfnUTnyYD15AckDr5iJkaZr1rF/wJjzhG8EaTgh9I3A7H032OJ/Nh7eLZN+ybF3hzxsRXrU9XZL156UDm1ng1a2sewb77dwUcyanzgil9B/yIYRibImDENPFnagKw4h99JJhJ9FUIU8gNbh6zIGkFHsIfYO7IjeCbyIlOEIJNMDfaa8HXx5AfyhWhhPxvvx6PLBPCMSfQ9sssgICBcIVSYVESXqRf9DLsSHvmR6edCcPJcbBiTtsQV6B7jNuMhdcQWYGfYg48JVPaO4L7AzA/ICHwA/HEmPn0MQgAO+cH1+B7gw3OweeBF38D/OJ38ODUh4THiSP/AVpBhhf3HLkEeYx89+RGYsYVdILbBtpHhgU3gwzXED2Q+kFlBOdhqgn82YibLhqwM5Egf9HYqVL+kTyNb9OT3v7/Q6QbniG1oH0Q98Rn1x0ZASnl8vGwXLkzIIj9oFzIGP2wWBH6gj4OskDW2j4luj88p8qOR82kYh7EpZIAwpmIPkCF1wLdhUoJ6QPYTk7FVAZMC4IKekXGEf8r4xfPpF2RuIq/s7DR1EflRiOQHAli/e5J7dV/L6W2s2dTW1mdhDzd7dewsDjhGDoYfZpQO4BULhpZ0Wth4Oi+OFqymd0oIWHCgcK5QEmY/eB0sAQ1rdpkl8DNivkx/hOEjoKbzo8AYEdaPUh4sIGmmpDaSSoriQsowgwarDCmCEeScd95hgnkuRAPpbaR5+WfhyDBAk+ZGx+daZgYCB9LMFOHOp82IYvwwOrQLg8KAj0EmzQ5GkUGXtFA6LdhQBoMFz4VZ5nd27qfTQSSBHU5RINGAIaXOrOXlebCRMMhgjOEEW9qLE0C5OK0MIMiKNuKIwIhihHx7/ZH7WYfIIMcMFI4wmPklMhhV1k3CRgcynTjKnGeQwShgRJgJQw6+7OBjrJAfO8f3tAU33GZr7y5+xmfZrUVtVfXT1wMG43Au/+PI4lSHIj+QCX0Q5/FcnlGY99LPCQ4JwBiYCdCYFYat98vW8rt+OHYEXYEz2f4ZBPk4KDjZ/lxujgyOOAgETwy49HXsA30S5wFnIL/JDxwpZsAJ5pgpz019sR3YHwhpn32GU/H55++6JQAEzzgPBHHMpmHTg8uPJfKDtm3dP81460urGe2s8ZRW1nFOJ1uyeVSOr7n1mGDjCTQZO+mf2FMIDYh87DEOPdcyTvI/YwmBP2MFfR0CHeIPW8sYgYPI+Edf8DNb3I9ThjwYSxlTAm01RDX3kklCSjQb/zE2Ms5h85mtJEhHb1imgY6yMRx6iYNH3akLukx9GHuZ5fezszwf/wAynnriJDPGkzpN32IsYjwjwOFeAnzaSfYjZfBs6kDdCZYoi4CGe7Fn1IdgiiyGTFzT3cwrfgfkSea5zDeJMCZCLHCff5Up7WB8hjRmhjO4vzFxwvjpfRZfHn4OfgJ4e7+BPoGN4hqOyIwggxlNfx/jNc43MoJM4Jn0GfCm/fg8OO7MCHMPckFmgbJnNhXdwCmn7VxzqvzTs9gYc5nRZLznw+wxs6zoHfcgM7CnfNqCblEuZeLcM/NL1g5ECEEitoPgzpM8/rm0BX3BD8PX8efRXXSU9vFsZkaZ3fW+AD4GMka++BXomb+X56BfPkMHzNAh8MbX4zfw4nrkhi3Ct+J39AJfBZnga4EtPiP648vHN2Jii3bzXHwVgh38rMD+46/nGEvkB+05eHSupW8abu1nd7TGkz+31rPau7e8YNcC2x38nb5J32C8glTEdoEhWVz0V8gRV/7B2Y7cxFdHB9AzsozRe/odsuJ6Njvmd/QSv9E/D7ky7mAT0Y9A34bx0U/2cB1jGn4/suZDv+UcOoYuYdfIIqBvYg9ZHsHYzrOwkQTb9IVg2VM2hBj3BtpO2ktfydTtis5P5n7vn2MTsRv0Kfp4oA0hFmCiEnvP8+kT1M/bEnxz+qvHgfoyEZOp26873x39pa4Q4Pwe2O/8ff7I7+g6to/6+oxysmKQiY9R/PVkTdDf2IPD2wVIKfoqxAgxAfEUb7MhVsMHoq9hVxlP2COK63Pql8gBeVIWOCJnT3bRj7Elvj6Zsv34NNmyBAe5UX/wYhki/Z74h9/8vRzRV2wZMUxguegGsmW8QbZk4mPrsGXgRN3Qc+wbMRQ2H1liRxi/eRY6jz7zHMqG6EBfsX2MjRBEEyd2P8NmBtZP5Echkx+BwsjP73QAFCV4vVmoZ6DMOM3eiQh1TXbnUGQU+BQpEegIZK6Hpmyu4xjsoKHQ1DW78ik3sx2nBtDsrg11njbhMNIB6WRcc+TIPDdrQb0xloH3QdxQR4xaTvUKvOds3zGYLANi9o6BhhlFmFkcyuzupW6B6cDZXRd8nvZgZHEmIKmCfw/8P5bIj8U332n7ni57xufbex/PkfzAYSCgDsSKV6Hh1DFwonsYVwJmBm0GF0gx79BxHbJlEAF7SDscZ/DHYBNQZ0d+cA8DMiQV5RKM0ReREech1Zi5oCycWcr2fZQBEb3GqcHh9wMB9WJQzyxrnuuX6B9leV3nOx8GVMrAUaVcHG8IRjKWeC4DCechP3gLEuVu3DjGDXwsb2Ng57nUHV1OS2vjHB90F2cEgo7gidkLBiScexw2AjWcN9pPW7mewINZFfoe7fXOPv2fGUEwYtYJlp/N/Dz5QeovDhnPYWYeh4JBk3JxvBngwRL5MQuAvJkVY0aGfuLT9gkyCK54HjjhuOCIsIYYTMAGLHASwYzyID897tzDtSNHtncy4TeuJeCgz7NGl4EdOeJ8nSn7tKz+jt4xe8wzuJf1y4HkBw4HAS1L6LBR6ALBFdjwxobAPs73WCM/gttXkP+jr8jK9zueRR/LHNMWuHGC/33fymtduB9bw7hzrmUF1gH92L8/cwd+bAvle9vFWMc5UplpZ+B9/E9fpJ3+PGM4/SNwDPe/hTrSr+nHbFRH3/X9MtS14Z4DG/pqMBEQ7v3+OnABC29v/fnAYyjZB/6e3XcCEpbMsJwEW8rMKPuMMM4E3kMd0K3gOqBrwdgH3hfO95xkG879gdegA+gM9Q08778jE+RBnc+mu5TBeEoADU7srYBuMAb58oKPsUZ+BLevoP5HFgTqyM/LxfdrnplpC079di71oK/7sfNcygn3XtrB2Brcd8K931+HXuek2xCntAs/w2Po7w3nmFubSZn0EUieYP+f/6kL11Bn+hs48D848D/nfb2ob7j90t8T6hhKtpyjnjwP/fL1CHV/uOcoi7EotzjzbIgUSO9Vq4Y6gg2fLSeCmjqJ/IhR8iNchTsfrsNZIqDwjO+P3WaCOd71TWoaadTMOsNK+pmY/K4PjG04zqHIj8w1rMiDQBg5YNBhnpkVY9aBAJ4sGtZBs86foB8ijaAXIw3j/swzD7jAGuPN7Cqpfk89dZ9bXkVQGor84F7PULPci7RB1jdCOFAHUjpJf2Qna1JPeTbG3TszzGRSLuUTzDODRv35nVRNZlT4TtBOlhLpywwSPJfvfqkbadFz5gxwushMEOngPJc0Qpx3BjbID/YRor7M9jLrQJ2ZCYZ0YAkAad4QCrx5gH4GIUO6PWn1fCiXtenUiRkpMq8gX6gPTjBLDmDvuZdgARYf8gDmn5lpUnvBqHLlZ916esgP7mW2gZkV5OJTYCFiwJCZCZangSFtGjq0jSNRKIv0UdIoQ/U9yuX5pM1SL9LjIVEY8JkZImOEdfmkb6MLBCs8j3pQR2TFsgHIL9pGVgmvF2epBaQnZAzECru2k0XDPdyLjaIciB7S3tldnhRfUuQ9+YGDQ/YNsy3MIHmZMxtIenPw7IvT6cPzbOuURBt26aOWWPYDi+tA5kFfi4uLsyFDhtjkyZNt1apVdvTo0XweDcMrLuP4Cds2fbGNvOp5W96kqR3ccCaBE0pOOhc40RB538lwoL/QTyAizxd5kdmDvWG8xyaRNg9B7Mne8wWH7NrJOElgwhgKEeIDuuyuF/kReX07O1npvGRVGDqAn0q2GpNbTIDx/9nqIfIjPP8s7KuO7z9km0bOtOQLH7S13drZ4a05p7KdTUD6PfqNCUEnjg+sJBkGBDiRIFeRHwsdwcHaStZ4w56TscA6aAgDMjw4sl6cgBTjSmoexAZp0ATJkAy8JpFMAYJXUrxJP8QAE/xChIQiP5hJ4LWFrJclk2DEiA5uEysCYww3AS97uBDQEnhDwPCec/QHUgACA9KDQJ86e7KLGQOCdtI5+U7QQdoy5ABBOnXmtYesmYSogczA+UQ3ye4gpZuUbQJ80pEz0wh7uL0L2EOAD8QH5AjZI6RAs68BAfyyZZlraZnBhlThHDhBYPA/dSAjhUwZ8CaDAWKSLAk2ACYdH1wIGCBHWNJBtg0bM5LhQttpC/sLQH6AEzOstIXUV9Y/8xsBF3iQ4sr6ZsgUsl9oJyQXG8RBFuCEh+qHYES6OOuVWU8MgQHpAFmJbqADtJ0lD7SJbAvugdDglZuQRODHemswJ6Pkggt+7vQBHaJulAEBheyZpWBZEbiT+goZxzpsyCEIuNdfL5lFfpDiym8QVb7utIulMWw4RvaJP++PyvyI/jHEyzKajox7ECC7dk05LXMmmtqQl7oyvjODySQEAf65zk7npQ6xdI/ID9mvWNJntSUy9FnkR9i0RngXivyIDMWORANDgMQnUuom8oO9aTLXzF533RUue4Od55m1Y+kKhIYP4v3sPkszCLBZh0gmgCc/IC1Y0uCDeORMwM37x0ORH2SUECAT2LOZXOnSjzgSgTXVkCiQH2zaRBn8T0APGQKzTdAOGcIbJrgPgsHrVLjkB+tYKYt6MgvH3jfsIE7GAvW56aZr3Oa/BPlkfvz0pz9xzy9Z8kG3Bh1yh3pAflx33T8d8UCwQz0IwCmHZ4AbwTllQJKwdIZ9gSAkyKpgeQ1EDXvgsAkZ9YH8IFsCMoT9VMjU8FkrrAX1e35A7LD2lrdfUGc+//jHxW6PBvY7gPzgXmTm+x3yZbd50q7PRn5ATBHAcC8BDbO3vMWBuvIsNkjj1XC89YN2E+hB5LDHEc+oUOEZt8SOerLshSUsECjoCgQGO+FTDhuHXXjhr9xaVvZ44LnNmlV3z6RM1s36zA+IMLJByALyMid9GeKF8iBe/Hl/FPmhMcnrgo4/ni5gN7zdEe55x13kR96xk94JO+lAaB0Q+REepxH2VSI/QiuaOmDk4SLyI3OZC7PvLC0hG4DlGSwpIOhlH4rq1V9yJAD6y/pNZvEhP9h0iQwHT36wdATigt3MWX/I9WQ5sJwhFPlBsEqQy1IRZu35QKiwhwhkAeQHyxvYz4HsC8gJT37gUHOezeUgP1hmwRIPnhlMfrDPBctMgjM/Pv64issg4R42wGJfid/85lfWtu0HbjM0MkBYugJBAnHB7uBkbJAFQRYTWRfUA/KDZS9kffiMJggAdu5mUyzKJ2sCEuXXv77ABedkPrBhJxuokmHBGxw6dKiTtd+BJz8goCBBWNpDOXwCNzwlZZpX8kECUQ/efgJOPIvNCSE/wCZwKQjkAJk8EC/ZvV2AdlEv2uCXxkC+sKQHsopsEDaMI4uEDeEgWqgLy3vYFZ1sITJ+SPcHJ97IEUh+oG/oBBk0p2Tf0O2DwtIgMosghGgvWHONJz/820rYMMxjQrYMGTIsoQneV4BrRH5Enu31stNRspEO5KwDIj9yxkf6I3ykA7nXAZEfYdMa4V0YSH4srd/YtkxKsF2LhulzjhiA47cJ3YXjOeIYqIvfDelj05553RJuKmWDWrRz+wD069fPEhMTbcyYMbZo0SLbsWNHeIpfAFftW73BFlT71CbeV8Z2zj/1RqNgQ8/bXuZdf4vxZpfgz8Iid+S44SlleZKC5RO8Qow9Wticj8CT/S0IvgluCWQhGdiLgWtIZ/bkB0QJm1RyP8QBSzQIjNkbIhT5wTNZ3sASFDbCZa8LXh3ITD8ZCZAf7FgdivyATOB69vNgOUiZMo+7JTAE7WSjUCZZF2RnEDgXLXrzGeQHxATLZ2g/GRdsOkfmBxkRLFPZsmWiW+ZDpgLkB0ti2LyQZ5/C/xT5AT6e/KBubPQKwQD5wmZ2vK2J11366yA2IAfYDBHSAFKF+2mDJz9Y0tOmTS1HrvCdLB2WvfDqNJa9UC5vQrjyyr8bGR2kmIMhmSzU05MfEFm+zhBJLBdiaRBlQGBBbHAPhBRH6gH5wbIdv1cB9UpPH+SWHrFfCFkptJMPBBF7fxQpcpUNGfKFkydtYGkPRA/Ld/785z+4HcrJ4gET8PHvtmfZjJc95Ab6wj4lLHGBDCM7xJMflMebdho2fMMtGfLyAwf2EwlF6EQT+bGgWi37fkyc7Hw+2vlAm6/v8sWiTQe+HdTdxt9R2hIeqmQDW3V0fkr//v1t8ODBNn78eFu2bJnt27evADyQ8Ivc99V6m1e5mY27vZR9Gy8/Ndp0LKf6bkzra5tG9teYFGNj0vrEnjbx/rKWULS8xX/W4TS7Mm7cOFu6dKnt2bMnfCMQIVf+T2HVI5D8GH1DSZtcrIJNfeI1fc4Rg0kPlrNx/y0lHM8Rx0BdpOOnXfJo1JMfhzeOs61JbbP97J5x5j4IPhj2wSO78v/udxe6gJQAnWCXIJjsB5ansHkdO/aTQcFSC78cAvKDTAIIA4gLAl42HGXDSpZ28GaSUOQHs/VkD1A27zAnm4AlNixrIMj35AeBNQE7G6v6zI+NG8c5UoAgHAKF7A9eyUZbCOQ//LCC2/+BjTohRiBvgjM/AskPlqZAsvC6VJb8QFpQFzZVpV3hkR8pLjPG14EMDPYlYUkHdSTLAWKF4J9rePMSBM3ll//NZbj4dfGB5AekAZkaZOOAP+WQLXLttVdm7flBlgc4P/bYPS74f/vtV9zeGhAhp8iPU8QZ2TssLaEsiCmOvOOeTQkhHMgSAY9T5MeILOIkc7PW6i5jBzkjM7JqZszo6/YcgdxBFsiFvUEeeui/TsYQG8gBbHmlJqQUmRosXyH7h3IgLiCEIHTI+mA/EHSDetF2yCcIIvABRzJiWF7E/xBtZIvw+rfA1xKCM59oIj9GXv20TXqovOx8Ptr5QJuvUQdx3gAAIABJREFU7/LFok0HJhR9xYZe9FBUkB9D/viQUd9ow1j1zd4uTLj7Zck0BsejCfeWsdS/FBP5kV9kyckjR2334tU2/43mNqd8I/cZ/+z7lvJQZUu4t4INvKec+yTc96rpEyYGt75kCX971BJ+cY8lXFvS4SjswsQuDD3jDRCDOnSL2swPH+Tl9UhATLBMIEsmBRkfviyCUYgRlsKwQal/9zwz8FxDAOr36YAsYckHWQ6QCyyNYa8O9mzw5QUeIQAom40zIVTY34LyKJslJry6lcwLlsGwmSdBMf+zpIPNVJs2fdPdQ6YJRIEvm6UPvDmFOnTp8pHbFBQygnby6jbqxNuGyHrw95BtQvYK97EZJ3XiGWSXsGyDDTb57kkKfx+vrGWZBxkQBOL+PIE62Ri0iw/vkGf/ErJnuAaShkwSCApe2erv48hyEvbXICOFctlsljo1alTV4uObu/0u/PIOiCI2BgWL+vVfd0cIK0gWsjMgBCCPAsun3Sw9gYhgWRJv2eF+snrIhvGkF0tp2Ew28F7aAH5gywfZe+ILrOvXr+xeAcx3NnQlq4csFLJKeIMMJBay4jlkD/FmIfBB91g6hezZa4a6UD4yhyhp1qxGVl3YGBVdIXMFvU1La+OyaBYvTnBLhwLry/eIJz9OnjSyvBbXap81Zk56vpYNefh1N0ZmjZn3VtCYGYY919iYf2OjsIwcLBOr1reBnbqfNkMbKZkfhzfvsK97DcuyX7PKNLC0R6ra4AcqWnzR8s7nH1S0vOxXtNmvG1+whN89YAl/eMgSbnpR8os2+YVR38TKH1l8x9PtijI/8sCIZJzMsOMHDtm+Vett38pv3OfLcdNsVI84G9ymqw34tJ31a9HGBn7eweL1CQ+DavVt0C0v2aB/PGGDHnvD4lu2C+8+4RseTu27Wlyffs6pGDBggCUlJbl00iVLltjOnTvz0Avy55Zwl70EB3v5/T9BPeQAgXZggJ/dc44eneuuJ4jO7prA85llTw+r7MD72Ojy9GUop9Y98psnGgLvOdt32gc5wP3htDWn8rj/8OG5p5EsOV2f3W+Z5cxxxEt2deI8+50cOxb6DS6hyobIgUyCYMkkhk7hF+r6wHMsL4KUCqwP38nooQ6QO+AfKAMw5ROoF1xLHQLL4Tlkn3Av5QQ+l+/Um7fb9OvXxL3tB6KETW95dvC1/B/p5IdlmJ04dMQOrNuYNWaumTLXxvSKt6R23SzOj5mftQ/PnsnuCyfpQOzpQOceNqBPP2NpLq/pTklJsUmTJtmXX35Z6MteTh49ZhAg3uffsXS1TY5LtqGdell8q47Wv2Vb5/vL54+uuGdQqXdt0NXP2qDrnrNBZWrGXp+SnXTEh49/sCvJyck2ceJEW758uZa9nGsot379epsyZYqlpaXZoEGDnPHu27evCzZ1PAsOvfvYgMp1LP6W0jaweGWLL/KC9e3aQ9gVgP6wjjYhIcGGDx9u06dPt5UrV9ru3bvPVf3zfH+kkB+hAkqdC58oEFb5jxWkF9ktvDmHDVeDyZNAzCOe/AhhIbZs2WLTpk2zYcOGOZuEbdJYeZaxsgDGBGEuzCNJByA+mKBhv4+RI0farFmzbM2aNXbgwIEQVqTwTh07dszmzZvn9k4jmCKoou6RhKXqcpa+3au3DSxeyQbeW94G3l3W4p6uZn179ZYMY3Cc8XaF/Q5HjBhhM2fOtFWrVhU6qZoXC1Zoe36EquymTZts7ty5RirN0KFDHQGCM6dPGBh06mYDn69h8fe/agPqf2qDLnnM+rdoa/179xF++ahDOBQQH6mpqY71XLBgga1bt65QO7/Ij/wPmgODYn0/P/CNRvJj+/btNn8+GS4TnE3CNmGjNGaGMWbm47ggvIV3JOkAJALEBxM0kydPtoULF9q3335rhw4dCuV6F9o5yA82TJw6daojacimHThwoOxXNNmmtp0t/taXLO612jbwpfcs/p5y1r9dF8kwmmQYZl2xKxAfTLaQTZaenm7ffPNNxJGq4Ri0iCI/cOTYkRqWmjWKAIwxxIjrkzMGiQ1bWULJGpZYqa4ldujhNr1KfLW2De7dT9jlo/4wO4FDQbrXnDlzbMWKFbZx40Y7ePBgOP2tQK4R+XF+BOciYQpWztFIfpBxRjo7tggCBNuEjdJ4mfN4KXyETyzrAEtdyPiA+CCz4quvvrLNmzfbkSNHCsQHyWuhx48fdxkpTCKR9T1qFG9mGyL7lY8+a0HreeJbjSzhsSpGDJJYu4UlPFnNEt9rKhlGkQzD1RHsChkfEB8kKpD1/v3339vhw4fzagIK7b6IIj94XQ4sEs4cs1ksKYAE0efsGAyr1thSX3zfRnfobWOHDLMRdT63lNvK2JgBma85E4ZnxzAcjCA9ZsyYYQzWEB/MpkDaFWbn9+THmJuft697d7Lts1L0EQbSgVzqwNapg21N57ZuZ3M2N47r0NWl7jLbgUNOIEGK59GjRwttwA5+8P79+50NwhZhk7BNkCDh2DJdkz9jgnAUjpGmAwQnTCKS8QHxsWHDBrcvGZkWkfR34sQJN3m0evVqW7x4sc2ezabXk2W/oijuGfpIVRterbGN6Z9oY3rH27DKDWxoibclwyiSYbj2C7vCUpdAu7Jjx46I8onCtW8RRX6QkkcgyUz6119/7Yw2mSD65IzBohmzbXy5ejap6ie2dM58W7posS0cOdGGXP6Mze0/xJakLxSG+aRHbO7DQA1JB+NJxycAKUynwpMfyb++13gF5pibntNHGEgHcqsDRZ6zEf96ygb/310WLeQHM7nYIJaMYpMgZ7BRGjNzHjOFj/CJZR1gApE9PpicIeODDdnZ7wOyIZL+Tp48abt27TL2LmLPP+oMkRvLsomVti1dssQWTppuw24tY7M7xtnSBQtt6fx0m/lpTxtxbyVbNGWGLVu6VLLMp9gjEvQGu0L8g10h/vF2hQyuaPuLKPIDw8ysGrPoLCMgqNy7d68+Z8Fg3fApNrf6p7aya7Lt3ZOJ184Nm2x6yVq2pPUA2/rVOmF4FgzD1bN9+/Y5vUQ/0VP0lY6fkZFRaH3/yI49tjF1qi2p28l9Fn3YwUaUqW1Jz71t8U+/aXFPVXXHxGffMn2EgXQgDB1o1NrievSK+MwPgofgMRMbFa4903XyL6QDsacD2ADIDiYUIUiZnMG/Lkw/JZSDRH2oG3WkrtRZ9is69HHXlm32Zc+hNqP0R7ZxWnrWmLN+9AybWfZjW9l/uO3ZtTvrvOxMdMg1JzkF2hUf/0SiXQlla4LPRRT5EVw5/R8eAita9rNlH3ezHXOWZd3AKxHX9UyzeZU+sV0LV2Wd15fYQyDj+Ak7unOvHfz2e/fZs2aDTUocaild+1hc287Wr3UHd0zs2MP0EQbSgTB0oG9/i/vhzSmRvOwl9qyZWiQEhIAQEAKRjsDRXftsdtmGtqpNvB3csCWruvvXfmcrPxtg86u2NF5trD8hEIkIiPyIRKnkok7H9uy3ua82sdXtEowMAP+XceKkYYSmPFLDNg2fbieORM46dV9HHQsGAWZSWPvPG2ni4+Pdq+PYiZ5d1PURBtKB8HSAPsOr3ehDvH6dPahIy46kPT8KxoKoVCEgBISAEBACoRFgwm3fqvU2+oaXbevkdDtx8NSGl8f3H7RNI6bbhLsr26HvdxixiP6EQKQhIPIj0iSSy/psn7nUsa/fJU86886MDJv1Uj1b3XHwaczsmRfqTCwhwDIcNgweM2aMe/MDM9cEcXpf/VneVx+D72WXzPMuc/oMRBE7nI8dO9a9NYG1roW5v08s2Sm1RQgIASEgBKIPgWO799t3KZNswt2VXLZxcAv2LFtrkx+ubt+PnGnHD0TW65WD66r/z08ERH5Eudy/bNrbljXoZrvSV4ZsydpuQ21RzXa2beqikL/rZOwhwBo8NkeaNm2ae90dr74kiGMmWx9hIB0ITwfoM/QdXr9I1sfSpUvdxqLRuLlX7Fk5tUgICAEhIAQKA4EDX2+yhW+3NuKPowEZ574uhzZus+VNell6jVZ2ePMOf1pHIRAxCIj8iBhR5KEiJzNscrHq9nWf4acteQksidS0mS/UsW/6jTQrxE05A+uk7wWLAOTH2rVrLT093aZOnWqjR4+2oUOH6r3rMfje9XDfz67rBuda/+kz9B1IRF7tRp/atm1bxL0xoWCtiUoXAkJACAgBIfADAhkZtmv+Cht7Sznblf6VnTxy5r4eLIPZOnWhjbz6Bdu/er2gEwIRh4DIj4gTSXgVOnnsuMv2mFzsLds6eYFlnAy9ro61efOrtDQ2RT343alNicJ7iq6KRgR4AwSvvuSVVIsXL7Y5c+bYlClT9N71GHzverjvZ9d143Ot//QZ+s6SJUvcXh/0qT179hj9S39CQAgIASEgBM43BI7u3GPrB421SQ9UzdzrI9SkakaGHf5+h429pbxtTJtm7E2oPyEQSQiI/IgkaeSiLsf3H7IvP+lti2q2tb0rvsnxzrXdh9qSup1t87g5OV6nH2MDAV4ft3v3btuyZYtt2LDBzVivWLFC71uPofetR8I732O9DitXrnR9hz5EX6JP8TrGSHtdZGxYLbVCCAgBISAEIh2BPUvX2LL6XW1Zw+6WceJEttU9tu+ALa7V3r2Jcv+aDdlepx+EQGEgIPKjMFA/12dmmB3Ztssm3FPZ1ieMD7nmLvARu5escevzVrUZZHYyI/AnfY9RBNiU8ciRIy5YO3jwoO3fv994R7c+wkA6EJ4O0GfoOxAe9CX6FEvK9CcEhIAQEAJC4LxDICPDbWLKUvrtM5dYRg7xBK+53TZ1oU178j3bPn2xlt2fd8oS2Q0W+RHZ8glZuxOHjtiOOctsTJFXbPeiVcYSmJz+2G15ab0utqRORzu0aVtOl+o3ISAEhIAQEAJCQAgIASEgBIRAFgJsbrqu+1Cb+WJdO7b3QNb5kF8yMtxylymPvWPr48fasd37Ql6mk0KgMBAQ+VEYqJ/jMw9v2Wlkccwp3yhsMuObviNs8Ycd7PvRs8/x6bpdCAgBISAEhIAQEAJCQAgIgfMFgZ0LVtryRj1seeMeYTeZuIMl+nuWrQv7Hl0oBAoaAZEfBY1wfpefkWF7V3xtM56vncmmno19/eH57Mq87ONuzgjllKqW39VVeUJACAgBISAEhIAQEAJCQAhEKQIZGW6j0/S3PrctE+eH3YjvR8+yea83s03Dp2vpS9io6cKCRkDkR0EjnM/l81opDM/oG192WR8ZJ8J78wBLX75qFeeyRY7u1s7L+SwWFScEhIAQEAJCQAgIASEgBGIOAV6ysKJ5X5tX+ZNcvb3l6O59bpnMmk5JdvzA4ZjDRQ2KTgREfkSZ3A6u32yrOwy22S/XNzYUys3fd8kTbX6VFrZ53Nzc3KZrhYAQEAJCQAgIASEgBISAEDgPEdg5f4Ut/aizrfy0X65bv6x+F7dUZvfi1bm+VzcIgYJAQORHQaBagGVun7XU5ldpaezhkdNrpkJVAcOzvGkvW1q/a6ifdU4ICAEhIASEgBAQAkJACAgBIZCFwLoeabakdkfbMmFe1rlwv2waMcMW1WznluqHe4+uEwIFiYDIj4JEN5/LPnn0uK0fNM7S/vakjbjqeRt/R0Ubf+drYX94O8zwy0rYlOJvGctgTG+9zWcJqTghIASEgBAQAkJACAgBIRAbCPCGyYXvtLZhlz5to64rHXbM4eOTUdeWsmGXPmXLGnS1E4ePxgYoakVUIyDyI4rEl3HypB34epNtGDzB1ieMD/lZ+O4XNuKfz4X8jXs2JI63LePnnvX1uFEEi6oqBISAEBACQkAICAEhIASEQD4jkHH8hO2c92WOscfkYtVt+rO1so89Bk+w3YtW5TpjPZ+bouKEgENA5EeMKQLkxrjbX42xVqk5QkAICAEhIASEgBAQAkJACEQaAuwnuKRup0irluojBEIiIPIjJCzRe1LkR/TKTjUXAkJACAgBISAEhIAQEALRhIDIj2iSluoq8iPGdEDkR4wJVM0RAkJACAgBISAEhIAQEAIRioDIjwgVjKoVEgGRHyFhid6TIj+iV3aquRAQAkJACAgBISAEhIAQiCYERH5Ek7RUV5EfMaYDIj9iTKBqjhAQAkJACAgBISAEhIAQiFAERH5EqGBUrZAIiPwICUv0nhT5Eb2yU82FgBAQAkJACAgBISAEhEA0ISDyI5qkpbqK/IgxHRD5EWMCVXOEgBAQAkJACAgBISAEhECEIiDyI0IFo2qFREDkR0hYovekyI/olZ1qLgSEgBAQAkJACAgBISAEogkBkR/RJC3VVeRHjOmAyI8YE6iaIwSEgBAQAkJACAgBISAEIhQBkR8RKhhVKyQCIj9CwhK9J0V+RK/sVHMhIASEgBAQAkJACAgBIRBNCIj8iCZpqa4iP2JMB0R+xJhA1RwhIASEgBAQAkJACAgBIRChCIj8iFDBqFohERD5ERKW6D0p8iN6ZaeaCwEhIASEgBAQAkJACAiBaEJA5Ec0SUt1FfkRYzog8iPGBKrmCAEhIASEgBAQAkJACAiBCEVA5EeECkbVComAyI+QsETvSZEf0Ss71VwICAEhIASEgBAQAkJACEQTAiI/oklaqqvIjxjTAZEfMSZQNUcICAEhIASEgBAQAkJACEQoAiI/IlQwqlZIBER+hIQlek+K/Ihe2anmQkAICAEhIASEgBAQAkIgmhAQ+RFN0lJdRX7EmA6I/Igxgao5QkAICAEhIASEgBAQAkIgQhEQ+RGhglG1QiIg8iMkLNF7UuRH9MpONRcCQkAICAEhIASEgBAQAtGEgMiPaJKW6iryI8Z0QORHjAlUzRECQkAICAEhIASEgBAQAhGKgMiPCBWMqhUSAZEfIWGJ3pMiP6JXdqq5EBACQkAICAEhIASEgBCIJgREfkSTtFRXkR8xpgMiP2JMoGqOEBACQkAICAEhIASEgBCIUAREfkSoYFStkAiI/AgJS/SeFPkRvbJTzYWAEBACQkAICAEhIASEQDQhIPIjmqSluor8iDEdEPkRYwJVc4SAEBACQkAICAEhIASEQIQiIPIjQgWjaoVEQORHSFii96TIj+iVnWouBISAEBACQkAICAEhIASiCQGRH9EkLdVV5EeM6YDIjxgTqJojBISAEBACQkAICAEhIAQiFAGRHxEqGFUrJAIiP0LCEr0nRX5Er+xUcyEgBISAEBACQkAICAEhEE0IiPyIJmmpriI/YkwHRH7EmEDVHCEgBISAEBACQkAICAEhEKEIiPyIUMGoWiEREPkREpboPSnyI3plp5oLASEgBISAEBACQkAICIFoQkDkRzRJS3UV+RFjOiDyI8YEquYIASEgBISAEBACQkAICIEIRUDkR4QKRtUKiYDIj5CwRO9JkR/RKzvVXAgIASEgBISAEBACQkAIRBMCIj+iSVqqq8iPGNMBkR8xJlA1RwgIASEgBISAEBACQkAIRCgCIj8iVDCqVkgERH6EhCV6T4r8iF7ZqeZCQAgIASEgBISAEBACQiCaEBD5EU3SUl1FfsSYDoj8iDGBqjlCQAgIASEgBISAEBACQiBCERD5EaGCUbVCIiDyIyQs0XtS5Ef0yk41FwJCQAgIASEgBISAEBAC0YSAyI9okpbqKvIjxnRA5EeMCVTNEQJCQAgIASEgBISAEBACEYqAyI8IFYyqFRIBkR8hYYnekyI/old2qrkQEAJCQAgIASEgBISAEIgmBER+RJO0VFeRHzGmAyI/Ykygao4QEAJCQAgIASEgBISAEIhQBER+RKhgVK2QCIj8CAlL9J4U+RG9slPNhYAQEAJCQAgIASEgBIRANCEg8iOapKW6ivyIMR0Q+RFjAlVzhIAQEAJCQAgIASEgBIRAhCIg8iNCBaNqhURA5EdIWKL3pMiP6JWdai4EhIAQEAJCQAgIASEgBKIJAZEf0SQt1VXkR4zpgMiPGBOomiMEhIAQEAJCQAgIASEgBCIUAZEfESoYVSskAiI/QsISvSdFfkSv7FRzISAEhIAQEAJCQAgIASEQTQiI/IgmaamuIj9iTAdEfsSYQNUcISAEhIAQEAJCQAgIASEQoQiI/IhQwahaIREQ+RESlug9KfIjemWnmgsBISAEhIAQEAJCQAgIgWhCQORHNElLdRX5EWM6IPIjxgSq5ggBISAEhIAQEAJCQAgIgQhFQORHhApG1QqJgMiPkLBE70mRH9ErO9VcCAgBISAEhIAQEAJCQAhEEwIiP6JJWqqryI8Y0wGRHzEmUDVHCAgBISAEhIAQEAJCQAhEKAIiPyJUMKpWSAREfoSEJXpPivyIXtmp5kJACAgBISAEhIAQEAJCIJoQEPkRTdJSXUV+xJgOiPyIMYGqOUJACAgBISAEhIAQEAJCIEIREPkRoYJRtUIiIPIjJCzRe1LkR/TKTjUXAkJACAgBISAEhIAQEALRhIDIj2iSlupaeORHRoadPHLUDm/eYYe+365PPmGwttsQG3tzWeGZT3gG6ubRnXst4/hxWQ0hIASEgBAQAkJACJx3CGScOGHH9x2Uj1kAPmagvxlt32eXa2jpNVpJL6QXp+nA8f2HLOPEyYizk4VGfpw8dtwOfL3RVrcfbF+1GqhPPmEwp1wjG/aPp4VnPuEZqJvfJU+yI9t2RVwnVoWEgBAQAkJACAgBIVDQCBzbe8C2TV8kH7MAfMxAfzPavo+/s5JNfuhN6YX04jQd2Dn3S4MAibS/QiM/AGPTyJmWfOGDlvL7Byzt4uKWdskj+giDiNOB1L8Us6QLitqUR2rY7kWrIq0Pqz5CQAgIASEgBISAEChwBA58870tqdvZBv/fXTb0Tw9HnL+mOEJxlHSgkHXg748425D4v3faihZ97dDGbQVul3L7gIggPxbVrGcb0/rY1imJ+giDiNOBb/p1sSmPvSbyI7fWRdcLASEgBISAEBACMYOAJz+GX/mkre7U1rZOSYg4n02xhGIp6UDh6cCWCfG2qt0XlnpxcZEfwZY/MPNjTac2dnDjJDtxZJ4+wiDidGDXkuE2u9zbIj+CO7H+FwJCQAgIASEgBM4bBDz5MfqGZ23b1EQ7cVh+u2IX6YB04JQOHNs32zZPGGTDL39c5EfwyBBIfqzt1s4Ob51mGRkL9REGEacDe1aMsjmvvmPD7qxgswel2fLly2316tW2fv1627p1q+3du9eOHj0arOL6XwgIASEgBISAEBACMYNAFvlRpKRtn5VsGSfTI85nUyyhWEo6UHg6cOLofNs6dbANv+IJG/9WM1swboqtWLHC1q1bZxs3brTt27fbgQMH7OTJwtsINSKWvYj8KDwllYE4O/ae/Bj8n5csrV0PGzdunE2fPt0WLlzoSJDNmzfboUORt6FPzHhbaogQEAJCQAgIASFQ6AiI/Di7zyi/WhidzzoQSH6klKttIwck2KRJk2z27Nm2dOlS++abb2zHjh124sSJQrNnUUt+HD8yz3auHmPrhvezL7u0taWftrQlHze2JQ0a29IWLWx5xza2ekhv27J8pB09OFfMtDJK8qwDnvwYVORFS2jZ3lJSUmzkyJE2depUW7x4sX377be2f//+QuvEerAQEAJCQAgIASEgBAoagbyRH+m297tJtmFyoq3s29mWtvrMljRuakvqNrSlnzSzZV98bqviu9mmOSl2YJuywM/nwFltj37iKJD8GFT6PUvs0stSU1PdxPGsWbNcFgiTxsePHy9oc5Vt+VFHfhzdN9t2LB5ua/p1trkNm9jo6h/akIrvWFKZt2xw6TdtcOlqlvTKW5ZS4W0bXvUDm/5RI1vZq6Ntnj/UDu2emecAWB0y+jtkXmXoyY/4G563AU1bW1xcnCUlJdno0aONjswSmD179mTbyfSDEBACQkAICAEhIASiHYHckB8njy+wPd9OsG9T+1j6py1twnt1LbXye5ZcroYlvfSmDX6xmiW9XN2Sy9ewYW+8b1Nq1bcl7Vrbd+Pjbf/3U+Sva9JSOhCFOhBIfsS9+LYNaNfFBg0a5AiQCRMmWHp6uts24NixY4VmDqOH/Di50A5unmLrRw2wWXUaWMrjr9ngl6tbUtNPLDmhmyWPH2gpc1MsZd4QS54w0JKTelhS82Y2uGwNS3riNZv0bh2XCbLvu0mWcfL8DeTzSgCcz/dlkR83vuDIj759+zoCZMiQIS6Va9myZbZr165C68R6sBAQAkJACAgBISAEChqBcMmPY/vn2Nb5qbbw85aW9uwblvRcFRv8QT1L6tnekkf3t+QZgy1lUZolT02w5BF9LalDaxtcvZYllXjDxpR725Z3b2e7Vo62kye0p8j57H+r7dEXrwaSHwNLvWP923ay/v37W0JCgo0YMcJmzpxpa9euLdS9EqOG/Di0dZqt7NHeRpd8wwa/WNWS+3e2lCXDwvokD+xqg8tUt9SnKll621Z2YJMYZRmU8A2KJz8Sbiplg1q0M8iPfv36WWJioo0ZM8YWLVrk1q8VtNOh8oWAEBACQkAICAEhUFgIhEN+kKG9aepgG0dG9t2lLemzlpY8NTE8f310f0tigvPBsjal+oe2e9UYO3FkvjIAojADQHFG+HFGLGEVSH4kvvy+xbXv4uImsuaZNJ48ebJ99dVXduTIkcIyYxYV5AeGb1HjTyytWIVMo0iGRzbER/LiNPOf066ZN8SSGjexlAfL2cya9ezYYe0DEkudrSDbIvKj0OyTHiwEhIAQEAJCQAhECAJnIz9OHltgG0YNsGHFytvgEq9byg8ZHqf5495/XzwstL+enmrJg7tb0oPlbETxCo4AUQbI+RlIF6Rvr7ILRqdEfuRgrHPzqtsVHVrb6GffsORmzS1lToqlLA6d8ZG4IMV6TexnHUd0s35TB55OkHDP3BRLbv2ZpT1ZyeY2byYmWUxyWDog8iOHjqyfhIAQEAJCQAgIgfMCgbORH+zXMfHVdyypbI1M4mNx2um++A/ER9KQ195pAAAgAElEQVSiVBswc5C1S+1sPSf0tcQFQ06/Lj3VUkb1t6SHytu06rVs14pRYflrCmgLJqAVrsI1XB0Q+ZHDUBAO+cFmSTvTU21iiddtSKMmljJp0OnG8Qcj2nJgKytRoaTd8N8b7Yp/X2mXXXW5XXXj1Xbfkw84MiR5UYDxnZJgyc2b28iHy9nGmUnGW2PCFaiuOz87v8iPHDqyfhICQkAICAEhIATOCwRyIj/2rh1n6Q0a2ZBXqltyWp+Q/nqXUT3s9XpV7Zait9o/r/uX/eNfl9kV11xht91/u9Xv1NAGpw89dZ/LAOlhQx4qa191b+/2/ZMffn764ZJ79Mhd5EcOQ0E45MfxQ3Nt3pu1LLVKTUtO7uk2RwpMnYM5xlje8fBd9oc//cH+93//1/7nf/7HfX7yk5/Yb37/G+s4rIslLQwwpmywNKyPpVR53yaXrWGHd0wvcPJj0qTuNnt2P9uxY3KBP+tcDMTJk+l24MAs27hxrG3dOtGOHTu1zjI9Pd5ox/ffj4voNpxL+7O7V+RHDh1ZPwkBISAEhIAQEALnBQLZkx/ptqp7exv12ruW1PpTS1mYeorE+GGistXgtvZsxefs71dcYj/7+c+y/HX89p//4udWuW4VGzQv+fT70lMtqe7HNr7CO7Zp3MAC9z9XrUq10aM72vr1kZ9pcvz4Atu8ebx9//1457vjw+PHbtkywYYMaW1r1qTZsWOa4M3Ot9f50wmVDRvG2OjRnWzFiiHmdSkvGIn8yGEoOBv5ceLIPNu9bISNuvslS+nSxlJmn24Q2ddjwMwEu6v4PXbBry9wRvRPF//J/lP0Vrvn0aJ2dZFrnDFtN7STDQ4kPzDCLH/p09FSbnzWtsxOMUgWBIyw582Lsy+++MAWLUrIMrJTp/a0Vq3et/Hju7prTp5caNu3T7Z69Srb8uXJdvjwnKxrQynKBx+Ut5Yt37aVK4eEvG7kyA7Ws+fHtmDBmYZ98uQe1q9fE/vyyxSbNq2XdetW330P9Zy8njt6dJ57docOte3998vZO++8Yu+9V9aod58+jR0Z0qlTXff/3LkDQrYhr8/O7X0Y888+e9fmz48z6p3b+/NyvciPHDqyfhICQkAICAEhIATOCwSyIz8ObZpsc9+taylvfWjJk+JPJzCWDHPLWiq8X9H+eunFzl//5a9+adfdcr3d/9SDdvPd/7Hf/uG3VvGDShY/N+mMe5PHDLCU56rYinat7cj2UxOW+/fPtEaNqtq4cV1s166pzh9cvTrVevVqaPizJ04scOdOnEi3/v0/sZEj22ddl50vmJLSyl5//TnD9w51DT5/jx4fO3Ih+HeCxsTET23UqI5uArFJk2o2fXpvo57B1+b1fwiP774bY3FxzZxP/u67r9i775axmjXLWZs2Hxg+OvHLc889ZGlpbR0pktdn5cd9HTrUsREj2jtCJj/KCy6jffvaVqtWBdd+MODTqtV7p03eBt8TCf+jm59++o6rO7FWvXqVrH37D2369D75pivB7Vy8ONHatq3l9CMUuYGuvvHG85aQ8KmhZ8H3h/u/yI8choKzkR9Hds2wNd07WNrTlSxlRL8zjOGguUnWpFdz+/1Fv7f/9//+n13014vsyVeetgZdGluLAZ/bO83ft4dKFLPu4/oYGSKBGSN8T54Yb0nFK9jidq3swA/vE0cZMFz33XeLUxAvaJTyyiv/bnXqvGa7d09zZAeZHL/73YU2Y0YfO3Rodo5KUrLkQ/bmmy8a2RO+zMBjx4517NFH77YvvqhpR46cvhFr9eqlrHLlks6AYkAwpqFIksDycvt95sy+zog+++yD7ll1675mdepUdANA8+Zv2Zo1wxzRQzsmTOgasg25fWZer1+2LMkZegamwz/SprUiP3LoyPpJCAgBISAEhIAQOC8QyI782Dg6ziaRpd2yxRn+Nj43E5F3Fb/bfvrTn9oFv/6V/eeeW6xW6zrWKrGty+Au8WpJq9epoSXMD/1Cg+QatW12nY9t+9yhWT4o2dQ333yN8wm/+irzfGpqG7vrriJ2yy3X2pYtE92E5ebNEwz/9pNPqtuOHTm/7ZEJxvvvv9WGDv0i6zmB/urUqb2sTJknXHkHD84+bYa8b98mVrbsE8ZkIRnUkChMbu7Zc4qwCSwrL9+/+WaEI3aefPJee+WVx+3DDysYPnv16qXdccyYTi5euOaay6x370a2b9+MkO3Iy7Pzcg+TxAMGfGLffTe2QOqBrIsUucpKlXrEqlUr5T7IOTBzPbf1Js5LSGhpCxcOsoMHZxVIvanfNddc7vT0xReL2wsvFLPixe+wN98s5Yiz3NY5nOtnzeprtWtXdHFrKPKDGPP++29z+nX8+KnM/3DKDrxG5EcOQ8HZyI+DGybZrArv2NCPGlrK5IQzjGmfKXH24hul7RcX/MKxyPc+fr8jPTzJwbrBrmN6OUNKlog/n3WcmWTJ9RrauLI13LvEveAIqulEr776tFN4FLR06Ucc0VGxYgmX6cGSkO7dG9jVV19m69ePdqwuQTmZIXz4HpiVAGlQufJzBqNM+bDUECFkjKCAfH/mmfsd4/b11yPcc2EFt22bZLfffr3LdOA5S5Yk2rBhbe2bb0a6+zCosLwYO8rlXuq7d+8Mg9CAHSbljXNkjvCc7dsnuXsPHZpjZLRQ7ttvv2wPPnibYyFJoQML6rVz51Rbu3aYM54YsBIlHnAGgQ7EMymPZTJcv27dcEtPH+SeAyE0b94A91x+B48JE7q5e2bN6ucGBY83DDV1W7o0yaZM6emW1sCe79s30+bM6Z+FlV8yRJsGDWphDHS0CyJo9eq0rHpQZ57BYAdzCdP55ZfJrg60d+LEbu55MPFghywog0weX6fgo8iPHDqyfhICQkAICAEhIATOCwSyIz+WtmhhI96pY8kDu57pby8Z5iYk2eODJS6XX3OFvd3svdOu6zWpv/WfMSjkZCV+e3KnL2xMtVq2Lr5blq+Gr1upUkl74omiNnt2f+fzQV5cfPFFdu21V9jkyT2dn4ifh/9KJjN+N34vPvOoUR0Mf3b37qlZWSLcX7TofxxxgC/LEhiOLCXBp9ywYbQxKUj5+K/4ofiMe/dOd5OGL7/8mM2fP9BlmECGLF062E2QEkSvXDnU+cLUh8CayU587cWLE4zlNhAV+P48i0xvnkUQyjkyTvgMHNjM1Q+SBf/cPx+flmULLIFhBp/4hLbwnbiEmMAvWye45/+1a4e7JflgQFxDfVjug69M9gp+O/61n+AFN/x+znEP2PA/sQqZ7SyN53nffntqyVBKSmvnk5OZw3mu91k64AZWtINYAf/e+/T48SzB4H/qhs9P+eBCDOT99DvvLGJVqrzgykU+fMCLD3WiPuDNkbb5oJ8jeCND8KEttInnQFhdddU/rEqV5y05+XMXsyA/nkucAjbUhXr7zH9IKdpGPIO+MEFOecQf6Ab1RZbEWPzOuauuusxq1izvMOB6si6KFLnalc31xFHEQ5SbKa9hrgzilZkz0c1ONn58F6djYApO4IXeeHyQHTqIfqF/SUmfuwlt3370EHzoD+3a1XK6RdaUJz+QC3qXGd92sSVLBtuRgL0yly9PcuUTn9IuniXyI4eh4Gzkx77VY23krS9aSu+OmW94+WHNoCcveozvY0Ufvy9r3WDFWpWt37SgN7wE3ePvdcf5Qy05vpul3lnadixIzVIUhMzSj9tuu84pNYparNgdzpjCzNEpUKK33iptFSs+4zo9nRS27rbbrnf3Va36giMivPJBfjz1/9s77zCpiqyN7+cads2KigExwCoGVAygKIgEEQkSFEFJouSckYyAZAQk5zCEGYYZhpxzjqKCmNa0KAiuCioo4PmeX7U1NM1Mw4BrD9PvH/30TN9761a9VXXuOW+9p26J/FalSknHKN9zTzYrXbqAmySQJBgc7gmTy8DkOgbsjBn97N57s7l7ct7o0Z0c44xBYsJhuMuUecox37CfSKgwbkw+6ozhY0LQhoYNX7Jy5Qoll0UbHnwwh0u3yZ37XkfOQFL4Ood+Q37AhtPOkiXz2733ZnffDHSMb9++Td3DpXbtF1xba9Ys6yY3hoq/H3nkHldPHlLIrjA6TL7KlYs7tQlG5qmnHnH4cT7G5fnnizhDQL0xTEgXMQC0DZxg3TkGy/vppwHSCGNDPWH/OV69+nNWvXppo08KFsxtDz10l736amlbsGCIvfhiUbv//juM/pk1a6ArP7Td/C/yI8xE1iEhIASEgBAQAkIgKhBIjfxY91pTS2zdweIXn5zygs9duXE1uyHrjY78eCj/IzZ8/ugTyI8T/PMUfPf42eNtRrVGtqNPr2Q/FT952LB2dvfdt7vUClQd3brVt2uvvdL5ev37t3T+dffuDZ2fuXDhELdQR3pI3rz3W86c2d3CHz41C274e/jNqEnwZfHJWZ3n3MmTu9t33y13QSFxQM6c/7IuXeolp7SwWAch0aTJy85/h1jAt4ZwYfGOAJb0DH7D937ppWcciYD/jH+KwpxAnKA4Lq6X801RhUNqcN8GDSo4hQtp6SgdCEZT8lf5jUD/tttucopuyBj8b/xr6gJmBMi0qUWLalaqVAGrUKGoC36JC4gjHn/8Adc+riM2wc8nBiE9H/+fNA3IpBw5bnXfKExQFBCHoJwnNR3ygbqULVvIwB8F+bBhbQ2Vw/r1x9PnUeT06NHIETHjx3ex4sWfcDjxOwRTyZJPuvu2afOqqzPE1JtvNkguH/KDxWXiMLCCpABT2tm+fQ1Xv0cfzWkFCjxs/fs3T1bh0B6Cfha3c+W60+GNoqdv32YO63/+8yK7/fYs9sQTD9js2QMcWUWsAW7gnydPTmvZstofC7EbXcoKdUV9wripUqWEW9RmHIE3WNCPkya9aQULPuKIoOzZb3ZthZQgTkPZz3ibNKm7i0fAAvUQfUisM2JEOxdzUgbtIX4hpmFhnpiJcYkaaMCAlskkD2VTBzAms4GF9pkzB7jyIXAoG5VU4cKPutgqV64cJyg/GNcskDMWfPzEYrcnkRiX3JM6MCY6dqwl8iPck+BU5AcBZ8Ktz1h84hibziuvQowhqo57c+e08y8436W9NOnZ3L0vPPS8VP/fOsPiF8ZYfI6Stm/99GQjAoM5ZMjrdvPN1zs1AoOJyVGiRD6nCOEYigEmOHmFqC8Ipl94obAzmhjVp59+zIYMaZM8OAiur776CjfoyE9DonbrrTdahw61kiV4yMKYMK1aVXOTmklC4M6gQr3AxIE0KFLkUZs1a4Bj+FCFMOBQlEBuMIiR6rEvBsaM/2EAYQYhDGCCMWyUDSPNBCbVhsHepUvdZHaSe4V+ID9I84H06Ny5to0c2d4uvfRi12bYRowMxylr6NC2rs4Y8WLFHndMIvehnhARtB1cSVsBqyuuuMxJCN96q4XVr1/BLrjgfMuWLYv17t3E7ZWCYWJCwUAuWTLCPeioP/9jmDDOu3YFCCwmM4wt+ZAcp9+oF0aJ8hs3rmTnn/93u/XWG1zZ4AHRhWHFcIa2m/9FfoSbyTomBISAEBACQkAIRAMCqZEfK5+vbfHtOll8yP583gcvU72cXX1dJuevs3CZUjq6Pzel7/hVcRZfqYG926lLsp9GkAupkC3bzQZRwKp8u3avWaFCuZ2/jr+JH0jAjQ/LAt+ECV1c8Ml5+IsEswTu3oeE/LjmmitdEIrPiD9LkFm5cgm3+IZPyCo3C3cQGcQMBIKslhM8ExdwDgqCG2+81gXFKDlITyE4xI/nHGIIfFxIl/btayb771wHSXL55Ze6VAiIE+pJHAJJQqAPAYDfnZK/ym+QH7Th4ov/YaTO06b8+R9yATmLo6gGOH7JJf9wvi+K6N27F1rv3o1dXMB9UAJQv2uvvcreeKOuC9bx44llICU4BjaZM2ey66672qkWOF6hwjMG2YC6BFwC+FZzKgxIkXz5crl+8nXnXNLsaTd9SPnEKr78m266zq677ioXZ1E+GBNnsLBL+ZAfEDKkGkEA0HZSjlggZlEWtTy/QUyBPyQJxAxkA+QXxBlkCmMHFYRXqt98c2ZHgrBQSnnEIJBiEAHg1a1bA7viiktdPUnpIYa66qrLHH7UZfPmyW5hlrrGxQX20IAEYeEcIoOxSzvZr4WYkgXdZ57J6wgkYj7qyLWXXXaxqzvxE0oTxgLxEfEi7R0+vL0bh8R7kFD0HXEV5A4Yk6XA2OEYpBokBik9KDtYlOfcUaM6ugVgVFTZs2dNJj/At06dF1x9iWnpH+YWcSz1p3z6GxyITSGv6EcpP8I8CU5Ffnz//hyLu6qATV80yaankLYyZM4Iu+WOW+3v5//dbWzaou/rJxEkKRnQ5N8oc128xWUpat+uPq54QDIFG0iAjsHo3LmOY3IJ7lF+wLqiKuA40i9kZrCkBO1MEoLyihWLObaOgcPggPyAxIBdho1ENgQ5ASHBpOIcFCcQGQTpDHDkYd5wImPjHE9+MAmYpBg2flu+fKRj9UjXwbiQ8tGzZ2P3QMCgYzAgIe6553bHfpMeg9KCSYiBgdBggyA/WbhX6IcHB0YKRhFmFYPPxG3XroZjbMEHowYzSUoNhgfpHMwwG1JxTxQupMvwIEGmBnHExCtfvohjsSEfkJhhSCGRYPGRmTHJMThI4s6E/AgoRwbbTz+tccRRpkxXOKNIGz7/fI4jXpjgSPpC283/Ij/CTGQdEgJCQAgIASEgBKICgdTIj+XFqtu0Dp0tpbe84HcXLV/MLrvyMrdgyX58yb54yMJmqr9vSbRpFevZO607JPtpvHwAv5KAjiAS/5fVeL8BJiva+Hgs9KEQwZ/EH8WXxY9n/w4WL1EnkHaAv4ffz6o+QSP+Ov7s66+/6vxQgkfOgXjgPBYAV64cYz/8sNKqVSvl/GvSODgnmPzAv0fJUKlScadiJhgmJiCmYDHSB74El5AOkDUsymXNer0jJXr1auRU15061XIkCav+Pt2Ce4V+CPZvueUGq1GjjFsApQ3sCUK5gRSYsS6Gadq0kotB8P19DIJPThv4DfU0imnqDjlALAF2ED0cC6RuZHXxDoE9JA/ngDfpHqi100p+0JfENb58yAlILAgCcOfeOXLc5kgK4jXIDwgaFj25L/EWG70yNug/xgdloaqA/ED9gPIc9QNkBTEMsRztJaCHFCBdhvIgRYjRILsgF7ie2ItzIXdQutCHpFxBfjz++P02dGgbN2Y4B8UMBAbxETEd4weSALLBkx8QGah0IKMeeeRup46hDp78gLSBrKIdxEDgS2wYUCutdvdCiUM/de/ewI3LLFmucxkAXIMCBcU+ahtPfkye/KbrK9JuIIgol3N5Q1C+fA8mkx/EkpRLvDh//hC3dwvjtmrVku58xh3kB4vMXMuYdGlHv26yvSvibNZtz1psxaYWM3CojRs3zmJiYiwhIcGWLVtmu3btssOHD0fMZv4tUnc+FfnhlB83PxN4V3hKyo95o+yuXHc7Q3re38+zpr1apF35sXiyTbujhO1bd1z5QWcy8WG3MGZ0KgaVjoX5JaWCgQzzymBBwUAaC0E+UiYIAIwWRoaJT3lMRtg4bxSZBBhnDJvf4wPjxH0KFHjITXx222VCk/PFfSjHkx/jx7/hZGAoJDAU1BUDkCfPvckKCQwojCHMIKwf6gjIFYgENrWBgMDgxsb2cpInWE2MMPdJ6QP5AbtKezmO0aMMfkfOBiYc534cZ+KzNwck0bhxgTxLfuctLZz37LOPO+YWQwtxhNwPsghVS5YsmZ3xYiJhTCGEkFZBTpwJ+eFlZ5QPsQVTjUIGEofyMV70D/2SUttFfkTKSui+QkAICAEhIASEQHpBIDXyY2W5Wk75MX19yhuWlqpSOvCCgvP+z/IVfzJt/jp7fqyeZtNRfnR84wQ/jSCXYIzFPxa6IEHwPSESrrrqcveNQgPfFZUIfj2BJgQCvjMpKCxgQoTg/wVUEg86pbL3B/kNn59vfiNwJdjPmvUG5wMnJPRzC4zsBUJgzTnB5AcBN/fgxQmknxBHQMwUKpTH7TeHD41f3Lx5Vefn4xejHkCZAblCqgI+enx8H7dwCKFAwOrrF/oN+UHwDgb46hznLSgsui5YMNQF06RcsJrvN2NlvwbeEAOO7KXiy8Q3JmAn9YPAm0VbvxmsD+BRsRPLUBb3JCWIffzOhPygX1jg5f6QACzOosxmUZi20AekhrCI7MkPAnCugcABS1QhxE2kKhE7sMBKncCesUGsg2oF8oq+8Rj4NpP+AzFAqggEAPEUKfvEUL5/f/11gxtLbFKKEgTyg0Vm4itfDjGMV+ETt0G8gR+xjMeOOtE+1OoQPH5/Q09+kA3AWKJMVP2oZIgdaQPn8DtvieHe1IGtBiCBWNBmAZqxRr9B1njyg0V6yB9UNeDmY8zQDU8hPFC7sNAdiG8ftIceutuRQJ58A3twQVHj2y3lRxhrfSry48BH821uructccJQm74h4SSWmLe4sHP0BRde4HIIa7atYzFrY086L1UWeXOixceOtBm5y5+w5wedBwsIS4rxgGEjv4o9JXj9K6oEBhMBO+ei9mBfDvbzgLDgf5hV8qT8QID8CH7bC5MTg4LsLdiAIc+CYWXyw7RBVJC24hUknvxAtjdmTGeXHoJBZG8Q7us382RCsLEPbCITH0OJkUOqBIsHGUDbMFYYEORwTFD2y/B1Dv2G5KAd/m0vGCHSUWBNPflB3Umx4Vo2WoVZJ2cOI87E43fuQft4SLHJFEaehxUMaYD8GOhSjtjIx5MfGP5w5AfXw9RCuECeQLgEp70EkyuQH9dff43bLwU2GCZZ5EeYiapDQkAICAEhIASEgBAws9TIj/XVm1ji6x0sfumUFP3wlxpUtsxZrnf+eu6n8tiYZRNTPC81nz1+7kRLqtbIdvbueZKfyuo1C48EhSiaCRZRGV944QVuMRLfdePGGOfvkk7Owt2YMZ2c34zvTHCLEhgfleAaH98H+PzGwiTkBOkC/M8H351VdVQikC8seBJcen89mPxgoRHyBB+ZeIJ74osSqBJ4svjJXncs9LEXHcE6qQ+8saVFiyouPQO1ALFJhw41XdoJQbyvS+g35Efo215QB6Be8OQHMQDpN57oAB/uTR1JgfFlcg3pGOBJEP300xAhgQAf8oHAmKCbmIO44FTkB6nqpG6AE0QCygi/dwbXEmSj3OD+lA/5QZyDaoe6oi4PJT/YZ4MFVF9nFjYhs+gbUnboS2Iu+hDcUOoQI1x22SWOBAlNIfLkB3uVkB5DYI/qg5Qb/uc+9BtYQTqgigED0kjoW18PvlGqQLIxBiEJiCP9iyjADhU84wAyw5MQXOfJD69M4TdiNrBA2cG+GxAo/I5CBRKGecCrnlEzPfnkg9a8eWVHaBFbUp4nPyBi2EcR8gMVCKlhlEP8RFxKnSGeiGXpH9QeU6b0cG3jN+I4T7xAfrAvCeOHMviI/AjzqDgV+fHTF0tsdcV6NqdbN0tYeTKpMWbZBCtVtbRd9M+LnDFFUvdW/NvJxpR8wvGrJlvc1sTk304wqmunWXyXrra0Yj2X1uA7jW8mAqzgRRddYJkyXelIBQJxDCBqDJQe5DZxLgMQ5g7ygIAdBpH0jWDjwaAPbDLT35EAEARcA6MX/JYRJhxGgD0wyEULJg24lyc/pk3r5XIPqQsTCTabe8J2+vIgFpDyYTgwJhgrPiguqD/14RqMCcSCz7vbuXO6m1BMKiYak54y00p+MDHYpRh2GyIHRpPNWNkrBJUMhoL7ny35ARvLAwjs2dmb1wJDWIn8CDP5dEgICAEhIASEgBAQAmlEIDXy4/0uXW1eszaWEDcyRZ+7bqcG7i0vvO3ljpx3WttBHU44L2ZdrE3ZGJ+qIiRh5EBbVLeFfTYxsMAW7LOzKIf6mb0H2FOPhS2CYVTE//jHRW5lHV8d357UEVav8fHxbQk4SS3nGsqE/CDgYz84gmjSHkg9wLckSPX3JdAnmLz++kzuPizCBQfgweQHKhEW2SA3ePsJvjr3g0AhwKdM4gv8cPbyQ0lNnQg68eFJr2AVnmsI3lGyUBZB6MGDa10ZKBS4P3HEmZAf7FtBGyBpIGton0/bgDBCuX625AdBNQoYUorYEJa0e/x1iBnw+rPID/CF3CKWImiHSGLLAogb/8Yf0lcgyyB8IKJQgfNqZMYIKhMU/CyCQ7pA7EBSQGKwqMtiLniw9wnxDYvIqZEf3Js4hXECWUIWAf3tlR9kAdB2P678d0rkB+1CtQFpAVbUF0KMGAgSBmUQJAp7SJLSc8cdWV2ciSKGcj35MWlSNxffcZw+Z7GeMUpMymK+Jz+IASG+GLvEj7QbooQ54Uk+kR9pNKCnIj8O719lHw7oawsq1rPEeRNOMJKQGJPWxVqrt9rY5Vdd4TZQypo9q1VqVMX6xg2wQbOG2xuj33T/j10+MeWNlWCnS9ew9/r0tJ93n/iaU/LEMHIXXXShmwBMEgbOhAld3dtHMDx+MCF9YgKj0oAVhGXs06epm9x+cEB+cA15V0wQWDlYahg0b3Apn0HFwM6c+Wqn2mBjItQMfjJ48gMWD5aaiQmJwn4VbL7DfZEy+bL4n7LI+8Mo0g5PDiCJ8iwj9UAKiCqEsmAPMXIdO9Z2ZWII0kp+UAfaxoOIiQ/rilwLdpwdjCFDaFtq5Acs8+koP5CLFS2a103+Bg0quh2L2ayWyQ2eMLEpKz8Gufph6KT8SOPk1elCQAgIASEgBIRA1CGQGvnxnxljbXm9lpbwVq+T/HV89h6T+thD+R628847z67MdKUVKFXQuk/sbcPmjbI+sf2tVvu67v/YLScrvbk+sWU729C6ve0L2qPP+8YsNuIHkspBCgC/kyLAGyxQf5DaQOBGwIlviZqhaNHHHMmA/46vTBDJdZAfqCJI/2DvPBYkCdjxiQmC/T1ZGed/FhMhXXgZAoGnPx5MfhAssucI6gF8YItOBh8AACAASURBVNIfuCd727EIyDWoHZ566mFHdBDEsoDJHnts2I/fToDNeZAb7F9BmjuBJ6v+/fo1d2+5QamAsiNAftzqCACfpuGVHwT67CERqvwgHgAn4hWU2cQy3BfiZezYTo4cCJAfj6Wg/KiXrPwYPDiQ9sLGoaS9gB1BNepsVOqQNvjl4MqmsSzishkseLHgSxySmvKDtkCcsIAKMQNxRP1ClR9gSj8zHiAtIBhoFyp4SBD6jYVq/iY2I3YjlqA/UKWwUEt8RZxGX/EqYkgTyAvGBS99gBDiWlJr9u1b6t78Q7tClR/EQSwwoziHpPCvoWUsomAJqF6Ov3HUjx/ID1KygpUfXEMcRx1ImUIFRHyD6oMYDRU+cRWvn4UgYVxOnNjNjX3K9eQHCibOo930D/EfJAgECmSbJz84B0xoF3OGPTAZt2QSUBfK5HcpP9LwGDgV+XH00Eb7btMMW/h4RUsaN9gSNp1oEFF2jF0eYzlz35+s/sia/RYrXPZpK12trOUp+KhdfNklNnDGkJPVH5Q1Zbgl3VfGbcpy5Kf1yQaLziSHENaVgdGjR8Pk1BRkPQw2WFmf78T5DGYGCywtg4RvrvPkB69HQqEB+cEEZA8OWF4msj+HcvhAUmCkePcz0ij/O99IkpiI7JvBwMNYM+AxVCg5IFVQPHAugxaCAeOFQYMsIdBHcgfBAcvnGWfORbYFOUE5MH1McnaJhkHEEHAdbdq+PfDmGSY0myXxO1hhADC8sJzBdcbg8TqwcuUKO2xgSdnU1LebyYT0jk2p+A02lTozwakX8jTyKEeO7OAMDAaPzU8xUPQBr77FeEBgYGCZlOCM5I3jXbtybXvHclI+9UN6tmVL4B3rGED6gldwedljcP35W3t+pGFi61QhIASEgBAQAkIgQyKQGvlx8LNFtrFhK5uB+mN13EkEyOQN0+yFWhXsqmuvdmptNj99vOgT7rdCZYrYdTdltuotaxjnnaDS3j7TEpZPtaTydWxnv172yzfHCQbvqxFk48fhw+LL8jv+HH45K/sQBt7f/e67FW5vOvxMFubwdQn8CNa5jnQAgjneAINfycIm+2WgsMYn9ffkG8IA/57FvWDZP8cgPPDJWTHHj4WgQY1AwM9egsQB+O8oLDgfsga1CaQDf+O/8sYQAmaUGN4/pR2syENElCnzlCN9iDvwa/mNeqLgJnj3L1mgfPbe4zg+MH45fjKKmeAFWHx5fHpiGLCh/AEDWiSn37PwGohBApu6gjvlEFRTP8pi3z9PMOBzswBKqj4qF9QeKBaIWVDTsFUA8QhxBnhxLTEWex1SZ8qnLNQbxC8sTEPe0Db26IMgoJ8grMCEa/x1EFHcmzaADbiSQsSriIkjuJZxQR+w1wmkDHEa5bNwSioUG60SuxBvoADxL7QAG9oA0RNIg9niMOA1y9u2BRbLfV34JoZhoZox6mMf+pF2kEVA24PP52/OY9wFYqzjaUjEjdQtsCdlfkeokQpD7OTLhjij7YxLxoIvm3gJIghyjHNRzAfSgZ50JAqL87xymf1xwIfr6Dc2cSUe9iQI5/m5wKuBibs8ecg1SnsJY/pPRX4A4JGf19u6l+vZghZtLWnO+JPe+jJta6I17t7M7rw/h/3zkn86RhlJHZ//+7//s39ecvHJ5AdveZk30RKbtrHlpV6zQ98G9qLwg+NsvpHIMeiCiRHKwyDwWlcGC5PKG7uzuVfwtZTHxw/G4GNp+ZvBDhmAUYEl9xMpLWWkdC7lMGF5AMCWp3TO2fwG3hhFz0SeTVkpXSvyI8xE1iEhIASEgBAQAkIgKhBIjfz4/dgW+3BAH1vwamNLHDHApm9LOonE6Dauhz31XCG74uor7O9//7vz1b3Pfv755zvyY0oo+bEtyRJ7drfFFevZf2axqWLgRQIp+Wpp+Q1/kc0leQugD/S4Hj8aX57j+O2kGvyZfiv7e1AmPmta6ht6Ln41dcVfh3jwSu7Q887kf8pCzUD5f1Yc4OsBrsRBf2Z9fdkpfRPL+HuBOTFOaJv4jRjFE2S+HJT9wdfzO/EG6VKnG28R/0G4QFawL6Mv+2y/aQPjl/KDx29aywUblDKhcWtoOdwnMG5PFAuEnsf/Ij/CPApOh/w4dmSzew3tsqLVbGafnpaYyi7SHUe8YY8VedwyZc7k1B4XX3qxM645HrjLhs8fc2Lay/rplvB2X5v/REXbuzzWUJik1Hn6LcCgCgcpP8JMYx0SAkJACAgBISAEogSBVMkP3gL4wTzb2qKdzajcwKavmHoS+YGiY0DiYHu+5ot2/c032CWXXWL466i0b86W1Zr0aGGxm4NU3hAoSyZbUoFK9uHb/eznrwKbksovlX9+rowB1PylShVwGQPBaVHnSv3PpJ4iP8I8DE6H/AB0CJCdPbrb8vJ1bNagviepPzCmbGqKVG7UkvFuz4+u43rawKShNmldnMUHs8/vJFnC8AE2v0xNe7djZzv2W0DWcyadq2uix/hK+RFmIuuQEBACQkAICAEhEBUIhCM/jh3dYrvnTLDVVRvZrNrNU1R/kLI+ddN090KCt2cOs86julmfuAHG/nyh+30krIqz2aVq2PoaTe377bOM8uV7R4/vnRH6mnQcFB/saRKqOMkI7UupDSI/wjwKTpf8ANhDe1bYu+072+IX6ticXj0tcXPKb3CB6IA1ZsfouC0h52xKsBn9etm8crVtS7O29svXJ+cNptSJ+k2GVuRHmImsQ0JACAgBISAEhEBUIBCO/MBf/vXHtfZl/GhbUqqGza7V3KavnZbiomX8O0nOTyfNBb+d/5P3+tg6wxKTxtrcl+rbsuKv2v4NiXbklw0iPv7Y00JxybkTl5BW8lem+aSHsSHyI8yjIC3kx+/HttqPH863Xf372LLKDWx2g1Y2f8ZYS9g+67ix3D4z1b+TEkfbjMatbdHL9W1Hzx72w465RpnpYZCoDum/H0R+hJnIOiQEhIAQEAJCQAhEBQKnIj/waQ/tXWlfJY61NdUaWdLztWzOyIGWCAkSxk/3x5KWTrHZvXvYnBfr2MZ6Le3bldMs9KUE8pvTv9+sPorePhL5EeZRkCbyA7bz2FY7+OlC+yxmmG1q2sYWvtLYZrVoZ/OGD7B5cyfYrFVxThGSsCXRkpDKzZ1gc0YMsKSW7WxOtUa2rlFr+3TsYDvw4XwRH2KP00R8ifwIM5F1SAgIASEgBISAEIgKBE6H/CDw/fX7NfbNwkm2vV1HW1Ktsc2q38pm9+lpc6eNslnLp9iMDdOdIiRpXbzNXjrZ5k4aZrO6drU5tZvbiprNbGevHrZv3XSlp8tfT5O/LtIl8qSLyI8wj4I0kx9/GAAM6rerptnOnj1sS5PXbV3ztra0ZXub27KdJTZvawnN29jsFu1sUYu2trpZG9vU+HXb0b277Vk61Q7vD7xSSpMj8pPjXOoDkR9hJrIOCQEhIASEgBAQAlGBwOmSH/h47Kt34KP59snwAbatdQdb36yNLW/Rzua3bGdJzdvatGZtbFaLtragZTtb2aKtbWjaxt7t0Nm+mDLCfvpisYJeER8aA+fgGBD5EeZRcKbkhw+ajx7aYN+/N9s+nzTc3u/UxbY0aGXrKze0dZUa2Jb6rey9Dp3tswlD7b/bZkoydw5OHt/P6eFb5EeYiaxDQkAICAEhIASEQFQgkBbyI9l/O7bFfvp8sdsMdVffXrataRvb+GoTW1O+rm2q2czeadHOPh78lu1dNtV++Yb9+LSxaTJ28t9FgJxjY0DkR5hHwdmSHzIMUm/8VWNA5EeYiaxDQkAICAEhIASEQFQgcEbkxzkWvP1VvqXuozgmI44BkR9hHgUiPzTpz5VJL/IjzETWISEgBISAEBACQiAqEBD5Id/9XPHdVc/IjFWRH2EeBSI/IjMoZQzSjrvIjzATWYeEgBAQAkJACAiBqEBA5EfafUj53cIsmsaAyI8wj4Jg8mP76x3s6/kxtm99gj7CIN2NgS9iR9mK4q/Z1PvL25TuA2zcuHE2fvx4i42Ntfnz59u2bdts//79YUa7DgkBISAEhIAQEAJC4NxGwJMfs7OXsE9HDUp3/priCMVRGgORHQPfro63j4cNtKQbn7bYik0tZuBQFzfFxMRYQkKCLVu2zHbt2mWHDx+OmDH8W6TuHEx+zLq1mC3IVc4WPlJeH2GQ7sbAvJxlLPGagiI/ImUsdF8hIASEgBAQAkIg4gh48mPaxU/Y3LufS3f+muIIxVEaAxEeAw+/YHPves7iLsor8iPUYgeTH8sKV7FNtZvbtiZt9BEG6W4MbKjWyObd85zIj9BJrP+FgBAQAkJACAiBqEHAkx8sCK2tWNe2Nnk93flsiiUUS2kMRG4MbG3U2taUr2PTr3hS5EfokyGY/NjRrZt9tynRDn66UB9hkO7GwDcLJ9nqcrVFfoROYv0vBISAEBACQkAIRA0CnvyYk6OUfRU/yg5+Ir9dsYvGgMbA8THw46559sXUETYzS1GRH6FPhmDy45PhA+zQ3pV6l7NeB5Yux4A2PA2dvfpfCAgBISAEhIAQiDYEPPkx774ytm9tvP1+bEu69NuiaYNJtVUbqqanMaANT8M8FUR+aLKmp8kari4iP8JMZB0SAkJACAgBISAEogIBkR/y3cP5yzqm8SHyI8yjQOSHJsi5YiRFfoSZyDokBISAEBACQkAIRAUCIj/ku58rvrvqGZmxKvIjzKNA5EdkBqWMQdpxF/kRZiLrkBAQAkJACAgBIRAVCIj8SLsPKb9bmEXTGBD5EeZRIPJDxuBcMQYiP8JMZB0SAkJACAgBISAEogIBkR/y3c8V3131jMxYFfkR5lEQTH68176z7Vk61f67baY+wiDdjYGvEsbaylI19LaXMPNZh4SAEBACQkAICIGMjYAnP+b8q4R9Nn6o/Xer/HbFLhoDGgPHx8D+TTPs09GDLemmp/W2l9DHQTD5MS9nGVtWuKqteLa6PsIg3Y2BJU9WsqQsRUV+hE5i/S8EhIAQEAJCQAhEDQKe/Ii/LL8tzlsx3flriiMUR2kMRHYMLC9W3RY9WsGmXfyEyI/QJ0Mw+bHo0RdtTfk6tr5yQ32EQbobA6ueq2GzsxUX+RE6ifW/EBACQkAICAEhEDUIePIj4aoCtqLYK7a+coN057MpllAspTEQuTGw7uX6trxoNYu/NJ/Ij9AnQzD58X7nN2zfmmn24865+giDdDcGds+eYKvK1BT5ETqJ9b8QEAJCQAgIASEQNQh48mPOHSXtiynD7Ycdc9Kdz6ZYQrGUxkDkxsD322fZZxOGWlIWpb2c9GAIJj8+GT7ADu1dadqcJjKb0wj38Lhrw9OTpq9+EAJCQAgIASEgBKIMAU9+zLuvjO1bG2+/H9si3/338D6kfGzhE01jQBuehnkoiPyQMThXjIHIjzATWYeEgBAQAkJACAiBqEBA5Id893PFd1c9IzNWRX6EeRSI/IjMoJQxSDvuIj/CTGQdEgJCQAgIASEgBKICAZEfafch5XcLs2gaAyI/wjwKRH7IGJwrxkDkR5iJrENCQAgIASEgBIRAVCAg8kO++7niu6uekRmrIj/CPArOZfLj0KEN9vHHM23s2M524MDqk/Idd+9eYOPHd7F9+5bZ0aObTzp+phOSe23ePMlmzx541mX+8ss6GzWqo3366Wz79deNrrzDhzfYf/+7wvbvX5Zc/o8/rrK9e5fYwYNrkn870/qnh+u++mqBTZjQ1fbvX26ffDLTfv553SnbJfIjzETWISEgBISAEBACQiAqEDiXyI9Dh9bb6NH4ubPs8OGAn5se/NBI1wFfH/+XGObHH0+OYSJdv/R2/4ULh9qaNePSTRx09OgW87EZMdwPP6w6ZRzzV2Iq8iPMoyC9kx979iy2atVK2XvvTTMMaPDAYaDNmfO2Pf74A7Z798ITjnHexo0TrUCBh+2DDxKTiYXg68/07//8Z4ENGdLGatQoa8eObbHvv19pLVpUtWXLRtpPP6119YCooG6DBrUOe+/vvltuuXPfa0xqiA1ImrVrxznShvtACnCvevVetFdeec5q1Spn8fG9k9vK/fmEawvHO3asZfPmDUo3BnbduvFWsGBu27Ur0caNe8MWLRrmyJ1w7RD5EWYi65AQEAJCQAgIASEQFQj8r8kP/MaNG2OsQ4ea9v778c43JdgbOLClDRjQ0v2Gv/b11wutX79mtnr12GT/N9SP+/77FZYnT05bsGCIHThw4gIePn6fPk1s/Pg33GKYvxZ/f9WqMdauXQ3nG9ap84KtWzfhtBbKfBkpff/22yabPLm7Va1a0sUW+PHt29ewbdumnnXZKd2PWKBKlRK2fXtcijHM3LmD7Iknchn+fkrXp+ffTif+ICZq2rSS8/GJlbhm8eLhDvOlS0ckt5n+nzlzQIqxHBhwHeX06NHQGDOhuMTEdLMRI9q7WNEfI5769tul1qRJJXvnnVgbOLCVW3Ql7vLnnOk39WGBumvXeu6ecXG9XMz3xRfzzrrsM61T6HUiP8I8CtJCftDZO/bOs8nbx1jPVW9Z95Vv2ZitI+3DfQvtyJ+orAjuQAwHRm/nzgSDJQ0+xgCeNOlNy5TpSvv887knHOM8yIgbbrjGtm6detK1weWk9e9//3u2depU255++jH3QIB4+de/srqJh2KD8mC4e/VqbC+8UOQkgxd8P9p32WUX27RpvR1rCMnTt29T92GCw3Lmy5fLWrWqZj17NnIkRlJSf3cPjnOPjz9OOkX7ttibbzZwxiclhUxwff6qvxcvHmZZslznDNL8+YNd+yCLwtVP5EeYiaxDQkAICAEhIASEQFQgkBby49cjm+ydb+bY8E3D7M2V/azX6v6WsHOiff7fJSf5zcd9wC1uwaxw4TxOnQxp8M03i5zfmy/fgzZtWi/n/27ZMtkeeuguW7FidKrkAerryy+/5A8/98Q3SqLQbtasslsMw88nzqAOn302x3r3bmKlSj3pgsymTSvbpk2TUr3H8XqHTzEgjuB+d999u9WtW97FF3nz3ueC8S+/nB8Gj/DlpnZ/gu/atZ93ZBFq9eDzvvtuhU2Z0sPFMLQ3+Fh6//uDDxLcwuxXX803SLHU6osy4oknHnCxCyoXCBAIg2zZsrg4iutQvZcp85S9/XZr+/rrRSmWxbggnmrU6CXjnqH3Y6G5bNlCNmFCFzcuOc6CMoTKo4/mdLHU8OHtbOrUnk5ZH3p9Wv9nTNN3kGi0a9WqsfbGG3Vs4sRuro1pLe9/cb7IjzCPgrSQH7u+nW+dl/W0YhPq2qPDX7HHRlS3ZybUs7aLe9iufQvt8JFNJw1IBh/B7UcfzUgmAUh52Lx5sktZYdBDJiQlvWUTJ3a1+Pg+tn17rB08GFBQQCZABmAYOJeAHyMLy8YghhA4XfIDww0hAuvLoF2xYtQJg3Tr1ik2Y8Zb7jiBOASGH5BffDHXYGghKWAYUWKcTH60S55UKZEfK1eOdvdfsmS4Y8CZwCeSHytt6NA2jqVcvnykQe6MGdPJkQQwpKTIYDj4wDiS0nPllZdZ27av2qxZA1xZsNew6ytXjnGY/vvfc+zIkc0O28CDY6199FGSawvtBe+pU3vYe+/FJ7P2lE//8Pv06X1szZqxjtEMNTgYo19+WW+QMRw7cmSTaz8M66ZNMQ47mFfqBokDpjD5tDmY/EDu17jxy47RxaB6zEO/RX6Emcg6JASEgBAQAkJACEQFAqdLfhz6baO9u2euNZzTyQqNrWV5/vDdy05pbG+vH2S7D6S+Co7y49VXSzvFMaQB/jOLcbffnsXeequ5UxLPnNnf7rknm+3Zs8QtQs6bN9ji4nq6c72awZMfKEZQLvPBR/3mm8UuQF2wYKjdfPP1zlf0C2CoA2rVet569GjkYgeCW1Tc1IPyUEjHxvZ013z44QznfxIboFIh7iB2wOfFH/Zp7/i8+KeoPcqWLWjvvjvNrdqXL1/EIEA4hioZH5224vOzko+v++WX84y24f8Tf2zYMNG1H2UDv1MH/GH8VtqND42vjT+NsoU4JxDDLDFiAcqg/hA8xDCe/MA/BhuO4TMTWHtCaPnyUcYH/xm1uMc32Ff+4YeVrk1cSyCemNjvD1X5Fhc70S6wBReuJz4gZYMYjDqh4KEOlAlxsWjRUNeftBs/ntiD61Bg3Hrrjda9+/GFVYgLyqfulE+bUa/j37/88rMOM/qH+On66zMZuHP/Tz6ZZU899YiLryhj7drxrgyIC9+3nvyAbEhI6OvIN9rIPYg9UNaULv2UtW37WrIyhPFFXzdsWNHFc2xVQN8yxqjXjh3xLs6ByIPEAztiEN9O+gt1OjEOsSd1+PzzOe5c8H/hhcKObKE8xmX37g3t9deru74P7pNI/S3yI8yjIC3kR69VfS3/qBpWYmJdaz63vbVZ0NFemd7cHhxazXqv7m/fHDyR0aXDCYph6yApUEjAEDIxmjev4gYURqxLl7pWvHg+K1LkUfdp1+4127Jlipt8DOybbrrOIAMwaBjNypVLWLFiTzgpWaVKz54W+YGEDnKlUqXiBpPNvZhEpIJ4w4KcD3naM8/ktRIl8lv//i3cMerM30wsPq+8UsqKFXs8TeQH92DyP/tsPndfjMH69RNPID+YXLDbYENbmVBM7jvvvMWxphgl9sigLIwqErALL7zA8ud/0Fq2rGo7d053EkVY+ddeK2NVq5aypUtHuklZtGheGzq0re3bt9TlXj788D2OZClTpqDlyXOvMxi7ds1wZSMthBEvWPARe+mlYs5QPfrofa4uwZOYBwpG8r77/uUeEhgTlCudO9dxzDrnYjxy5crhyqlQ4Rnr1q2+7dgx/QTyg3MmTerm1B88bILvEfy3yI8wE1mHhIAQEAJCQAgIgahA4HTJj69+XG6dl/Wyuwa+5Px1/PZmc9tZ8Ql17dmJ9W3S9jGp+lz43/hspGaTZg55gc942203OT8VX47FyRdfLOoWzyAo8POee66AVa9e2u1lgWLEkx+VKxd3vqD331FuE/xy/JFH7nF+KPv44a+zSs9K/vr1E9y977rrdpsxo58jE/DbIUZKlMjnyiPgJLWmZs1yLhgngIV84Jz8+R9yfip+Jn43qQ/lyz/t6kjA++67cc7vJ30e8gOleZEij7k0c/zg1avHGW2g7eXKFbLChQNxCgE1i3ksqj7/fGEX+BLv4J+zqIi6BOIBUuP6668xFjDx61lQJM4ghuAbTDz5wbVcg/9esmR+I75BTYBihGPUm9+5rlmzKi4tKdhH5pwlS0ZYmzav2osvPm3Fiz/h4g3qSBvw54m1qlQp6fx/T+B06VLP9SvqCzBkERhCAUU9eHBfcCRmgnyBFOPvyy+/1IoWfczFHaQ/0Z9sU1Cy5JOujn36NHXjggVn1B+QD3xefbWMPfDAnfbww3e7RV6uo26QVxBJKGXo24oVizkyASKLeINYkhQhCDliNFRBb7xR140P37+0DXKI9hKP3HnnrTZ9el9HhtGfLBZD3qCYb9mymov36Nf69Ss4cmbkyPZWu/YLjsThvl271ncqIcYcRBd7FRJ7QVrlzPkvQ73jyTXaRvmoT4L7JVJ/i/wI8yhIC/lRIqahlZpYz1rOa29dl3Z1n06Lu1iDWW0tz4jX7N09J+c6wRKSmgGrhyoBFpSJyf4VDD6Y2GuuudIF5hgJBg2TALKEAUWQf95559n8+UMc88bEYtJBBLDpaM2aZU+L/EB69uyzTzgGEFUC1zOpMVowdgxOWGIIBJhfpFVM6t9+2+jYwPvvv8MF9RhKmG6MRFqUHxgl7p8zZ3br27eZm3zcF/LAp71A+DCpyXGkPlwDXhi5HDludcYAIwHDDjYY7kyZrnDMtzcOTZq87B5MrVu/4owuDxHIm4ceutuxz9wPkufqq69wBo2UIJhb+gemlsndv39Le+yx+1w7MZodO9b8w4D0OWFC89DiOAwuTCzXbts2xT0UYVtpAwaJ9BYeLKhtuD+/BSs//P/Vqz/n5JWpGQqRH2Emsg4JASEgBISAEBACUYHA6ZIfW3bPtvsHV7HXElpYp8VvJPvu+PGlJzWwCnEtTvDrgv0vVv5RA+DjsTiG344S45lnHneLawS1BKosDrJ4RzBLSgPKBRbxSpcu4Hw+T37gAxMgssiFnw9Jgo+LqplUcggBSAJW+yE0CPLxkzkHX5f7EbgSfBIIE+hTv6uvvtyRGJRBTECgCsmA354jx21u4Q7lBn4uaur69V+0J598yEaM6OBIi3vvze72LUF1ULHiM+4aSB/SYFjUI36gHNpGag5KABZB8beJcQiECxXK7RTP1LVDh1pukRbyCFXD3/72N9dmMIIUYgGXGAQfnn38PPmBChrigziHhcvRozvZbbfd6EgI/GQWbmkTRAw4+NjF9xnkCgE+sQmLzBBW1B0igHiChV0CdvZo4Xp8dlT5mTNfbSNHdnCKBxZpwYeFVq5HKQGxgY/PwirqdMqD4EHxAwEERrQbEqFBgwqOIEEZlCvXnW4BHPUE92VPDggR4ivGx1133ebSRSCp6DtiOkgj4jLft1dddbnLBqCt9DmkCWVD3LBwfsUVlzq1BnVifNB/xI+0m5gDdQrqHWImxhwkBwQbcRzbFUC2UBaLwJB3LJIzhiD1ILNQOjH2evdubO+/P82lR1G/wYNbu4VdcPX4Q9SxvwgLwP63SH6L/AjzKEgL+ZFvdE17cWoj67zkuAHttqybvbm8u93U53nb9J/jaSK+w5mwDHz23mCyYPgwluxBQSCM8bn22qvcIPv9dyRFc50xwOgx8YLJD+RUpUoVcMaXAZeWPT8wtnnz3u/IFX8tOywjtUMaBcsJc8wkYAIUK5bXEQDUgc04YZ35pl0YtJT2/ICphoTgHNJeevY8vucH98Twt2r1yh9tDeQPBpMfyM4gdrjO4+e/YWIx1tmy3ewMMA+L7dtjHXEEMYTR4x4Y4woVirrJ7a/l91DyuZ6NOQAAF/xJREFUAyxguWk3pAfkBMYAphRGGyODseADG8tmVTxMfJl8p4X84I02PCT89aHkB8QPhBJSOn9O6LfIjzATWYeEgBAQAkJACAiBqEDgdMmPtV/OsBt6l7O2CztZl6VdkskPiJDyUxtZoXF1U/W58MFYFMye/Wa3MT0kAWQDxARBMr4iG9eTJoCPynkE3pAkrNBzDF/Pkx+Bve1WOt/xrbeaOdUyKSD4oSyO4mcTILP5JUE8vjh1CCY/SJFBEUIwzX0IuK+77mqnMiFVG2UK6g6uJThnIY4FV/x9lBQLFw5xAfYll/zTqZZROhAkk/KAv0vwTFqG30cQ3xo1BmoXUsDxpyFJCHB5oQI+PKkpN9+c2aVQoNam7ig2qHsw+UEMg3r8zTfru3JC9/yASIBYwl+nbSgbCN4hMlCCQ36gjIe4CPWP+Z90EeIMCATqHXwO9Yb8aN26enIMQgzFCwdQcIAp93zwwRxuYZSyiN9Q7EMQcF/SnSAvIBrAhMVcYib6D7KCOILYgnK4F+OFcQFxQd25N7EF48aTKRAZkCAs7EJalStX2JUb6NvCdu21VzvCiviBa/2eH7SHtCUWj0nJIfYifYfrUPizrQFEDIvcHON8T36AM4oRFt45nw9tAzewRhHCucRYxKfEVKjy3367lXu5Bf0LOcZYp1yPM4vnqEaIcf1vkfwW+RHmUZAW8qPs1KZWelL9E5QfkB89V/S2x0fVTFH5wcCAFWQSo0ZgUGJYIBJQDWCgbrzx2uQdfpnUDB4MK4M9mPzA6CLZgrVkQKWF/EhI6OcmJhOMazGm5MORUgO7Sy4hkw7GFRYbBQbqB4wTRvO+++5wMiiuDSY/aB9G8447bnGkhN/pl7w2iI6qVUs4CR/nYZR4aAS/mSaY/OAhw33ZeTp0woAhEkMkchh7DE5q5AfGmzr6Mrh3KPkBm0mbQ8kPHkD0DzI3rudhQMrR6ZIfkBgYiVDlBxjSX75OoeQH7DJMOuyzPyf0W+RHmImsQ0JACAgBISAEhEBUIHC65MfWr+dY7hHVrU5S6xOUH63nd7DyUxtblYQAwRDqb/n/WbxEoUEwC5lAkEvAjKqDVXgIDhYO8fFYnINogOSAiIAIwCc+mfzY5Px4Uqt9ijuBNsQA/ifxAr44qSvUI5j8YBGVOIBziAn44NejyGClnkU0yuENjAS+ECGkXODTsujKAh9BLv44+4bgl6KAQCGNr4z/TNDsNz+FdEBRgEqAlHDqg9+OCoSUc5TYBPeQLgTNLNwSHLOoyLnB5Ad1LVEiv1OKcCyU/Jg9+22HJ6lDnBsbG9gX5MMPAy81gEDg7TuQL1wf+kFNQrtIg2eBNPg4baMP6R8fg9COfv2aG+oKSAj6jbayJwhKHxQuEBgQBbx1EtVJauQHqSVsLIpyhT00IBFYMKX9xBGodagb6qCAymOyw5q+yZw5k0tvAjPwIW0muG+JfWhPMPlBf6HEZyNdFo5RKUHKoNBgbKLwIJWKxWEU8LTfkx/En82bV3WEFveh3YwhCB9IL2JANsRlvLA3DIQcag/GHONqypTuTqXORr+U63FmKwNSq2if/y2S3yI/wjwK0kJ+TH1vnJWMaWhlJjVwLHLPFT2sw5I3DUVIv7UDbU8Ke37Q8QTYTByUC1mzXm+dOtVye0+wORA75DLxUGYweNkcFfUDr2bFGAaTHygVMGoYFmRxBOqQC6ez4SkDmlw92FiMGpMJIwBzB7HA5qkYYnYbJqcNGRYyKIw2982ePasjapDOYRAwvlzr20fbmFiw2Ew0JhckBYbq118D+XqnIj8gg1BuIAdjopPnh4IEQggs9u5dmrxRE/IwjDh4koPmmU2uJ0/udMgPHmqh5AcPAiY8k5pyISWef76IY59haoMnMsaH+1KHYcPauYcP8j/yQ9NKfmBweXDwsAy+R/DfIj/CTGQdEgJCQAgIASEgBKICgdMlP74+sMLtyZdrSFVrPKeddV7S1Tos7mIvTm1i5aY0sek7AwF9sK8V/DeBMn4s0n/8XlLVUTAQiKJKgCjAP4WoID2bxS/8U3xnPqRyePID/xvfFN+T9AAICcgFfz/SOVCM3HLLDW6x1KsXgskPyoZgYB87FAkskpLigC8KCUGQTYoKSgaCWsgaXgyA+hy1AnWB/OA4cYS/N98pkR8E1NQZVcuYMZ3cvVCAkBqCn0vbuQ4fmLQa/GFUEtSJMoPJD2IJ7osygHvzf7VqJZPTXliQJNjmAwER3DZ89VORH6SqUCfiJGIQYhGwAxcICMgPNgT15Af4QjiQOkL6O8oF8OG+xBeQHhAeLOaCJfv3oc4mZuJFBqhEUIyDAecXKpTHpfQQB1EOH+4PPhBmuXPf4+IDcART6sK9SRn68MNEtxUC8V+gbwed0H62IGDM8YHkgbjhpQ+kZBEngg94MyZ8zEKaDvf3xJYnPyDciEmzZMnssgGIsegvT4Sxt+S992azBx+8y50HsUYdURixgA2hB24QQ8StlM+9585928WVKJf4P9IfkR9hHgVpIT8gN8ZuHWmvJL5uhcbWtoJja1vl6a2sy/I+9vH+RSm+7YXOZ+AzOPPmfcCxfjBsTER+Z9AhOYIYwKBhXGFrmfhc68kPBhoTCdYR9g0D4lUQ4cmPa5Pf3006CewsBpcPfzMJGbhs4MNGQuzz4TcbeuCBO/7Y0XqVqxPHuY77MhE8+UE9YQZRtUA8cD3nkDfG/iG+rQHy4zjrynVe+QGbjYIEJQwEBqQQBmjUqA5usoMJRo2JD0PLJOUNNNyHzVshHTAmXMsE5y0vlM8HnAPKj6bufuz5gVGA2cVgsGsxDxyMGKksSBh5gGGEMPD0DxJDSB9fpv/GuFIHjBXMKPXjARBKfmD4YLn9dQHlR2a3QzMGmAchpAvG158T+i3yI8xE1iEhIASEgBAQAkIgKhA4XfKDtzB+uG+hdV7W216IbWr5R9ewIuPqWI2ktjbhnVG296dVqfpc+GCQF/iG//jHhW7VmwU50gvwDUl7QPGBj8l5kBv456QJsICIOgKyBN+dFXp8ZFIe8BVRWg8b1tZd6329QACd2wXIwZtGevKD9BRUD6y8o9BAIYBSnAVRgn2IFHxmVvzxS/GRCVwhQwjiIWhYWDw1+VExOTXk2LGtbiESn5i24V9DLhCvBC8Iso8Em4IGFg6Pv27Vkx+kdIADyvVADFPQ1REsIJbY8xAFytixndxmpdwDkgQlAannP/+89g/yo1aqyg9iDRYSiY8gSlDPoKShbAiKUPIDfx8ihLiBdBv2IqHfUD6wbwvkAhuGosQnBkHpwxtOiBnYO5E+YJ8W9gGBEGAfDPqVhV/q3qpVNaemgEBisZpFYtrOoioxDOr7iy660JFF7CsCqUIfE0f5vuW+9C0kA/EFsQqpL7SNOvM348OPIRaoWdhmSwNUGv53xqgnPxi/7LdCnIJy6bXXyrqNXmkv7UARRHxIKgyEFNiDAeOdBXKwpD2ojKgvMQy/sdcIqT3Ek/6+kfwW+RHmUZAW8oNOhEVe+EmsDdk41AasG2SoQT75bpEdObo5bGfD2rGRDEaL/Dg/IFB/kMLB5jIYTiRLTCwCf85hgpBbhcFlcLGLM0aRnDnkbBgfNhCFOPBl+m8mvN+IiUnOICYIZ5McAm3qw2t3OR+jCbPJ7+R1cR5EBJIoDAp1HDz4dXec/SswMJA4/l6QOOxngmHD4HMuE5xJ489hkrCJUTDTjbFjQ1jahdJj+/ZYR2TQJpQgqFDYbRglDOchJYQ1p0wmHMdhYvmd96WDHex2sDFgL5XRozs6yR73Y2IyycEY4gdDAFPJxkeUy7Wk4NBXvIUFJQpkD7mSvi3+m+vJreNVXkx8cu/AESw4B+xg82mXfw0Yv0PU8DsbQIETqg+u4QHqyw79FvkRZiLrkBAQAkJACAgBIRAVCJwu+YEf9dvRzW6Bcsq746z/ukE2dONQW/RJnH1z4PiCVKi/5f8ncMW/xc9kYQwfDT8Sv40NOVmg9OfiQ+I740ejJMAfxHfnfPxu/FQID14J6o/5a/mGmCBdAt+TFyL4YyyyESOgQOBvAmX8RTZfxd/u37958iInvjS+PavwxB2k5FAnfFnIB2IBgmn8VB9n+Pvwjf9MqgTBtv+dwBmVxpAhrzs1BL4u5+G/+nPAiZiA2CAYExQp1JG4x8cw1C8Qw7R05dA277OTukPZ4I3vTxxCu1Fv0Ab8bXx/f9/Qb64nLuJa9iUhFmGRlYVOcEW1c+DA8eupN+VDYBBrcV/SVfDR6Tv8dOIP4i76joVeYgiwRKlPX3M/YjAU9sRM9C9lcW4gvX6z28Nx8uQ3XdsgXMCCPuZ+xBs+VoLcCu5bFnt5MUNAod/DvQUIVTrxEMcgISjL48DfbDyKsmPjxonJv3M80LeDXd8Sh3EeC8e87YbyiJ9QgNCv1IEywJ3+R1FCv5FqQ1mcxxiGhAEn5gYxLDjR574+kfwW+RHmUZBW8uN/1ZEEyZ49O9U9mMQMSIzYqc4NPc4gxsAykUKPQRJgWAMSsS12+PBG978/j0nFh7r630K/KZd2YHRDj53O/7QJSRdkBAaea7gnE42yqX9oOcfrnHq9Qq8J9z/qCx4W5O0xuWF3Yb23bw9M+pSuBVOMaErHwv1GezDIGFE2ng13rsiPMBNZh4SAEBACQkAICIGoQCAt5Ec4v+p/cQxfNdhfxc/jfxbL8GcDPvbZ+6uUBRmTkl/8v2gX9YfIwec+m/JPJ4YBIwL0M2kb13B9OJIktP5cw/m0Lfie/P3TT2tc3EO9WaT18Q144Ptzr+BrKIOygn8Lvd+p/k+pb7kPcYbH70xijtD7UkdebMH9iAFDj6f2P9cRl0GcQB5BGJEKxKJ7atf81b+L/AjzKEgv5MdfPSjS8/0wHLCq+/YFcgb/6rpCRCAve/nlYk6+2KBBRSe7C2bC/8w6wZLzQDlVmSI/wkxkHRICQkAICAEhIASiAoH0TH6cypfT8cjvB6E+OPs+YCEclQcqfeIYVEbpCVeRH2EeBSI/zn4CpKfB/mfUhQmNBA9JGhK0cEqXP+N+p1uGyI8wE1mHhIAQEAJCQAgIgahAQOSHfPfT9Z11XnSOFZEfYR4FJ5AfwwbYoT0r7BivfNJHGKSzMfDDjjm2vmojm3p/eZvSfYCNGzfOxo8fb7GxsTZ//nzbtm2b7d+/P8xo1yEhIASEgBAQAkJACJzbCCSTHznL2L410+wYLxFIZz6b6qNYSmMgcmPg6KGNtmd5rM26tZjFVmxqMQOHurgpJibGEhISbNmyZbZr1y47fPhwxIzh3yJ152Dy450W7W337An27epp+giDdDcGPp80wlY8+6rIj0gZC91XCAgBISAEhIAQiDgCnvyYna24fTxsoH27Sn67YheNAY2B42Ng7/JY+2hwf5txQxGRH6EWO5j8AKA5d5S0uXc/p48wSHdjgIf89CufFPkROon1vxAQAkJACAgBIRA1CHjyI+6ivG5ld+5d8tsVu2gMaAwEjYG7SjnbEHfBYyI/Qp8Mx349Ygc++tJ2dhtr73cc4T4rGnS3xJda2NRyDS2mdD2Lea6u+zv2+UamjzCI+Bio19GmDB2ltJfQyaz/hYAQEAJCQAgIgQyPwG/fH7Q9izcm++347/Oqt7f4F5va5LINLKZ0XZtcpr58dsUtGgMaAxbbua/FjByjtJfkJ8Pvv9vRQ4ftl6/22s9f7nGfHSvW2exxk23qoBE2od8gG99vkE0dPNJiB4/SRxhEfgyMHGtTJsaI/EiexPpDCAgBISAEhIAQiBYEfj961H774WCy347/vipxjiWMHG+TBg5zfntM/yGR99fkM6sPNAYiPwbGTbSYCRNEfoR7QHz66aduA8m4uDib8AdYkyZNMn2EQXoZA2zYw4anEydOtPj4eFu8eLFt377dvvvuu3BDW8eEgBAQAkJACAgBIZDhENiwYYPNnDnTpkyZ4jaDx39PLz6b6qH4QWMgsmMAe8BLIiZPnmxJSUm2atUq+/jjj+3XX3+NmC2M2IanKbX4iy++sOXLlztwMKKeACHY1EcYpIcxwARmXE6dOtVmzZrlJvEHH3xg33//fUpDWr8JASEgBISAEBACQiDDIvDOO+/YwoULbfr06Y70wE9KD/6a6qC4QWMg8mMAewABhX1YsGCBbdy40T777DP77bffImYT0xX5sXv3boNBXrRokc2YMcMFmKywE2zqIwzSwxhA+cErbmEvlyxZYps3b7Z///vfduDAgYhNYt1YCAgBISAEhIAQEAKRQIAFoNWrV9u8efNcgMMKb3rw11QHxQ0aA5EfA9gDlPJz5851C8bvvvuuEe+L/PjDWu/bt8/ef/99W7dunUsnYGV92rRp+giDdDMGYC5nz55tS5cudUTdzp073ST++eefI+Fz6J5CQAgIASEgBISAEIgYAqzibtu2zQU2rOyyeCnfXbGLxoDGAGMgMTHRbWmxcuVK27p1q33yySf27bff2pEjRyJms9KV8uOHH35wUpgdO3a4FXWYZPZU0EcYpJcxAOmxZs0a27Jli7HaQarW/v377fDhwxGbxLqxEBACQkAICAEhIAQigcCePXtcQMOKLurtFStWyG9X7KIxoDHgxgD2YP369W5/RPb6QPVBvH/06NFImCt3z3RFfvzyyy8ukAQYmOSPPvrIIEJQg+gjDNLDGEDpweT9/PPP7ZtvvnEbnR48eDCiDGbErIduLASEgBAQAkJACEQ1Aj/++KPt3bvXvvrqK+PFBbt27ZLPrrhFY0BjwI0B7AF2AfuAnWCPROL9Y8eORcxupivyAxaIHCBW0QGGVAICS32EQXoaA4zLQ4cOuXHKeGXc/v777xGbxLqxEBACQkAICAEhIAQigQDydd7cgF+E7/7TTz/Jb1fsojGgMeDGAPbAx03YCexFJIkPbGS6Ij8iYbR1TyEgBISAEBACQkAICAEhIASEgBAQAkIgYyMg8iNj969aJwSEgBAQAkJACAgBISAEhIAQEAJCIOoREPkR9UNAAAgBISAEhIAQEAJCQAgIASEgBISAEMjYCIj8yNj9q9YJASEgBISAEBACQkAICAEhIASEgBCIegREfkT9EBAAQkAICAEhIASEgBAQAkJACAgBISAEMjYCIj8ydv+qdUJACAgBISAEhIAQEAJCQAgIASEgBKIeAZEfUT8EBIAQEAJCQAgIASEgBISAEBACQkAICIGMjYDIj4zdv2qdEBACQkAICAEhIASEgBAQAkJACAiBqEdA5EfUDwEBIASEgBAQAkJACAgBISAEhIAQEAJCIGMjIPIjY/evWicEhIAQEAJCQAgIASEgBISAEBACQiDqERD5EfVDQAAIASEgBISAEBACQkAICAEhIASEgBDI2AiI/MjY/avWCQEhIASEgBAQAkJACAgBISAEhIAQiHoERH5E/RAQAEJACAgBISAEhIAQEAJCQAgIASEgBDI2AiI/Mnb/qnVCQAgIASEgBISAEBACQkAICAEhIASiHgGRH1E/BASAEBACQkAICAEhIASEgBAQAkJACAiBjI2AyI+M3b9qnRAQAkJACAgBISAEhIAQEAJCQAgIgahHQORH1A8BASAEhIAQEAJCQAgIASEgBISAEBACQiBjIyDyI2P3r1onBISAEBACQkAICAEhIASEgBAQAkIg6hEQ+RH1Q0AACAEhIASEgBAQAkJACAgBISAEhIAQyNgIiPzI2P2r1gkBISAEhIAQEAJCQAgIASEgBISAEIh6BER+RP0QEABCQAgIASEgBISAEBACQkAICAEhIAQyNgIiPzJ2/6p1QkAICAEhIASEgBAQAkJACAgBISAEoh4BkR9RPwQEgBAQAkJACAgBISAEhIAQEAJCQAgIgYyNgMiPjN2/ap0QEAJCQAgIASEgBISAEBACQkAICIGoR0DkR9QPAQEgBISAEBACQkAICAEhIASEgBAQAkIgYyMg8iNj969aJwSEgBAQAkJACAgBISAEhIAQEAJCIOoREPkR9UNAAAgBISAEhIAQEAJCQAgIASEgBISAEMjYCIj8yNj9q9YJASEgBISAEBACQkAICAEhIASEgBCIegREfkT9EBAAQkAICAEhIASEgBAQAkJACAgBISAEMjYCIj8ydv+qdUJACAgBISAEhIAQEAJCQAgIASEgBKIeAZEfUT8EBIAQEAJCQAgIASEgBISAEBACQkAICIGMjcD/A2xkc3m4+CQCAAAAAElFTkSuQmCC;" parent="1" vertex="1">
          <mxGeometry x="111" y="148" width="577.01" height="155" as="geometry" />
        </mxCell>
        <mxCell id="0aWTBgT8m-yXVXQRdEIo-16" value="" style="endArrow=classic;html=1;" parent="1" edge="1">
          <mxGeometry width="50" height="50" relative="1" as="geometry">
            <mxPoint x="358" y="187" as="sourcePoint" />
            <mxPoint x="370" y="187" as="targetPoint" />
            <Array as="points">
              <mxPoint x="370" y="187" />
            </Array>
          </mxGeometry>
        </mxCell>
        <mxCell id="0aWTBgT8m-yXVXQRdEIo-18" value="" style="endArrow=classic;html=1;" parent="1" edge="1">
          <mxGeometry width="50" height="50" relative="1" as="geometry">
            <mxPoint x="225" y="188" as="sourcePoint" />
            <mxPoint x="237" y="188" as="targetPoint" />
            <Array as="points">
              <mxPoint x="237" y="188" />
            </Array>
          </mxGeometry>
        </mxCell>
        <mxCell id="0aWTBgT8m-yXVXQRdEIo-19" value="" style="endArrow=classic;html=1;" parent="1" edge="1">
          <mxGeometry width="50" height="50" relative="1" as="geometry">
            <mxPoint x="520" y="187" as="sourcePoint" />
            <mxPoint x="532" y="187" as="targetPoint" />
            <Array as="points">
              <mxPoint x="532" y="187" />
            </Array>
          </mxGeometry>
        </mxCell>
        <mxCell id="0aWTBgT8m-yXVXQRdEIo-22" value="" style="endArrow=classic;html=1;" parent="1" edge="1">
          <mxGeometry width="50" height="50" relative="1" as="geometry">
            <mxPoint x="515" y="262" as="sourcePoint" />
            <mxPoint x="231" y="262" as="targetPoint" />
          </mxGeometry>
        </mxCell>
        <mxCell id="0aWTBgT8m-yXVXQRdEIo-23" value="" style="rounded=0;whiteSpace=wrap;html=1;dashed=1;strokeWidth=1;fillColor=none;" parent="1" vertex="1">
          <mxGeometry x="110" y="145" width="564" height="71" as="geometry" />
        </mxCell>
        <mxCell id="0aWTBgT8m-yXVXQRdEIo-24" value="Android Webkit层" style="text;html=1;align=center;verticalAlign=middle;resizable=0;points=[];autosize=1;" parent="1" vertex="1">
          <mxGeometry x="110" y="145" width="103" height="18" as="geometry" />
        </mxCell>
        <mxCell id="0aWTBgT8m-yXVXQRdEIo-25" value="" style="rounded=0;whiteSpace=wrap;html=1;dashed=1;strokeWidth=1;fillColor=none;" parent="1" vertex="1">
          <mxGeometry x="121" y="235" width="555" height="73" as="geometry" />
        </mxCell>
        <mxCell id="0aWTBgT8m-yXVXQRdEIo-26" value="Chromium Core层" style="text;html=1;align=center;verticalAlign=middle;resizable=0;points=[];autosize=1;" parent="1" vertex="1">
          <mxGeometry x="570" y="290" width="106" height="18" as="geometry" />
        </mxCell>
      </root>
    </mxGraphModel>
  </diagram>
</mxfile>
